0
SECTION
2
ENTITIES
0
LINE
8
0
10
100.7873
20
-13.5911
30
0.0
11
100.4077
21
-13.5731
31
0.0
0
LINE
8
0
10
100.4077
20
-13.5731
30
0.0
11
99.0904
21
-13.5735
31
0.0
0
LINE
8
0
10
99.0904
20
-13.5735
30
0.0
11
98.7581
21
-13.5626
31
0.0
0
LINE
8
0
10
98.7581
20
-13.5626
30
0.0
11
98.4272
21
-13.5295
31
0.0
0
LINE
8
0
10
98.4272
20
-13.5295
30
0.0
11
98.0992
21
-13.4746
31
0.0
0
LINE
8
0
10
98.0992
20
-13.4746
30
0.0
11
97.7756
21
-13.3980
31
0.0
0
LINE
8
0
10
97.7756
20
-13.3980
30
0.0
11
97.4578
21
-13.3000
31
0.0
0
LINE
8
0
10
97.4578
20
-13.3000
30
0.0
11
97.1473
21
-13.1811
31
0.0
0
LINE
8
0
10
97.1473
20
-13.1811
30
0.0
11
96.8453
21
-13.0419
31
0.0
0
LINE
8
0
10
96.8453
20
-13.0419
30
0.0
11
96.5532
21
-12.8828
31
0.0
0
LINE
8
0
10
96.5532
20
-12.8828
30
0.0
11
96.2724
21
-12.7048
31
0.0
0
LINE
8
0
10
96.2724
20
-12.7048
30
0.0
11
96.0040
21
-12.5084
31
0.0
0
LINE
8
0
10
96.0040
20
-12.5084
30
0.0
11
95.7493
21
-12.2946
31
0.0
0
LINE
8
0
10
95.7493
20
-12.2946
30
0.0
11
95.5093
21
-12.0644
31
0.0
0
LINE
8
0
10
95.5093
20
-12.0644
30
0.0
11
95.2852
21
-11.8187
31
0.0
0
LINE
8
0
10
95.2852
20
-11.8187
30
0.0
11
95.0779
21
-11.5587
31
0.0
0
LINE
8
0
10
95.0779
20
-11.5587
30
0.0
11
94.8884
21
-11.2855
31
0.0
0
LINE
8
0
10
94.8884
20
-11.2855
30
0.0
11
94.7174
21
-11.0003
31
0.0
0
LINE
8
0
10
94.7174
20
-11.0003
30
0.0
11
94.6157
21
-10.8260
31
0.0
0
LINE
8
0
10
94.6157
20
-10.8260
30
0.0
11
94.5026
21
-10.6590
31
0.0
0
LINE
8
0
10
94.5026
20
-10.6590
30
0.0
11
94.3784
21
-10.4999
31
0.0
0
LINE
8
0
10
94.3784
20
-10.4999
30
0.0
11
94.2439
21
-10.3496
31
0.0
0
LINE
8
0
10
94.2439
20
-10.3496
30
0.0
11
94.0995
21
-10.2086
31
0.0
0
LINE
8
0
10
94.0995
20
-10.2086
30
0.0
11
93.9461
21
-10.0777
31
0.0
0
LINE
8
0
10
93.9461
20
-10.0777
30
0.0
11
93.7841
21
-9.9574
31
0.0
0
LINE
8
0
10
93.7841
20
-9.9574
30
0.0
11
93.6144
21
-9.8482
31
0.0
0
LINE
8
0
10
93.6144
20
-9.8482
30
0.0
11
93.4378
21
-9.7507
31
0.0
0
LINE
8
0
10
93.4378
20
-9.7507
30
0.0
11
93.2550
21
-9.6653
31
0.0
0
LINE
8
0
10
93.2550
20
-9.6653
30
0.0
11
93.0669
21
-9.5923
31
0.0
0
LINE
8
0
10
93.0669
20
-9.5923
30
0.0
11
92.8744
21
-9.5322
31
0.0
0
LINE
8
0
10
92.8744
20
-9.5322
30
0.0
11
92.6782
21
-9.4851
31
0.0
0
LINE
8
0
10
92.6782
20
-9.4851
30
0.0
11
92.4793
21
-9.4514
31
0.0
0
LINE
8
0
10
92.4793
20
-9.4514
30
0.0
11
92.2785
21
-9.4310
31
0.0
0
LINE
8
0
10
92.2785
20
-9.4310
30
0.0
11
92.0769
21
-9.4242
31
0.0
0
LINE
8
0
10
92.0769
20
-9.4242
30
0.0
11
91.8767
21
-9.4309
31
0.0
0
LINE
8
0
10
91.8767
20
-9.4309
30
0.0
11
91.6774
21
-9.4510
31
0.0
0
LINE
8
0
10
91.6774
20
-9.4510
30
0.0
11
91.4798
21
-9.4843
31
0.0
0
LINE
8
0
10
91.4798
20
-9.4843
30
0.0
11
91.2849
21
-9.5307
31
0.0
0
LINE
8
0
10
91.2849
20
-9.5307
30
0.0
11
91.0936
21
-9.5900
31
0.0
0
LINE
8
0
10
91.0936
20
-9.5900
30
0.0
11
90.9066
21
-9.6619
31
0.0
0
LINE
8
0
10
90.9066
20
-9.6619
30
0.0
11
90.7249
21
-9.7462
31
0.0
0
LINE
8
0
10
90.7249
20
-9.7462
30
0.0
11
90.5491
21
-9.8424
31
0.0
0
LINE
8
0
10
90.5491
20
-9.8424
30
0.0
11
90.3802
21
-9.9501
31
0.0
0
LINE
8
0
10
90.3802
20
-9.9501
30
0.0
11
90.2189
21
-10.0689
31
0.0
0
LINE
8
0
10
90.2189
20
-10.0689
30
0.0
11
90.0658
21
-10.1981
31
0.0
0
LINE
8
0
10
90.0658
20
-10.1981
30
0.0
11
89.9218
21
-10.3373
31
0.0
0
LINE
8
0
10
89.9218
20
-10.3373
30
0.0
11
89.7873
21
-10.4858
31
0.0
0
LINE
8
0
10
89.7873
20
-10.4858
30
0.0
11
89.6630
21
-10.6429
31
0.0
0
LINE
8
0
10
89.6630
20
-10.6429
30
0.0
11
89.5495
21
-10.8080
31
0.0
0
LINE
8
0
10
89.5495
20
-10.8080
30
0.0
11
89.4473
21
-10.9803
31
0.0
0
LINE
8
0
10
89.4473
20
-10.9803
30
0.0
11
89.2773
21
-11.2668
31
0.0
0
LINE
8
0
10
89.2773
20
-11.2668
30
0.0
11
89.0886
21
-11.5414
31
0.0
0
LINE
8
0
10
89.0886
20
-11.5414
30
0.0
11
88.8820
21
-11.8028
31
0.0
0
LINE
8
0
10
88.8820
20
-11.8028
30
0.0
11
88.6585
21
-12.0498
31
0.0
0
LINE
8
0
10
88.6585
20
-12.0498
30
0.0
11
88.4190
21
-12.2815
31
0.0
0
LINE
8
0
10
88.4190
20
-12.2815
30
0.0
11
88.1646
21
-12.4966
31
0.0
0
LINE
8
0
10
88.1646
20
-12.4966
30
0.0
11
87.8965
21
-12.6944
31
0.0
0
LINE
8
0
10
87.8965
20
-12.6944
30
0.0
11
87.6158
21
-12.8738
31
0.0
0
LINE
8
0
10
87.6158
20
-12.8738
30
0.0
11
87.3237
21
-13.0342
31
0.0
0
LINE
8
0
10
87.3237
20
-13.0342
30
0.0
11
87.0216
21
-13.1747
31
0.0
0
LINE
8
0
10
87.0216
20
-13.1747
30
0.0
11
86.7109
21
-13.2949
31
0.0
0
LINE
8
0
10
86.7109
20
-13.2949
30
0.0
11
86.3928
21
-13.3940
31
0.0
0
LINE
8
0
10
86.3928
20
-13.3940
30
0.0
11
86.0688
21
-13.4718
31
0.0
0
LINE
8
0
10
86.0688
20
-13.4718
30
0.0
11
85.7404
21
-13.5278
31
0.0
0
LINE
8
0
10
85.7404
20
-13.5278
30
0.0
11
85.4090
21
-13.5618
31
0.0
0
LINE
8
0
10
85.4090
20
-13.5618
30
0.0
11
85.0760
21
-13.5737
31
0.0
0
LINE
8
0
10
85.0760
20
-13.5737
30
0.0
11
83.4072
21
-13.5731
31
0.0
0
LINE
8
0
10
83.4072
20
-13.5731
30
0.0
11
82.8645
21
-13.6096
31
0.0
0
LINE
8
0
10
82.8645
20
-13.6096
30
0.0
11
82.3439
21
-13.7160
31
0.0
0
LINE
8
0
10
82.3439
20
-13.7160
30
0.0
11
81.8503
21
-13.8875
31
0.0
0
LINE
8
0
10
81.8503
20
-13.8875
30
0.0
11
81.3884
21
-14.1193
31
0.0
0
LINE
8
0
10
81.3884
20
-14.1193
30
0.0
11
80.9630
21
-14.4066
31
0.0
0
LINE
8
0
10
80.9630
20
-14.4066
30
0.0
11
80.5788
21
-14.7448
31
0.0
0
LINE
8
0
10
80.5788
20
-14.7448
30
0.0
11
80.2406
21
-15.1289
31
0.0
0
LINE
8
0
10
80.2406
20
-15.1289
30
0.0
11
79.9533
21
-15.5543
31
0.0
0
LINE
8
0
10
79.9533
20
-15.5543
30
0.0
11
79.7215
21
-16.0162
31
0.0
0
LINE
8
0
10
79.7215
20
-16.0162
30
0.0
11
79.5500
21
-16.5099
31
0.0
0
LINE
8
0
10
79.5500
20
-16.5099
30
0.0
11
79.4437
21
-17.0304
31
0.0
0
LINE
8
0
10
79.4437
20
-17.0304
30
0.0
11
79.4071
21
-17.5732
31
0.0
0
LINE
8
0
10
79.4071
20
-17.5732
30
0.0
11
79.4071
21
-18.5532
31
0.0
0
LINE
8
0
10
79.4071
20
-18.5532
30
0.0
11
59.7456
21
-20.3132
31
0.0
0
LINE
8
0
10
59.7456
20
-20.3132
30
0.0
11
59.3037
21
-20.3810
31
0.0
0
LINE
8
0
10
59.3037
20
-20.3810
30
0.0
11
58.8826
21
-20.5015
31
0.0
0
LINE
8
0
10
58.8826
20
-20.5015
30
0.0
11
58.4858
21
-20.6710
31
0.0
0
LINE
8
0
10
58.4858
20
-20.6710
30
0.0
11
58.1166
21
-20.8859
31
0.0
0
LINE
8
0
10
58.1166
20
-20.8859
30
0.0
11
57.7783
21
-21.1425
31
0.0
0
LINE
8
0
10
57.7783
20
-21.1425
30
0.0
11
57.4742
21
-21.4371
31
0.0
0
LINE
8
0
10
57.4742
20
-21.4371
30
0.0
11
57.2077
21
-21.7662
31
0.0
0
LINE
8
0
10
57.2077
20
-21.7662
30
0.0
11
56.9822
21
-22.1259
31
0.0
0
LINE
8
0
10
56.9822
20
-22.1259
30
0.0
11
56.8010
21
-22.5128
31
0.0
0
LINE
8
0
10
56.8010
20
-22.5128
30
0.0
11
56.6674
21
-22.9231
31
0.0
0
LINE
8
0
10
56.6674
20
-22.9231
30
0.0
11
56.5848
21
-23.3531
31
0.0
0
LINE
8
0
10
56.5848
20
-23.3531
30
0.0
11
56.5565
21
-23.7993
31
0.0
0
LINE
8
0
10
56.5565
20
-23.7993
30
0.0
11
56.5565
21
-24.6723
31
0.0
0
LINE
8
0
10
56.5565
20
-24.6723
30
0.0
11
29.0531
21
-29.6138
31
0.0
0
LINE
8
0
10
29.0531
20
-29.6138
30
0.0
11
28.7316
21
-29.6608
31
0.0
0
LINE
8
0
10
28.7316
20
-29.6608
30
0.0
11
28.4077
21
-29.6869
31
0.0
0
LINE
8
0
10
28.4077
20
-29.6869
30
0.0
11
28.0827
21
-29.6919
31
0.0
0
LINE
8
0
10
28.0827
20
-29.6919
30
0.0
11
27.7582
21
-29.6757
31
0.0
0
LINE
8
0
10
27.7582
20
-29.6757
30
0.0
11
27.4353
21
-29.6385
31
0.0
0
LINE
8
0
10
27.4353
20
-29.6385
30
0.0
11
27.1156
21
-29.5804
31
0.0
0
LINE
8
0
10
27.1156
20
-29.5804
30
0.0
11
26.8003
21
-29.5016
31
0.0
0
LINE
8
0
10
26.8003
20
-29.5016
30
0.0
11
26.4908
21
-29.4026
31
0.0
0
LINE
8
0
10
26.4908
20
-29.4026
30
0.0
11
26.1884
21
-29.2836
31
0.0
0
LINE
8
0
10
26.1884
20
-29.2836
30
0.0
11
25.8944
21
-29.1452
31
0.0
0
LINE
8
0
10
25.8944
20
-29.1452
30
0.0
11
25.6099
21
-28.9881
31
0.0
0
LINE
8
0
10
25.6099
20
-28.9881
30
0.0
11
25.3363
21
-28.8128
31
0.0
0
LINE
8
0
10
25.3363
20
-28.8128
30
0.0
11
25.0746
21
-28.6200
31
0.0
0
LINE
8
0
10
25.0746
20
-28.6200
30
0.0
11
24.8260
21
-28.4107
31
0.0
0
LINE
8
0
10
24.8260
20
-28.4107
30
0.0
11
24.5916
21
-28.1857
31
0.0
0
LINE
8
0
10
24.5916
20
-28.1857
30
0.0
11
24.3722
21
-27.9459
31
0.0
0
LINE
8
0
10
24.3722
20
-27.9459
30
0.0
11
24.2638
21
-27.8270
31
0.0
0
LINE
8
0
10
24.2638
20
-27.8270
30
0.0
11
24.1492
21
-27.7141
31
0.0
0
LINE
8
0
10
24.1492
20
-27.7141
30
0.0
11
24.0286
21
-27.6075
31
0.0
0
LINE
8
0
10
24.0286
20
-27.6075
30
0.0
11
23.9026
21
-27.5075
31
0.0
0
LINE
8
0
10
23.9026
20
-27.5075
30
0.0
11
23.7713
21
-27.4144
31
0.0
0
LINE
8
0
10
23.7713
20
-27.4144
30
0.0
11
23.6353
21
-27.3285
31
0.0
0
LINE
8
0
10
23.6353
20
-27.3285
30
0.0
11
23.4948
21
-27.2500
31
0.0
0
LINE
8
0
10
23.4948
20
-27.2500
30
0.0
11
23.3503
21
-27.1791
31
0.0
0
LINE
8
0
10
23.3503
20
-27.1791
30
0.0
11
23.2023
21
-27.1161
31
0.0
0
LINE
8
0
10
23.2023
20
-27.1161
30
0.0
11
23.0510
21
-27.0611
31
0.0
0
LINE
8
0
10
23.0510
20
-27.0611
30
0.0
11
22.8971
21
-27.0144
31
0.0
0
LINE
8
0
10
22.8971
20
-27.0144
30
0.0
11
22.7408
21
-26.9759
31
0.0
0
LINE
8
0
10
22.7408
20
-26.9759
30
0.0
11
22.5827
21
-26.9458
31
0.0
0
LINE
8
0
10
22.5827
20
-26.9458
30
0.0
11
22.4233
21
-26.9243
31
0.0
0
LINE
8
0
10
22.4233
20
-26.9243
30
0.0
11
22.2629
21
-26.9114
31
0.0
0
LINE
8
0
10
22.2629
20
-26.9114
30
0.0
11
22.1020
21
-26.9071
31
0.0
0
LINE
8
0
10
22.1020
20
-26.9071
30
0.0
11
21.8690
21
-26.9161
31
0.0
0
LINE
8
0
10
21.8690
20
-26.9161
30
0.0
11
21.6375
21
-26.9433
31
0.0
0
LINE
8
0
10
21.6375
20
-26.9433
30
0.0
11
21.4087
21
-26.9883
31
0.0
0
LINE
8
0
10
21.4087
20
-26.9883
30
0.0
11
21.1841
21
-27.0509
31
0.0
0
LINE
8
0
10
21.1841
20
-27.0509
30
0.0
11
20.9651
21
-27.1308
31
0.0
0
LINE
8
0
10
20.9651
20
-27.1308
30
0.0
11
20.7530
21
-27.2275
31
0.0
0
LINE
8
0
10
20.7530
20
-27.2275
30
0.0
11
20.5489
21
-27.3404
31
0.0
0
LINE
8
0
10
20.5489
20
-27.3404
30
0.0
11
20.3543
21
-27.4687
31
0.0
0
LINE
8
0
10
20.3543
20
-27.4687
30
0.0
11
20.1702
21
-27.6118
31
0.0
0
LINE
8
0
10
20.1702
20
-27.6118
30
0.0
11
19.9978
21
-27.7688
31
0.0
0
LINE
8
0
10
19.9978
20
-27.7688
30
0.0
11
19.8381
21
-27.9386
31
0.0
0
LINE
8
0
10
19.8381
20
-27.9386
30
0.0
11
19.6921
21
-28.1204
31
0.0
0
LINE
8
0
10
19.6921
20
-28.1204
30
0.0
11
19.5606
21
-28.3129
31
0.0
0
LINE
8
0
10
19.5606
20
-28.3129
30
0.0
11
19.4445
21
-28.5151
31
0.0
0
LINE
8
0
10
19.4445
20
-28.5151
30
0.0
11
19.3444
21
-28.7257
31
0.0
0
LINE
8
0
10
19.3444
20
-28.7257
30
0.0
11
19.2610
21
-28.9434
31
0.0
0
LINE
8
0
10
19.2610
20
-28.9434
30
0.0
11
19.1699
21
-29.1905
31
0.0
0
LINE
8
0
10
19.1699
20
-29.1905
30
0.0
11
19.0659
21
-29.4324
31
0.0
0
LINE
8
0
10
19.0659
20
-29.4324
30
0.0
11
18.9493
21
-29.6685
31
0.0
0
LINE
8
0
10
18.9493
20
-29.6685
30
0.0
11
18.8204
21
-29.8981
31
0.0
0
LINE
8
0
10
18.8204
20
-29.8981
30
0.0
11
18.6797
21
-30.1206
31
0.0
0
LINE
8
0
10
18.6797
20
-30.1206
30
0.0
11
18.5274
21
-30.3355
31
0.0
0
LINE
8
0
10
18.5274
20
-30.3355
30
0.0
11
18.3640
21
-30.5420
31
0.0
0
LINE
8
0
10
18.3640
20
-30.5420
30
0.0
11
18.1899
21
-30.7396
31
0.0
0
LINE
8
0
10
18.1899
20
-30.7396
30
0.0
11
18.0057
21
-30.9277
31
0.0
0
LINE
8
0
10
18.0057
20
-30.9277
30
0.0
11
17.8119
21
-31.1059
31
0.0
0
LINE
8
0
10
17.8119
20
-31.1059
30
0.0
11
17.6089
21
-31.2737
31
0.0
0
LINE
8
0
10
17.6089
20
-31.2737
30
0.0
11
17.3974
21
-31.4305
31
0.0
0
LINE
8
0
10
17.3974
20
-31.4305
30
0.0
11
17.1779
21
-31.5760
31
0.0
0
LINE
8
0
10
17.1779
20
-31.5760
30
0.0
11
16.9510
21
-31.7098
31
0.0
0
LINE
8
0
10
16.9510
20
-31.7098
30
0.0
11
16.7175
21
-31.8313
31
0.0
0
LINE
8
0
10
16.7175
20
-31.8313
30
0.0
11
16.4778
21
-31.9405
31
0.0
0
LINE
8
0
10
16.4778
20
-31.9405
30
0.0
11
16.1102
21
-32.1095
31
0.0
0
LINE
8
0
10
16.1102
20
-32.1095
30
0.0
11
15.7689
21
-32.3173
31
0.0
0
LINE
8
0
10
15.7689
20
-32.3173
30
0.0
11
15.4563
21
-32.5603
31
0.0
0
LINE
8
0
10
15.4563
20
-32.5603
30
0.0
11
15.1747
21
-32.8356
31
0.0
0
LINE
8
0
10
15.1747
20
-32.8356
30
0.0
11
14.9262
21
-33.1397
31
0.0
0
LINE
8
0
10
14.9262
20
-33.1397
30
0.0
11
14.7133
21
-33.4694
31
0.0
0
LINE
8
0
10
14.7133
20
-33.4694
30
0.0
11
14.5381
21
-33.8215
31
0.0
0
LINE
8
0
10
14.5381
20
-33.8215
30
0.0
11
14.4030
21
-34.1927
31
0.0
0
LINE
8
0
10
14.4030
20
-34.1927
30
0.0
11
14.3102
21
-34.5797
31
0.0
0
LINE
8
0
10
14.3102
20
-34.5797
30
0.0
11
14.2620
21
-34.9794
31
0.0
0
LINE
8
0
10
14.2620
20
-34.9794
30
0.0
11
14.2606
21
-35.3884
31
0.0
0
LINE
8
0
10
14.2606
20
-35.3884
30
0.0
11
14.3085
21
-35.8035
31
0.0
0
LINE
8
0
10
14.3085
20
-35.8035
30
0.0
11
15.2225
21
-41.0236
31
0.0
0
LINE
8
0
10
15.2225
20
-41.0236
30
0.0
11
16.2745
21
-47.0236
31
0.0
0
LINE
8
0
10
16.2745
20
-47.0236
30
0.0
11
18.1026
21
-57.4638
31
0.0
0
LINE
8
0
10
18.1026
20
-57.4638
30
0.0
11
19.1546
21
-63.4639
31
0.0
0
LINE
8
0
10
19.1546
20
-63.4639
30
0.0
11
23.9087
21
-90.6043
31
0.0
0
LINE
8
0
10
23.9087
20
-90.6043
30
0.0
11
23.9564
21
-90.8313
31
0.0
0
LINE
8
0
10
23.9564
20
-90.8313
30
0.0
11
24.0185
21
-91.0534
31
0.0
0
LINE
8
0
10
24.0185
20
-91.0534
30
0.0
11
24.0948
21
-91.2700
31
0.0
0
LINE
8
0
10
24.0948
20
-91.2700
30
0.0
11
24.1848
21
-91.4805
31
0.0
0
LINE
8
0
10
24.1848
20
-91.4805
30
0.0
11
24.2881
21
-91.6841
31
0.0
0
LINE
8
0
10
24.2881
20
-91.6841
30
0.0
11
24.4043
21
-91.8805
31
0.0
0
LINE
8
0
10
24.4043
20
-91.8805
30
0.0
11
24.5331
21
-92.0688
31
0.0
0
LINE
8
0
10
24.5331
20
-92.0688
30
0.0
11
24.6740
21
-92.2486
31
0.0
0
LINE
8
0
10
24.6740
20
-92.2486
30
0.0
11
24.8266
21
-92.4191
31
0.0
0
LINE
8
0
10
24.8266
20
-92.4191
30
0.0
11
24.9905
21
-92.5798
31
0.0
0
LINE
8
0
10
24.9905
20
-92.5798
30
0.0
11
25.1654
21
-92.7301
31
0.0
0
LINE
8
0
10
25.1654
20
-92.7301
30
0.0
11
25.3507
21
-92.8694
31
0.0
0
LINE
8
0
10
25.3507
20
-92.8694
30
0.0
11
25.4739
21
-92.9516
31
0.0
0
LINE
8
0
10
25.4739
20
-92.9516
30
0.0
11
25.5999
21
-93.0282
31
0.0
0
LINE
8
0
10
25.5999
20
-93.0282
30
0.0
11
25.7286
21
-93.0993
31
0.0
0
LINE
8
0
10
25.7286
20
-93.0993
30
0.0
11
25.8598
21
-93.1647
31
0.0
0
LINE
8
0
10
25.8598
20
-93.1647
30
0.0
11
25.9933
21
-93.2244
31
0.0
0
LINE
8
0
10
25.9933
20
-93.2244
30
0.0
11
26.1289
21
-93.2783
31
0.0
0
LINE
8
0
10
26.1289
20
-93.2783
30
0.0
11
26.2664
21
-93.3266
31
0.0
0
LINE
8
0
10
26.2664
20
-93.3266
30
0.0
11
26.4057
21
-93.3690
31
0.0
0
LINE
8
0
10
26.4057
20
-93.3690
30
0.0
11
26.5465
21
-93.4055
31
0.0
0
LINE
8
0
10
26.5465
20
-93.4055
30
0.0
11
26.6887
21
-93.4362
31
0.0
0
LINE
8
0
10
26.6887
20
-93.4362
30
0.0
11
26.8321
21
-93.4609
31
0.0
0
LINE
8
0
10
26.8321
20
-93.4609
30
0.0
11
26.9765
21
-93.4797
31
0.0
0
LINE
8
0
10
26.9765
20
-93.4797
30
0.0
11
28.1894
21
-93.6489
31
0.0
0
LINE
8
0
10
28.1894
20
-93.6489
30
0.0
11
29.3896
21
-93.8921
31
0.0
0
LINE
8
0
10
29.3896
20
-93.8921
30
0.0
11
30.5727
21
-94.2083
31
0.0
0
LINE
8
0
10
30.5727
20
-94.2083
30
0.0
11
31.7342
21
-94.5963
31
0.0
0
LINE
8
0
10
31.7342
20
-94.5963
30
0.0
11
32.8698
21
-95.0546
31
0.0
0
LINE
8
0
10
32.8698
20
-95.0546
30
0.0
11
33.9752
21
-95.5816
31
0.0
0
LINE
8
0
10
33.9752
20
-95.5816
30
0.0
11
35.0463
21
-96.1753
31
0.0
0
LINE
8
0
10
35.0463
20
-96.1753
30
0.0
11
36.0791
21
-96.8333
31
0.0
0
LINE
8
0
10
36.0791
20
-96.8333
30
0.0
11
37.0696
21
-97.5534
31
0.0
0
LINE
8
0
10
37.0696
20
-97.5534
30
0.0
11
38.0142
21
-98.3328
31
0.0
0
LINE
8
0
10
38.0142
20
-98.3328
30
0.0
11
38.9094
21
-99.1684
31
0.0
0
LINE
8
0
10
38.9094
20
-99.1684
30
0.0
11
39.7517
21
-100.0574
31
0.0
0
LINE
8
0
10
39.7517
20
-100.0574
30
0.0
11
40.5380
21
-100.9961
31
0.0
0
LINE
8
0
10
40.5380
20
-100.9961
30
0.0
11
41.2655
21
-101.9813
31
0.0
0
LINE
8
0
10
41.2655
20
-101.9813
30
0.0
11
41.9312
21
-103.0091
31
0.0
0
LINE
8
0
10
41.9312
20
-103.0091
30
0.0
11
42.5328
21
-104.0758
31
0.0
0
LINE
8
0
10
42.5328
20
-104.0758
30
0.0
11
42.8551
21
-104.6243
31
0.0
0
LINE
8
0
10
42.8551
20
-104.6243
30
0.0
11
43.2305
21
-105.1310
31
0.0
0
LINE
8
0
10
43.2305
20
-105.1310
30
0.0
11
43.6544
21
-105.5930
31
0.0
0
LINE
8
0
10
43.6544
20
-105.5930
30
0.0
11
44.1224
21
-106.0070
31
0.0
0
LINE
8
0
10
44.1224
20
-106.0070
30
0.0
11
44.6301
21
-106.3699
31
0.0
0
LINE
8
0
10
44.6301
20
-106.3699
30
0.0
11
45.1730
21
-106.6787
31
0.0
0
LINE
8
0
10
45.1730
20
-106.6787
30
0.0
11
45.7466
21
-106.9303
31
0.0
0
LINE
8
0
10
45.7466
20
-106.9303
30
0.0
11
46.3464
21
-107.1215
31
0.0
0
LINE
8
0
10
46.3464
20
-107.1215
30
0.0
11
46.9681
21
-107.2492
31
0.0
0
LINE
8
0
10
46.9681
20
-107.2492
30
0.0
11
47.6071
21
-107.3104
31
0.0
0
LINE
8
0
10
47.6071
20
-107.3104
30
0.0
11
48.2590
21
-107.3019
31
0.0
0
LINE
8
0
10
48.2590
20
-107.3019
30
0.0
11
48.9194
21
-107.2206
31
0.0
0
LINE
8
0
10
48.9194
20
-107.2206
30
0.0
11
83.3722
21
-101.0525
31
0.0
0
LINE
8
0
10
83.3722
20
-101.0525
30
0.0
11
83.4066
21
-101.0462
31
0.0
0
LINE
8
0
10
83.4066
20
-101.0462
30
0.0
11
83.4408
21
-101.0398
31
0.0
0
LINE
8
0
10
83.4408
20
-101.0398
30
0.0
11
83.4750
21
-101.0332
31
0.0
0
LINE
8
0
10
83.4750
20
-101.0332
30
0.0
11
83.5091
21
-101.0264
31
0.0
0
LINE
8
0
10
83.5091
20
-101.0264
30
0.0
11
83.5432
21
-101.0193
31
0.0
0
LINE
8
0
10
83.5432
20
-101.0193
30
0.0
11
83.5771
21
-101.0122
31
0.0
0
LINE
8
0
10
83.5771
20
-101.0122
30
0.0
11
83.6110
21
-101.0048
31
0.0
0
LINE
8
0
10
83.6110
20
-101.0048
30
0.0
11
83.6448
21
-100.9972
31
0.0
0
LINE
8
0
10
83.6448
20
-100.9972
30
0.0
11
83.6786
21
-100.9894
31
0.0
0
LINE
8
0
10
83.6786
20
-100.9894
30
0.0
11
83.7122
21
-100.9815
31
0.0
0
LINE
8
0
10
83.7122
20
-100.9815
30
0.0
11
83.7458
21
-100.9734
31
0.0
0
LINE
8
0
10
83.7458
20
-100.9734
30
0.0
11
83.7793
21
-100.9651
31
0.0
0
LINE
8
0
10
83.7793
20
-100.9651
30
0.0
11
84.9291
21
-100.6904
31
0.0
0
LINE
8
0
10
84.9291
20
-100.6904
30
0.0
11
86.0851
21
-100.4430
31
0.0
0
LINE
8
0
10
86.0851
20
-100.4430
30
0.0
11
87.2466
21
-100.2230
31
0.0
0
LINE
8
0
10
87.2466
20
-100.2230
30
0.0
11
88.4130
21
-100.0305
31
0.0
0
LINE
8
0
10
88.4130
20
-100.0305
30
0.0
11
89.5836
21
-99.8657
31
0.0
0
LINE
8
0
10
89.5836
20
-99.8657
30
0.0
11
90.7578
21
-99.7285
31
0.0
0
LINE
8
0
10
90.7578
20
-99.7285
30
0.0
11
91.9349
21
-99.6192
31
0.0
0
LINE
8
0
10
91.9349
20
-99.6192
30
0.0
11
93.1142
21
-99.5377
31
0.0
0
LINE
8
0
10
93.1142
20
-99.5377
30
0.0
11
94.2952
21
-99.4842
31
0.0
0
LINE
8
0
10
94.2952
20
-99.4842
30
0.0
11
95.4771
21
-99.4585
31
0.0
0
LINE
8
0
10
95.4771
20
-99.4585
30
0.0
11
96.6592
21
-99.4608
31
0.0
0
LINE
8
0
10
96.6592
20
-99.4608
30
0.0
11
97.8410
21
-99.4911
31
0.0
0
LINE
8
0
10
97.8410
20
-99.4911
30
0.0
11
99.0218
21
-99.5493
31
0.0
0
LINE
8
0
10
99.0218
20
-99.5493
30
0.0
11
100.2008
21
-99.6354
31
0.0
0
LINE
8
0
10
100.2008
20
-99.6354
30
0.0
11
101.3774
21
-99.7493
31
0.0
0
LINE
8
0
10
101.3774
20
-99.7493
30
0.0
11
102.5511
21
-99.8910
31
0.0
0
LINE
8
0
10
102.5511
20
-99.8910
30
0.0
11
128.7354
21
-103.2975
31
0.0
0
LINE
8
0
10
128.7354
20
-103.2975
30
0.0
11
137.3199
21
-108.2851
31
0.0
0
LINE
8
0
10
137.3199
20
-108.2851
30
0.0
11
137.5933
21
-108.4559
31
0.0
0
LINE
8
0
10
137.5933
20
-108.4559
30
0.0
11
137.8552
21
-108.6441
31
0.0
0
LINE
8
0
10
137.8552
20
-108.6441
30
0.0
11
138.1043
21
-108.8487
31
0.0
0
LINE
8
0
10
138.1043
20
-108.8487
30
0.0
11
138.3398
21
-109.0690
31
0.0
0
LINE
8
0
10
138.3398
20
-109.0690
30
0.0
11
138.5606
21
-109.3040
31
0.0
0
LINE
8
0
10
138.5606
20
-109.3040
30
0.0
11
138.7657
21
-109.5527
31
0.0
0
LINE
8
0
10
138.7657
20
-109.5527
30
0.0
11
138.9544
21
-109.8141
31
0.0
0
LINE
8
0
10
138.9544
20
-109.8141
30
0.0
11
139.1259
21
-110.0872
31
0.0
0
LINE
8
0
10
139.1259
20
-110.0872
30
0.0
11
139.2794
21
-110.3707
31
0.0
0
LINE
8
0
10
139.2794
20
-110.3707
30
0.0
11
139.4144
21
-110.6635
31
0.0
0
LINE
8
0
10
139.4144
20
-110.6635
30
0.0
11
139.5301
21
-110.9644
31
0.0
0
LINE
8
0
10
139.5301
20
-110.9644
30
0.0
11
139.6263
21
-111.2722
31
0.0
0
LINE
8
0
10
139.6263
20
-111.2722
30
0.0
11
139.7024
21
-111.5855
31
0.0
0
LINE
8
0
10
139.7024
20
-111.5855
30
0.0
11
139.7581
21
-111.9031
31
0.0
0
LINE
8
0
10
139.7581
20
-111.9031
30
0.0
11
139.7933
21
-112.2236
31
0.0
0
LINE
8
0
10
139.7933
20
-112.2236
30
0.0
11
139.8077
21
-112.5471
31
0.0
0
LINE
8
0
10
139.8077
20
-112.5471
30
0.0
11
139.8221
21
-112.8426
31
0.0
0
LINE
8
0
10
139.8221
20
-112.8426
30
0.0
11
139.8653
21
-113.1338
31
0.0
0
LINE
8
0
10
139.8653
20
-113.1338
30
0.0
11
139.9369
21
-113.4194
31
0.0
0
LINE
8
0
10
139.9369
20
-113.4194
30
0.0
11
140.0361
21
-113.6966
31
0.0
0
LINE
8
0
10
140.0361
20
-113.6966
30
0.0
11
140.1619
21
-113.9627
31
0.0
0
LINE
8
0
10
140.1619
20
-113.9627
30
0.0
11
140.3133
21
-114.2152
31
0.0
0
LINE
8
0
10
140.3133
20
-114.2152
30
0.0
11
140.4887
21
-114.4517
31
0.0
0
LINE
8
0
10
140.4887
20
-114.4517
30
0.0
11
140.6864
21
-114.6698
31
0.0
0
LINE
8
0
10
140.6864
20
-114.6698
30
0.0
11
140.9045
21
-114.8675
31
0.0
0
LINE
8
0
10
140.9045
20
-114.8675
30
0.0
11
141.1410
21
-115.0429
31
0.0
0
LINE
8
0
10
141.1410
20
-115.0429
30
0.0
11
141.3935
21
-115.1943
31
0.0
0
LINE
8
0
10
141.3935
20
-115.1943
30
0.0
11
141.6596
21
-115.3202
31
0.0
0
LINE
8
0
10
141.6596
20
-115.3202
30
0.0
11
141.9368
21
-115.4193
31
0.0
0
LINE
8
0
10
141.9368
20
-115.4193
30
0.0
11
142.2224
21
-115.4909
31
0.0
0
LINE
8
0
10
142.2224
20
-115.4909
30
0.0
11
142.5136
21
-115.5341
31
0.0
0
LINE
8
0
10
142.5136
20
-115.5341
30
0.0
11
142.8077
21
-115.5485
31
0.0
0
LINE
8
0
10
142.8077
20
-115.5485
30
0.0
11
142.8775
21
-115.5477
31
0.0
0
LINE
8
0
10
142.8775
20
-115.5477
30
0.0
11
142.9469
21
-115.5453
31
0.0
0
LINE
8
0
10
142.9469
20
-115.5453
30
0.0
11
143.0159
21
-115.5414
31
0.0
0
LINE
8
0
10
143.0159
20
-115.5414
30
0.0
11
143.0844
21
-115.5359
31
0.0
0
LINE
8
0
10
143.0844
20
-115.5359
30
0.0
11
143.1525
21
-115.5289
31
0.0
0
LINE
8
0
10
143.1525
20
-115.5289
30
0.0
11
143.2202
21
-115.5204
31
0.0
0
LINE
8
0
10
143.2202
20
-115.5204
30
0.0
11
143.2874
21
-115.5104
31
0.0
0
LINE
8
0
10
143.2874
20
-115.5104
30
0.0
11
143.3540
21
-115.4989
31
0.0
0
LINE
8
0
10
143.3540
20
-115.4989
30
0.0
11
143.4202
21
-115.4859
31
0.0
0
LINE
8
0
10
143.4202
20
-115.4859
30
0.0
11
143.4859
21
-115.4715
31
0.0
0
LINE
8
0
10
143.4859
20
-115.4715
30
0.0
11
143.5510
21
-115.4557
31
0.0
0
LINE
8
0
10
143.5510
20
-115.4557
30
0.0
11
143.6155
21
-115.4385
31
0.0
0
LINE
8
0
10
143.6155
20
-115.4385
30
0.0
11
143.9359
21
-115.3602
31
0.0
0
LINE
8
0
10
143.9359
20
-115.3602
30
0.0
11
144.2608
21
-115.3033
31
0.0
0
LINE
8
0
10
144.2608
20
-115.3033
30
0.0
11
144.5887
21
-115.2678
31
0.0
0
LINE
8
0
10
144.5887
20
-115.2678
30
0.0
11
144.9182
21
-115.2541
31
0.0
0
LINE
8
0
10
144.9182
20
-115.2541
30
0.0
11
145.2480
21
-115.2621
31
0.0
0
LINE
8
0
10
145.2480
20
-115.2621
30
0.0
11
145.5764
21
-115.2919
31
0.0
0
LINE
8
0
10
145.5764
20
-115.2919
30
0.0
11
145.9022
21
-115.3432
31
0.0
0
LINE
8
0
10
145.9022
20
-115.3432
30
0.0
11
146.2239
21
-115.4159
31
0.0
0
LINE
8
0
10
146.2239
20
-115.4159
30
0.0
11
146.5402
21
-115.5097
31
0.0
0
LINE
8
0
10
146.5402
20
-115.5097
30
0.0
11
146.8495
21
-115.6241
31
0.0
0
LINE
8
0
10
146.8495
20
-115.6241
30
0.0
11
147.1506
21
-115.7586
31
0.0
0
LINE
8
0
10
147.1506
20
-115.7586
30
0.0
11
147.4423
21
-115.9127
31
0.0
0
LINE
8
0
10
147.4423
20
-115.9127
30
0.0
11
147.7231
21
-116.0857
31
0.0
0
LINE
8
0
10
147.7231
20
-116.0857
30
0.0
11
147.9919
21
-116.2768
31
0.0
0
LINE
8
0
10
147.9919
20
-116.2768
30
0.0
11
148.2475
21
-116.4853
31
0.0
0
LINE
8
0
10
148.2475
20
-116.4853
30
0.0
11
148.4888
21
-116.7101
31
0.0
0
LINE
8
0
10
148.4888
20
-116.7101
30
0.0
11
155.8591
21
-123.9819
31
0.0
0
LINE
8
0
10
155.8591
20
-123.9819
30
0.0
11
155.8979
21
-124.0196
31
0.0
0
LINE
8
0
10
155.8979
20
-124.0196
30
0.0
11
155.9373
21
-124.0567
31
0.0
0
LINE
8
0
10
155.9373
20
-124.0567
30
0.0
11
155.9772
21
-124.0932
31
0.0
0
LINE
8
0
10
155.9772
20
-124.0932
30
0.0
11
156.0177
21
-124.1291
31
0.0
0
LINE
8
0
10
156.0177
20
-124.1291
30
0.0
11
156.0587
21
-124.1643
31
0.0
0
LINE
8
0
10
156.0587
20
-124.1643
30
0.0
11
156.1003
21
-124.1990
31
0.0
0
LINE
8
0
10
156.1003
20
-124.1990
30
0.0
11
156.1425
21
-124.2330
31
0.0
0
LINE
8
0
10
156.1425
20
-124.2330
30
0.0
11
156.1852
21
-124.2663
31
0.0
0
LINE
8
0
10
156.1852
20
-124.2663
30
0.0
11
156.2284
21
-124.2990
31
0.0
0
LINE
8
0
10
156.2284
20
-124.2990
30
0.0
11
156.2721
21
-124.3310
31
0.0
0
LINE
8
0
10
156.2721
20
-124.3310
30
0.0
11
156.3164
21
-124.3623
31
0.0
0
LINE
8
0
10
156.3164
20
-124.3623
30
0.0
11
156.3611
21
-124.3929
31
0.0
0
LINE
8
0
10
156.3611
20
-124.3929
30
0.0
11
156.9002
21
-124.7085
31
0.0
0
LINE
8
0
10
156.9002
20
-124.7085
30
0.0
11
157.4631
21
-124.9485
31
0.0
0
LINE
8
0
10
157.4631
20
-124.9485
30
0.0
11
158.0428
21
-125.1139
31
0.0
0
LINE
8
0
10
158.0428
20
-125.1139
30
0.0
11
158.6325
21
-125.2058
31
0.0
0
LINE
8
0
10
158.6325
20
-125.2058
30
0.0
11
159.2254
21
-125.2252
31
0.0
0
LINE
8
0
10
159.2254
20
-125.2252
30
0.0
11
159.8146
21
-125.1731
31
0.0
0
LINE
8
0
10
159.8146
20
-125.1731
30
0.0
11
160.3932
21
-125.0506
31
0.0
0
LINE
8
0
10
160.3932
20
-125.0506
30
0.0
11
160.9546
21
-124.8586
31
0.0
0
LINE
8
0
10
160.9546
20
-124.8586
30
0.0
11
161.4917
21
-124.5982
31
0.0
0
LINE
8
0
10
161.4917
20
-124.5982
30
0.0
11
161.9977
21
-124.2704
31
0.0
0
LINE
8
0
10
161.9977
20
-124.2704
30
0.0
11
162.4659
21
-123.8763
31
0.0
0
LINE
8
0
10
162.4659
20
-123.8763
30
0.0
11
162.8893
21
-123.4168
31
0.0
0
LINE
8
0
10
162.8893
20
-123.4168
30
0.0
11
182.7241
21
-103.5769
31
0.0
0
LINE
8
0
10
182.7241
20
-103.5769
30
0.0
11
182.9558
21
-103.3595
31
0.0
0
LINE
8
0
10
182.9558
20
-103.3595
30
0.0
11
183.2008
21
-103.1572
31
0.0
0
LINE
8
0
10
183.2008
20
-103.1572
30
0.0
11
183.4582
21
-102.9709
31
0.0
0
LINE
8
0
10
183.4582
20
-102.9709
30
0.0
11
183.7268
21
-102.8013
31
0.0
0
LINE
8
0
10
183.7268
20
-102.8013
30
0.0
11
184.0058
21
-102.6491
31
0.0
0
LINE
8
0
10
184.0058
20
-102.6491
30
0.0
11
184.2938
21
-102.5149
31
0.0
0
LINE
8
0
10
184.2938
20
-102.5149
30
0.0
11
184.5897
21
-102.3993
31
0.0
0
LINE
8
0
10
184.5897
20
-102.3993
30
0.0
11
184.8924
21
-102.3027
31
0.0
0
LINE
8
0
10
184.8924
20
-102.3027
30
0.0
11
185.2007
21
-102.2256
31
0.0
0
LINE
8
0
10
185.2007
20
-102.2256
30
0.0
11
185.5132
21
-102.1681
31
0.0
0
LINE
8
0
10
185.5132
20
-102.1681
30
0.0
11
185.8287
21
-102.1307
31
0.0
0
LINE
8
0
10
185.8287
20
-102.1307
30
0.0
11
186.1460
21
-102.1133
31
0.0
0
LINE
8
0
10
186.1460
20
-102.1133
30
0.0
11
186.4637
21
-102.1162
31
0.0
0
LINE
8
0
10
186.4637
20
-102.1162
30
0.0
11
186.7806
21
-102.1392
31
0.0
0
LINE
8
0
10
186.7806
20
-102.1392
30
0.0
11
187.0954
21
-102.1823
31
0.0
0
LINE
8
0
10
187.0954
20
-102.1823
30
0.0
11
187.4068
21
-102.2453
31
0.0
0
LINE
8
0
10
187.4068
20
-102.2453
30
0.0
11
187.4651
21
-102.2592
31
0.0
0
LINE
8
0
10
187.4651
20
-102.2592
30
0.0
11
187.5238
21
-102.2719
31
0.0
0
LINE
8
0
10
187.5238
20
-102.2719
30
0.0
11
187.5829
21
-102.2834
31
0.0
0
LINE
8
0
10
187.5829
20
-102.2834
30
0.0
11
187.6424
21
-102.2938
31
0.0
0
LINE
8
0
10
187.6424
20
-102.2938
30
0.0
11
187.7023
21
-102.3030
31
0.0
0
LINE
8
0
10
187.7023
20
-102.3030
30
0.0
11
187.7626
21
-102.3110
31
0.0
0
LINE
8
0
10
187.7626
20
-102.3110
30
0.0
11
187.8233
21
-102.3179
31
0.0
0
LINE
8
0
10
187.8233
20
-102.3179
30
0.0
11
187.8843
21
-102.3235
31
0.0
0
LINE
8
0
10
187.8843
20
-102.3235
30
0.0
11
187.9457
21
-102.3279
31
0.0
0
LINE
8
0
10
187.9457
20
-102.3279
30
0.0
11
188.0074
21
-102.3310
31
0.0
0
LINE
8
0
10
188.0074
20
-102.3310
30
0.0
11
188.0694
21
-102.3329
31
0.0
0
LINE
8
0
10
188.0694
20
-102.3329
30
0.0
11
188.1318
21
-102.3335
31
0.0
0
LINE
8
0
10
188.1318
20
-102.3335
30
0.0
11
188.4258
21
-102.3191
31
0.0
0
LINE
8
0
10
188.4258
20
-102.3191
30
0.0
11
188.7170
21
-102.2759
31
0.0
0
LINE
8
0
10
188.7170
20
-102.2759
30
0.0
11
189.0026
21
-102.2044
31
0.0
0
LINE
8
0
10
189.0026
20
-102.2044
30
0.0
11
189.2798
21
-102.1052
31
0.0
0
LINE
8
0
10
189.2798
20
-102.1052
30
0.0
11
189.5459
21
-101.9793
31
0.0
0
LINE
8
0
10
189.5459
20
-101.9793
30
0.0
11
189.7985
21
-101.8279
31
0.0
0
LINE
8
0
10
189.7985
20
-101.8279
30
0.0
11
190.0349
21
-101.6526
31
0.0
0
LINE
8
0
10
190.0349
20
-101.6526
30
0.0
11
190.2531
21
-101.4549
31
0.0
0
LINE
8
0
10
190.2531
20
-101.4549
30
0.0
11
190.4508
21
-101.2367
31
0.0
0
LINE
8
0
10
190.4508
20
-101.2367
30
0.0
11
190.6262
21
-101.0002
31
0.0
0
LINE
8
0
10
190.6262
20
-101.0002
30
0.0
11
190.7775
21
-100.7477
31
0.0
0
LINE
8
0
10
190.7775
20
-100.7477
30
0.0
11
190.9034
21
-100.4816
31
0.0
0
LINE
8
0
10
190.9034
20
-100.4816
30
0.0
11
191.0026
21
-100.2044
31
0.0
0
LINE
8
0
10
191.0026
20
-100.2044
30
0.0
11
191.0741
21
-99.9188
31
0.0
0
LINE
8
0
10
191.0741
20
-99.9188
30
0.0
11
191.1173
21
-99.6276
31
0.0
0
LINE
8
0
10
191.1173
20
-99.6276
30
0.0
11
191.1318
21
-99.3335
31
0.0
0
LINE
8
0
10
191.1318
20
-99.3335
30
0.0
11
191.1295
21
-99.2168
31
0.0
0
LINE
8
0
10
191.1295
20
-99.2168
30
0.0
11
191.1229
21
-99.1012
31
0.0
0
LINE
8
0
10
191.1229
20
-99.1012
30
0.0
11
191.1119
21
-98.9868
31
0.0
0
LINE
8
0
10
191.1119
20
-98.9868
30
0.0
11
191.0967
21
-98.8738
31
0.0
0
LINE
8
0
10
191.0967
20
-98.8738
30
0.0
11
191.0774
21
-98.7620
31
0.0
0
LINE
8
0
10
191.0774
20
-98.7620
30
0.0
11
191.0539
21
-98.6518
31
0.0
0
LINE
8
0
10
191.0539
20
-98.6518
30
0.0
11
191.0265
21
-98.5431
31
0.0
0
LINE
8
0
10
191.0265
20
-98.5431
30
0.0
11
190.9951
21
-98.4360
31
0.0
0
LINE
8
0
10
190.9951
20
-98.4360
30
0.0
11
190.9599
21
-98.3306
31
0.0
0
LINE
8
0
10
190.9599
20
-98.3306
30
0.0
11
190.9209
21
-98.2270
31
0.0
0
LINE
8
0
10
190.9209
20
-98.2270
30
0.0
11
190.8783
21
-98.1253
31
0.0
0
LINE
8
0
10
190.8783
20
-98.1253
30
0.0
11
190.8320
21
-98.0255
31
0.0
0
LINE
8
0
10
190.8320
20
-98.0255
30
0.0
11
190.7512
21
-97.8511
31
0.0
0
LINE
8
0
10
190.7512
20
-97.8511
30
0.0
11
190.6772
21
-97.6736
31
0.0
0
LINE
8
0
10
190.6772
20
-97.6736
30
0.0
11
190.6100
21
-97.4935
31
0.0
0
LINE
8
0
10
190.6100
20
-97.4935
30
0.0
11
190.5498
21
-97.3109
31
0.0
0
LINE
8
0
10
190.5498
20
-97.3109
30
0.0
11
190.4967
21
-97.1262
31
0.0
0
LINE
8
0
10
190.4967
20
-97.1262
30
0.0
11
190.4507
21
-96.9395
31
0.0
0
LINE
8
0
10
190.4507
20
-96.9395
30
0.0
11
190.4119
21
-96.7512
31
0.0
0
LINE
8
0
10
190.4119
20
-96.7512
30
0.0
11
190.3804
21
-96.5616
31
0.0
0
LINE
8
0
10
190.3804
20
-96.5616
30
0.0
11
190.3562
21
-96.3708
31
0.0
0
LINE
8
0
10
190.3562
20
-96.3708
30
0.0
11
190.3393
21
-96.1793
31
0.0
0
LINE
8
0
10
190.3393
20
-96.1793
30
0.0
11
190.3299
21
-95.9873
31
0.0
0
LINE
8
0
10
190.3299
20
-95.9873
30
0.0
11
190.3278
21
-95.7951
31
0.0
0
LINE
8
0
10
190.3278
20
-95.7951
30
0.0
11
190.3331
21
-95.6029
31
0.0
0
LINE
8
0
10
190.3331
20
-95.6029
30
0.0
11
190.3458
21
-95.4111
31
0.0
0
LINE
8
0
10
190.3458
20
-95.4111
30
0.0
11
190.3658
21
-95.2199
31
0.0
0
LINE
8
0
10
190.3658
20
-95.2199
30
0.0
11
190.3932
21
-95.0296
31
0.0
0
LINE
8
0
10
190.3932
20
-95.0296
30
0.0
11
190.4022
21
-94.9781
31
0.0
0
LINE
8
0
10
190.4022
20
-94.9781
30
0.0
11
190.4104
21
-94.9265
31
0.0
0
LINE
8
0
10
190.4104
20
-94.9265
30
0.0
11
190.4179
21
-94.8747
31
0.0
0
LINE
8
0
10
190.4179
20
-94.8747
30
0.0
11
190.4246
21
-94.8227
31
0.0
0
LINE
8
0
10
190.4246
20
-94.8227
30
0.0
11
190.4305
21
-94.7706
31
0.0
0
LINE
8
0
10
190.4305
20
-94.7706
30
0.0
11
190.4357
21
-94.7184
31
0.0
0
LINE
8
0
10
190.4357
20
-94.7184
30
0.0
11
190.4400
21
-94.6660
31
0.0
0
LINE
8
0
10
190.4400
20
-94.6660
30
0.0
11
190.4436
21
-94.6135
31
0.0
0
LINE
8
0
10
190.4436
20
-94.6135
30
0.0
11
190.4464
21
-94.5608
31
0.0
0
LINE
8
0
10
190.4464
20
-94.5608
30
0.0
11
190.4484
21
-94.5081
31
0.0
0
LINE
8
0
10
190.4484
20
-94.5081
30
0.0
11
190.4496
21
-94.4553
31
0.0
0
LINE
8
0
10
190.4496
20
-94.4553
30
0.0
11
190.4500
21
-94.4024
31
0.0
0
LINE
8
0
10
190.4500
20
-94.4024
30
0.0
11
190.4550
21
-87.0043
31
0.0
0
LINE
8
0
10
190.4550
20
-87.0043
30
0.0
11
190.4500
21
-81.0012
31
0.0
0
LINE
8
0
10
190.4500
20
-81.0012
30
0.0
11
190.4170
21
-38.0005
31
0.0
0
LINE
8
0
10
190.4170
20
-38.0005
30
0.0
11
190.4151
21
-35.1409
31
0.0
0
LINE
8
0
10
190.4151
20
-35.1409
30
0.0
11
190.4239
21
-34.8398
31
0.0
0
LINE
8
0
10
190.4239
20
-34.8398
30
0.0
11
190.4509
21
-34.5397
31
0.0
0
LINE
8
0
10
190.4509
20
-34.5397
30
0.0
11
190.4959
21
-34.2419
31
0.0
0
LINE
8
0
10
190.4959
20
-34.2419
30
0.0
11
190.5588
21
-33.9473
31
0.0
0
LINE
8
0
10
190.5588
20
-33.9473
30
0.0
11
190.6393
21
-33.6570
31
0.0
0
LINE
8
0
10
190.6393
20
-33.6570
30
0.0
11
190.7371
21
-33.3721
31
0.0
0
LINE
8
0
10
190.7371
20
-33.3721
30
0.0
11
190.8519
21
-33.0936
31
0.0
0
LINE
8
0
10
190.8519
20
-33.0936
30
0.0
11
190.9833
21
-32.8226
31
0.0
0
LINE
8
0
10
190.9833
20
-32.8226
30
0.0
11
191.1307
21
-32.5599
31
0.0
0
LINE
8
0
10
191.1307
20
-32.5599
30
0.0
11
191.2937
21
-32.3066
31
0.0
0
LINE
8
0
10
191.2937
20
-32.3066
30
0.0
11
191.4717
21
-32.0635
31
0.0
0
LINE
8
0
10
191.4717
20
-32.0635
30
0.0
11
191.6639
21
-31.8316
31
0.0
0
LINE
8
0
10
191.6639
20
-31.8316
30
0.0
11
191.8698
21
-31.6117
31
0.0
0
LINE
8
0
10
191.8698
20
-31.6117
30
0.0
11
192.0886
21
-31.4047
31
0.0
0
LINE
8
0
10
192.0886
20
-31.4047
30
0.0
11
192.3194
21
-31.2111
31
0.0
0
LINE
8
0
10
192.3194
20
-31.2111
30
0.0
11
192.5615
21
-31.0318
31
0.0
0
LINE
8
0
10
192.5615
20
-31.0318
30
0.0
11
192.7065
21
-30.9243
31
0.0
0
LINE
8
0
10
192.7065
20
-30.9243
30
0.0
11
192.8449
21
-30.8083
31
0.0
0
LINE
8
0
10
192.8449
20
-30.8083
30
0.0
11
192.9760
21
-30.6841
31
0.0
0
LINE
8
0
10
192.9760
20
-30.6841
30
0.0
11
193.0994
21
-30.5523
31
0.0
0
LINE
8
0
10
193.0994
20
-30.5523
30
0.0
11
193.2146
21
-30.4133
31
0.0
0
LINE
8
0
10
193.2146
20
-30.4133
30
0.0
11
193.3213
21
-30.2677
31
0.0
0
LINE
8
0
10
193.3213
20
-30.2677
30
0.0
11
193.4190
21
-30.1158
31
0.0
0
LINE
8
0
10
193.4190
20
-30.1158
30
0.0
11
193.5074
21
-29.9584
31
0.0
0
LINE
8
0
10
193.5074
20
-29.9584
30
0.0
11
193.5862
21
-29.7959
31
0.0
0
LINE
8
0
10
193.5862
20
-29.7959
30
0.0
11
193.6550
21
-29.6290
31
0.0
0
LINE
8
0
10
193.6550
20
-29.6290
30
0.0
11
193.7137
21
-29.4583
31
0.0
0
LINE
8
0
10
193.7137
20
-29.4583
30
0.0
11
193.7620
21
-29.2843
31
0.0
0
LINE
8
0
10
193.7620
20
-29.2843
30
0.0
11
193.7998
21
-29.1077
31
0.0
0
LINE
8
0
10
193.7998
20
-29.1077
30
0.0
11
193.8269
21
-28.9292
31
0.0
0
LINE
8
0
10
193.8269
20
-28.9292
30
0.0
11
193.8431
21
-28.7494
31
0.0
0
LINE
8
0
10
193.8431
20
-28.7494
30
0.0
11
193.8486
21
-28.5689
31
0.0
0
LINE
8
0
10
193.8486
20
-28.5689
30
0.0
11
193.8423
21
-28.3744
31
0.0
0
LINE
8
0
10
193.8423
20
-28.3744
30
0.0
11
193.8233
21
-28.1807
31
0.0
0
LINE
8
0
10
193.8233
20
-28.1807
30
0.0
11
193.7919
21
-27.9886
31
0.0
0
LINE
8
0
10
193.7919
20
-27.9886
30
0.0
11
193.7481
21
-27.7990
31
0.0
0
LINE
8
0
10
193.7481
20
-27.7990
30
0.0
11
193.6921
21
-27.6126
31
0.0
0
LINE
8
0
10
193.6921
20
-27.6126
30
0.0
11
193.6241
21
-27.4302
31
0.0
0
LINE
8
0
10
193.6241
20
-27.4302
30
0.0
11
193.5444
21
-27.2526
31
0.0
0
LINE
8
0
10
193.5444
20
-27.2526
30
0.0
11
193.4534
21
-27.0806
31
0.0
0
LINE
8
0
10
193.4534
20
-27.0806
30
0.0
11
193.3514
21
-26.9148
31
0.0
0
LINE
8
0
10
193.3514
20
-26.9148
30
0.0
11
193.2389
21
-26.7560
31
0.0
0
LINE
8
0
10
193.2389
20
-26.7560
30
0.0
11
193.1163
21
-26.6049
31
0.0
0
LINE
8
0
10
193.1163
20
-26.6049
30
0.0
11
192.9842
21
-26.4620
31
0.0
0
LINE
8
0
10
192.9842
20
-26.4620
30
0.0
11
192.8430
21
-26.3279
31
0.0
0
LINE
8
0
10
192.8430
20
-26.3279
30
0.0
11
192.6935
21
-26.2033
31
0.0
0
LINE
8
0
10
192.6935
20
-26.2033
30
0.0
11
192.5363
21
-26.0886
31
0.0
0
LINE
8
0
10
192.5363
20
-26.0886
30
0.0
11
192.3719
21
-25.9844
31
0.0
0
LINE
8
0
10
192.3719
20
-25.9844
30
0.0
11
192.1854
21
-25.8689
31
0.0
0
LINE
8
0
10
192.1854
20
-25.8689
30
0.0
11
192.0042
21
-25.7454
31
0.0
0
LINE
8
0
10
192.0042
20
-25.7454
30
0.0
11
191.8286
21
-25.6140
31
0.0
0
LINE
8
0
10
191.8286
20
-25.6140
30
0.0
11
191.6589
21
-25.4751
31
0.0
0
LINE
8
0
10
191.6589
20
-25.4751
30
0.0
11
191.4954
21
-25.3288
31
0.0
0
LINE
8
0
10
191.4954
20
-25.3288
30
0.0
11
191.3386
21
-25.1755
31
0.0
0
LINE
8
0
10
191.3386
20
-25.1755
30
0.0
11
191.1886
21
-25.0155
31
0.0
0
LINE
8
0
10
191.1886
20
-25.0155
30
0.0
11
191.0458
21
-24.8490
31
0.0
0
LINE
8
0
10
191.0458
20
-24.8490
30
0.0
11
190.9104
21
-24.6765
31
0.0
0
LINE
8
0
10
190.9104
20
-24.6765
30
0.0
11
190.7827
21
-24.4982
31
0.0
0
LINE
8
0
10
190.7827
20
-24.4982
30
0.0
11
190.6629
21
-24.3144
31
0.0
0
LINE
8
0
10
190.6629
20
-24.3144
30
0.0
11
190.5513
21
-24.1256
31
0.0
0
LINE
8
0
10
190.5513
20
-24.1256
30
0.0
11
190.4482
21
-23.9321
31
0.0
0
LINE
8
0
10
190.4482
20
-23.9321
30
0.0
11
190.3536
21
-23.7342
31
0.0
0
LINE
8
0
10
190.3536
20
-23.7342
30
0.0
11
190.2677
21
-23.5324
31
0.0
0
LINE
8
0
10
190.2677
20
-23.5324
30
0.0
11
190.1908
21
-23.3269
31
0.0
0
LINE
8
0
10
190.1908
20
-23.3269
30
0.0
11
190.0365
21
-22.9439
31
0.0
0
LINE
8
0
10
190.0365
20
-22.9439
30
0.0
11
189.8449
21
-22.5816
31
0.0
0
LINE
8
0
10
189.8449
20
-22.5816
30
0.0
11
189.6184
21
-22.2425
31
0.0
0
LINE
8
0
10
189.6184
20
-22.2425
30
0.0
11
189.3596
21
-21.9289
31
0.0
0
LINE
8
0
10
189.3596
20
-21.9289
30
0.0
11
189.0706
21
-21.6433
31
0.0
0
LINE
8
0
10
189.0706
20
-21.6433
30
0.0
11
188.7540
21
-21.3881
31
0.0
0
LINE
8
0
10
188.7540
20
-21.3881
30
0.0
11
188.4121
21
-21.1655
31
0.0
0
LINE
8
0
10
188.4121
20
-21.1655
30
0.0
11
188.0473
21
-20.9781
31
0.0
0
LINE
8
0
10
188.0473
20
-20.9781
30
0.0
11
187.6620
21
-20.8282
31
0.0
0
LINE
8
0
10
187.6620
20
-20.8282
30
0.0
11
187.2586
21
-20.7181
31
0.0
0
LINE
8
0
10
187.2586
20
-20.7181
30
0.0
11
186.8394
21
-20.6504
31
0.0
0
LINE
8
0
10
186.8394
20
-20.6504
30
0.0
11
186.4069
21
-20.6272
31
0.0
0
LINE
8
0
10
186.4069
20
-20.6272
30
0.0
11
176.1866
21
-20.6272
31
0.0
0
LINE
8
0
10
176.1866
20
-20.6272
30
0.0
11
161.2673
21
-18.6867
31
0.0
0
LINE
8
0
10
161.2673
20
-18.6867
30
0.0
11
160.9787
21
-18.6405
31
0.0
0
LINE
8
0
10
160.9787
20
-18.6405
30
0.0
11
160.6933
21
-18.5776
31
0.0
0
LINE
8
0
10
160.6933
20
-18.5776
30
0.0
11
160.4121
21
-18.4981
31
0.0
0
LINE
8
0
10
160.4121
20
-18.4981
30
0.0
11
160.1360
21
-18.4023
31
0.0
0
LINE
8
0
10
160.1360
20
-18.4023
30
0.0
11
159.8659
21
-18.2906
31
0.0
0
LINE
8
0
10
159.8659
20
-18.2906
30
0.0
11
159.6029
21
-18.1632
31
0.0
0
LINE
8
0
10
159.6029
20
-18.1632
30
0.0
11
159.3477
21
-18.0207
31
0.0
0
LINE
8
0
10
159.3477
20
-18.0207
30
0.0
11
159.1013
21
-17.8635
31
0.0
0
LINE
8
0
10
159.1013
20
-17.8635
30
0.0
11
158.8645
21
-17.6922
31
0.0
0
LINE
8
0
10
158.8645
20
-17.6922
30
0.0
11
158.6381
21
-17.5074
31
0.0
0
LINE
8
0
10
158.6381
20
-17.5074
30
0.0
11
158.4230
21
-17.3096
31
0.0
0
LINE
8
0
10
158.4230
20
-17.3096
30
0.0
11
158.2197
21
-17.0997
31
0.0
0
LINE
8
0
10
158.2197
20
-17.0997
30
0.0
11
158.0290
21
-16.8782
31
0.0
0
LINE
8
0
10
158.0290
20
-16.8782
30
0.0
11
157.8516
21
-16.6459
31
0.0
0
LINE
8
0
10
157.8516
20
-16.6459
30
0.0
11
157.6881
21
-16.4037
31
0.0
0
LINE
8
0
10
157.6881
20
-16.4037
30
0.0
11
157.5391
21
-16.1523
31
0.0
0
LINE
8
0
10
157.5391
20
-16.1523
30
0.0
11
157.4364
21
-15.9816
31
0.0
0
LINE
8
0
10
157.4364
20
-15.9816
30
0.0
11
157.3226
21
-15.8181
31
0.0
0
LINE
8
0
10
157.3226
20
-15.8181
30
0.0
11
157.1983
21
-15.6625
31
0.0
0
LINE
8
0
10
157.1983
20
-15.6625
30
0.0
11
157.0639
21
-15.5155
31
0.0
0
LINE
8
0
10
157.0639
20
-15.5155
30
0.0
11
156.9200
21
-15.3777
31
0.0
0
LINE
8
0
10
156.9200
20
-15.3777
30
0.0
11
156.7673
21
-15.2498
31
0.0
0
LINE
8
0
10
156.7673
20
-15.2498
30
0.0
11
156.6065
21
-15.1323
31
0.0
0
LINE
8
0
10
156.6065
20
-15.1323
30
0.0
11
156.4382
21
-15.0257
31
0.0
0
LINE
8
0
10
156.4382
20
-15.0257
30
0.0
11
156.2632
21
-14.9306
31
0.0
0
LINE
8
0
10
156.2632
20
-14.9306
30
0.0
11
156.0822
21
-14.8472
31
0.0
0
LINE
8
0
10
156.0822
20
-14.8472
30
0.0
11
155.8962
21
-14.7761
31
0.0
0
LINE
8
0
10
155.8962
20
-14.7761
30
0.0
11
155.7058
21
-14.7174
31
0.0
0
LINE
8
0
10
155.7058
20
-14.7174
30
0.0
11
155.5120
21
-14.6715
31
0.0
0
LINE
8
0
10
155.5120
20
-14.6715
30
0.0
11
155.3155
21
-14.6386
31
0.0
0
LINE
8
0
10
155.3155
20
-14.6386
30
0.0
11
155.1173
21
-14.6188
31
0.0
0
LINE
8
0
10
155.1173
20
-14.6188
30
0.0
11
154.9182
21
-14.6122
31
0.0
0
LINE
8
0
10
154.9182
20
-14.6122
30
0.0
11
154.7304
21
-14.6181
31
0.0
0
LINE
8
0
10
154.7304
20
-14.6181
30
0.0
11
154.5433
21
-14.6357
31
0.0
0
LINE
8
0
10
154.5433
20
-14.6357
30
0.0
11
154.3577
21
-14.6650
31
0.0
0
LINE
8
0
10
154.3577
20
-14.6650
30
0.0
11
154.1742
21
-14.7059
31
0.0
0
LINE
8
0
10
154.1742
20
-14.7059
30
0.0
11
153.9937
21
-14.7582
31
0.0
0
LINE
8
0
10
153.9937
20
-14.7582
30
0.0
11
153.8169
21
-14.8217
31
0.0
0
LINE
8
0
10
153.8169
20
-14.8217
30
0.0
11
153.6443
21
-14.8961
31
0.0
0
LINE
8
0
10
153.6443
20
-14.8961
30
0.0
11
153.4767
21
-14.9812
31
0.0
0
LINE
8
0
10
153.4767
20
-14.9812
30
0.0
11
153.3148
21
-15.0766
31
0.0
0
LINE
8
0
10
153.3148
20
-15.0766
30
0.0
11
153.1592
21
-15.1820
31
0.0
0
LINE
8
0
10
153.1592
20
-15.1820
30
0.0
11
153.0105
21
-15.2969
31
0.0
0
LINE
8
0
10
153.0105
20
-15.2969
30
0.0
11
152.8693
21
-15.4209
31
0.0
0
LINE
8
0
10
152.8693
20
-15.4209
30
0.0
11
152.7361
21
-15.5535
31
0.0
0
LINE
8
0
10
152.7361
20
-15.5535
30
0.0
11
152.6115
21
-15.6942
31
0.0
0
LINE
8
0
10
152.6115
20
-15.6942
30
0.0
11
152.4959
21
-15.8424
31
0.0
0
LINE
8
0
10
152.4959
20
-15.8424
30
0.0
11
152.3898
21
-15.9975
31
0.0
0
LINE
8
0
10
152.3898
20
-15.9975
30
0.0
11
152.2124
21
-16.2571
31
0.0
0
LINE
8
0
10
152.2124
20
-16.2571
30
0.0
11
152.0189
21
-16.5049
31
0.0
0
LINE
8
0
10
152.0189
20
-16.5049
30
0.0
11
151.8103
21
-16.7402
31
0.0
0
LINE
8
0
10
151.8103
20
-16.7402
30
0.0
11
151.5873
21
-16.9618
31
0.0
0
LINE
8
0
10
151.5873
20
-16.9618
30
0.0
11
151.3508
21
-17.1690
31
0.0
0
LINE
8
0
10
151.3508
20
-17.1690
30
0.0
11
151.1017
21
-17.3609
31
0.0
0
LINE
8
0
10
151.1017
20
-17.3609
30
0.0
11
150.8411
21
-17.5368
31
0.0
0
LINE
8
0
10
150.8411
20
-17.5368
30
0.0
11
150.5699
21
-17.6960
31
0.0
0
LINE
8
0
10
150.5699
20
-17.6960
30
0.0
11
150.2893
21
-17.8378
31
0.0
0
LINE
8
0
10
150.2893
20
-17.8378
30
0.0
11
150.0003
21
-17.9616
31
0.0
0
LINE
8
0
10
150.0003
20
-17.9616
30
0.0
11
149.7041
21
-18.0671
31
0.0
0
LINE
8
0
10
149.7041
20
-18.0671
30
0.0
11
149.4018
21
-18.1537
31
0.0
0
LINE
8
0
10
149.4018
20
-18.1537
30
0.0
11
149.0947
21
-18.2212
31
0.0
0
LINE
8
0
10
149.0947
20
-18.2212
30
0.0
11
148.7840
21
-18.2693
31
0.0
0
LINE
8
0
10
148.7840
20
-18.2693
30
0.0
11
148.4709
21
-18.2977
31
0.0
0
LINE
8
0
10
148.4709
20
-18.2977
30
0.0
11
148.1566
21
-18.3063
31
0.0
0
LINE
8
0
10
148.1566
20
-18.3063
30
0.0
11
123.1153
21
-18.3212
31
0.0
0
LINE
8
0
10
123.1153
20
-18.3212
30
0.0
11
122.9451
21
-17.9548
31
0.0
0
LINE
8
0
10
122.9451
20
-17.9548
30
0.0
11
122.7416
21
-17.6118
31
0.0
0
LINE
8
0
10
122.7416
20
-17.6118
30
0.0
11
122.5073
21
-17.2938
31
0.0
0
LINE
8
0
10
122.5073
20
-17.2938
30
0.0
11
122.2446
21
-17.0024
31
0.0
0
LINE
8
0
10
122.2446
20
-17.0024
30
0.0
11
121.9558
21
-16.7393
31
0.0
0
LINE
8
0
10
121.9558
20
-16.7393
30
0.0
11
121.6435
21
-16.5059
31
0.0
0
LINE
8
0
10
121.6435
20
-16.5059
30
0.0
11
121.3099
21
-16.3040
31
0.0
0
LINE
8
0
10
121.3099
20
-16.3040
30
0.0
11
120.9575
21
-16.1352
31
0.0
0
LINE
8
0
10
120.9575
20
-16.1352
30
0.0
11
120.5887
21
-16.0011
31
0.0
0
LINE
8
0
10
120.5887
20
-16.0011
30
0.0
11
120.2060
21
-15.9033
31
0.0
0
LINE
8
0
10
120.2060
20
-15.9033
30
0.0
11
119.8116
21
-15.8435
31
0.0
0
LINE
8
0
10
119.8116
20
-15.8435
30
0.0
11
119.4082
21
-15.8232
31
0.0
0
LINE
8
0
10
119.4082
20
-15.8232
30
0.0
11
104.0048
21
-15.8232
31
0.0
0
LINE
8
0
10
104.0048
20
-15.8232
30
0.0
11
103.8225
21
-15.4898
31
0.0
0
LINE
8
0
10
103.8225
20
-15.4898
30
0.0
11
103.6120
21
-15.1787
31
0.0
0
LINE
8
0
10
103.6120
20
-15.1787
30
0.0
11
103.3754
21
-14.8911
31
0.0
0
LINE
8
0
10
103.3754
20
-14.8911
30
0.0
11
103.1146
21
-14.6282
31
0.0
0
LINE
8
0
10
103.1146
20
-14.6282
30
0.0
11
102.8319
21
-14.3915
31
0.0
0
LINE
8
0
10
102.8319
20
-14.3915
30
0.0
11
102.5291
21
-14.1821
31
0.0
0
LINE
8
0
10
102.5291
20
-14.1821
30
0.0
11
102.2084
21
-14.0014
31
0.0
0
LINE
8
0
10
102.2084
20
-14.0014
30
0.0
11
101.8718
21
-13.8507
31
0.0
0
LINE
8
0
10
101.8718
20
-13.8507
30
0.0
11
101.5214
21
-13.7312
31
0.0
0
LINE
8
0
10
101.5214
20
-13.7312
30
0.0
11
101.1592
21
-13.6442
31
0.0
0
LINE
8
0
10
101.1592
20
-13.6442
30
0.0
11
100.7873
21
-13.5911
31
0.0
0
CIRCLE
8
0
10
40.4878
20
-92.2113
30
0.0
40
1.6000
0
CIRCLE
8
0
10
43.6500
20
-68.2300
30
0.0
40
1.6000
0
CIRCLE
8
0
10
87.3226
20
-94.8247
30
0.0
40
1.6000
0
CIRCLE
8
0
10
142.8077
20
-112.5485
30
0.0
40
1.6000
0
CIRCLE
8
0
10
188.1318
20
-99.3335
30
0.0
40
1.6000
0
CIRCLE
8
0
10
157.8500
20
-94.0300
30
0.0
40
1.6000
0
CIRCLE
8
0
10
40.2500
20
-49.6300
30
0.0
40
1.6000
0
CIRCLE
8
0
10
22.1020
20
-29.9071
30
0.0
40
1.6000
0
CIRCLE
8
0
10
92.0769
20
-12.4242
30
0.0
40
1.6000
0
CIRCLE
8
0
10
139.4500
20
-40.3300
30
0.0
40
1.6000
0
LINE
8
0
10
158.7600
20
-44.2800
30
0.0
11
158.7600
21
-38.2800
31
0.0
0
LINE
8
0
10
147.7600
20
-44.2800
30
0.0
11
158.7600
21
-44.2800
31
0.0
0
LINE
8
0
10
147.7600
20
-44.2800
30
0.0
11
147.7600
21
-38.2800
31
0.0
0
LINE
8
0
10
147.7600
20
-38.2800
30
0.0
11
158.7600
21
-38.2800
31
0.0
0
CIRCLE
8
0
10
190.8486
20
-28.5689
30
0.0
40
1.6000
0
CIRCLE
8
0
10
154.9182
20
-17.6122
30
0.0
40
1.6000
0
ENDSEC
0
EOF
