0
SECTION
2
ENTITIES
0
LINE
8
0
10
100.4077
20
-13.5731
30
0.0
11
101.0855
21
-13.6309
31
0.0
0
LINE
8
0
10
101.0855
20
-13.6309
30
0.0
11
101.8042
21
-13.8248
31
0.0
0
LINE
8
0
10
101.8042
20
-13.8248
30
0.0
11
102.5739
21
-14.2105
31
0.0
0
LINE
8
0
10
102.5739
20
-14.2105
30
0.0
11
103.1726
21
-14.6825
31
0.0
0
LINE
8
0
10
103.1726
20
-14.6825
30
0.0
11
103.6484
21
-15.2281
31
0.0
0
LINE
8
0
10
103.6484
20
-15.2281
30
0.0
11
104.0048
21
-15.8232
31
0.0
0
LINE
8
0
10
100.4077
20
-13.5731
30
0.0
11
99.0904
21
-13.5735
31
0.0
0
ARC
8
0
10
99.0888
20
-8.5739
30
0.0
40
4.9997
50
209.0329
51
270.0184
0
ARC
8
0
10
92.0769
20
-12.4242
30
0.0
40
3.0000
50
28.3374
51
90.0000
0
ARC
8
0
10
92.0769
20
-12.4242
30
0.0
40
3.0000
50
90.0000
51
151.2282
0
ARC
8
0
10
85.0646
20
-8.5737
30
0.0
40
5.0000
50
270.1313
51
331.2282
0
LINE
8
0
10
85.0760
20
-13.5737
30
0.0
11
83.4072
21
-13.5731
31
0.0
0
LINE
8
0
10
79.4071
20
-17.5732
30
0.0
11
79.4189
21
-17.2646
31
0.0
0
LINE
8
0
10
79.4189
20
-17.2646
30
0.0
11
79.5495
21
-16.5119
31
0.0
0
LINE
8
0
10
79.5495
20
-16.5119
30
0.0
11
79.5679
21
-16.4471
31
0.0
0
LINE
8
0
10
79.5679
20
-16.4471
30
0.0
11
79.9337
21
-15.5882
31
0.0
0
LINE
8
0
10
79.9337
20
-15.5882
30
0.0
11
80.3730
21
-14.9667
31
0.0
0
LINE
8
0
10
80.3730
20
-14.9667
30
0.0
11
80.5788
21
-14.7448
31
0.0
0
LINE
8
0
10
80.5788
20
-14.7448
30
0.0
11
81.1679
21
-14.2582
31
0.0
0
LINE
8
0
10
81.1679
20
-14.2582
30
0.0
11
81.4223
21
-14.0997
31
0.0
0
LINE
8
0
10
81.4223
20
-14.0997
30
0.0
11
82.2811
21
-13.7338
31
0.0
0
LINE
8
0
10
82.2811
20
-13.7338
30
0.0
11
83.0264
21
-13.5910
31
0.0
0
LINE
8
0
10
83.0264
20
-13.5910
30
0.0
11
83.4072
21
-13.5731
31
0.0
0
LINE
8
0
10
79.4071
20
-17.5732
30
0.0
11
79.4071
21
-18.5532
31
0.0
0
LINE
8
0
10
79.4071
20
-18.5532
30
0.0
11
59.7456
21
-20.3132
31
0.0
0
LINE
8
0
10
56.5565
20
-23.7993
30
0.0
11
56.5649
21
-23.5566
31
0.0
0
LINE
8
0
10
56.5649
20
-23.5566
30
0.0
11
56.6629
21
-22.9408
31
0.0
0
LINE
8
0
10
56.6629
20
-22.9408
30
0.0
11
56.6705
21
-22.9113
31
0.0
0
LINE
8
0
10
56.6705
20
-22.9113
30
0.0
11
56.9549
21
-22.1770
31
0.0
0
LINE
8
0
10
56.9549
20
-22.1770
30
0.0
11
57.4742
21
-21.4371
31
0.0
0
LINE
8
0
10
57.4742
20
-21.4371
30
0.0
11
58.1651
21
-20.8541
31
0.0
0
LINE
8
0
10
58.1651
20
-20.8541
30
0.0
11
58.8712
21
-20.5056
31
0.0
0
LINE
8
0
10
58.8712
20
-20.5056
30
0.0
11
59.7456
21
-20.3132
31
0.0
0
LINE
8
0
10
56.5565
20
-23.7993
30
0.0
11
56.5565
21
-24.6723
31
0.0
0
LINE
8
0
10
56.5565
20
-24.6723
30
0.0
11
29.0531
21
-29.6138
31
0.0
0
ARC
8
0
10
28.1689
20
-24.6929
30
0.0
40
4.9997
50
220.5902
51
280.1865
0
ARC
8
0
10
22.1020
20
-29.9071
30
0.0
40
3.0000
50
40.8224
51
90.0000
0
ARC
8
0
10
22.1020
20
-29.9071
30
0.0
40
3.0000
50
90.0000
51
161.2628
0
ARC
8
0
10
14.5263
20
-27.3375
30
0.0
40
4.9996
50
292.9750
51
341.2638
0
LINE
8
0
10
14.3085
20
-35.8035
30
0.0
11
14.2727
21
-35.5439
31
0.0
0
LINE
8
0
10
14.2727
20
-35.5439
30
0.0
11
14.2727
21
-34.8471
31
0.0
0
LINE
8
0
10
14.2727
20
-34.8471
30
0.0
11
14.4558
21
-34.0317
31
0.0
0
LINE
8
0
10
14.4558
20
-34.0317
30
0.0
11
14.7606
21
-33.3888
31
0.0
0
LINE
8
0
10
14.7606
20
-33.3888
30
0.0
11
14.8978
21
-33.1792
31
0.0
0
LINE
8
0
10
14.8978
20
-33.1792
30
0.0
11
15.3674
21
-32.6407
31
0.0
0
LINE
8
0
10
15.3674
20
-32.6407
30
0.0
11
15.5323
21
-32.4959
31
0.0
0
LINE
8
0
10
15.5323
20
-32.4959
30
0.0
11
15.9829
21
-32.1808
31
0.0
0
LINE
8
0
10
15.9829
20
-32.1808
30
0.0
11
16.4778
21
-31.9405
31
0.0
0
LINE
8
0
10
14.3085
20
-35.8035
30
0.0
11
15.2225
21
-41.0236
31
0.0
0
LINE
8
0
10
15.2225
20
-41.0236
30
0.0
11
16.2745
21
-47.0236
31
0.0
0
LINE
8
0
10
16.2745
20
-47.0236
30
0.0
11
18.1026
21
-57.4638
31
0.0
0
LINE
8
0
10
18.1026
20
-57.4638
30
0.0
11
19.1546
21
-63.4639
31
0.0
0
LINE
8
0
10
19.1546
20
-63.4639
30
0.0
11
23.9087
21
-90.6043
31
0.0
0
LINE
8
0
10
25.3507
20
-92.8694
30
0.0
11
25.1424
21
-92.7115
31
0.0
0
LINE
8
0
10
25.1424
20
-92.7115
30
0.0
11
24.5310
21
-92.0659
31
0.0
0
LINE
8
0
10
24.5310
20
-92.0659
30
0.0
11
24.1695
21
-91.4472
31
0.0
0
LINE
8
0
10
24.1695
20
-91.4472
30
0.0
11
24.0125
21
-91.0342
31
0.0
0
LINE
8
0
10
24.0125
20
-91.0342
30
0.0
11
23.9087
21
-90.6043
31
0.0
0
LINE
8
0
10
26.9765
20
-93.4797
30
0.0
11
26.6317
21
-93.4246
31
0.0
0
LINE
8
0
10
26.6317
20
-93.4246
30
0.0
11
25.9531
21
-93.2071
31
0.0
0
LINE
8
0
10
25.9531
20
-93.2071
30
0.0
11
25.3507
21
-92.8694
31
0.0
0
ARC
8
0
10
24.8200
20
-113.3630
30
0.0
40
19.9999
50
27.6690
51
83.8099
0
LINE
8
0
10
48.9194
20
-107.2206
30
0.0
11
48.7286
21
-107.2516
31
0.0
0
LINE
8
0
10
48.7286
20
-107.2516
30
0.0
11
48.5145
21
-107.2791
31
0.0
0
LINE
8
0
10
48.5145
20
-107.2791
30
0.0
11
47.5778
21
-107.3091
31
0.0
0
LINE
8
0
10
47.5778
20
-107.3091
30
0.0
11
46.3783
21
-107.1297
31
0.0
0
LINE
8
0
10
46.3783
20
-107.1297
30
0.0
11
45.4972
21
-106.8296
31
0.0
0
LINE
8
0
10
45.4972
20
-106.8296
30
0.0
11
44.4883
21
-106.2764
31
0.0
0
LINE
8
0
10
44.4883
20
-106.2764
30
0.0
11
43.7572
21
-105.6915
31
0.0
0
LINE
8
0
10
43.7572
20
-105.6915
30
0.0
11
43.1263
21
-105.0013
31
0.0
0
LINE
8
0
10
43.1263
20
-105.0013
30
0.0
11
42.8082
21
-104.5523
31
0.0
0
LINE
8
0
10
42.8082
20
-104.5523
30
0.0
11
42.5328
21
-104.0758
31
0.0
0
LINE
8
0
10
48.9194
20
-107.2206
30
0.0
11
83.3722
21
-101.0525
31
0.0
0
LINE
8
0
10
83.7793
20
-100.9651
30
0.0
11
83.3722
21
-101.0525
31
0.0
0
ARC
8
0
10
95.9704
20
-149.4561
30
0.0
40
50.0000
50
82.4371
51
104.1122
0
LINE
8
0
10
102.5511
20
-99.8910
30
0.0
11
128.7354
21
-103.2975
31
0.0
0
LINE
8
0
10
128.7354
20
-103.2975
30
0.0
11
137.3199
21
-108.2851
31
0.0
0
ARC
8
0
10
134.8082
20
-112.6083
30
0.0
40
4.9999
50
0.7178
51
59.8439
0
LINE
8
0
10
139.8077
20
-112.5485
30
0.0
11
139.8077
21
-112.5474
31
0.0
0
LINE
8
0
10
139.8077
20
-112.5474
30
0.0
11
139.8077
21
-112.5457
31
0.0
0
ARC
8
0
10
142.8077
20
-112.5485
30
0.0
40
3.0000
50
180.0000
51
270.0000
0
LINE
8
0
10
143.6155
20
-115.4385
30
0.0
11
142.8077
21
-115.5485
31
0.0
0
ARC
8
0
10
144.9616
20
-120.2539
30
0.0
40
5.0000
50
45.1344
51
105.6173
0
LINE
8
0
10
148.4888
20
-116.7101
30
0.0
11
155.8591
21
-123.9819
31
0.0
0
LINE
8
0
10
156.3611
20
-124.3929
30
0.0
11
155.8591
21
-123.9819
31
0.0
0
LINE
8
0
10
162.8893
20
-123.4168
30
0.0
11
162.6512
21
-123.6894
31
0.0
0
LINE
8
0
10
162.6512
20
-123.6894
30
0.0
11
161.9191
21
-124.3273
31
0.0
0
LINE
8
0
10
161.9191
20
-124.3273
30
0.0
11
160.9963
21
-124.8412
31
0.0
0
LINE
8
0
10
160.9963
20
-124.8412
30
0.0
11
160.1955
21
-125.1007
31
0.0
0
LINE
8
0
10
160.1955
20
-125.1007
30
0.0
11
159.8356
21
-125.1699
31
0.0
0
LINE
8
0
10
159.8356
20
-125.1699
30
0.0
11
158.9932
21
-125.2262
31
0.0
0
LINE
8
0
10
158.9932
20
-125.2262
30
0.0
11
158.6017
21
-125.2029
31
0.0
0
LINE
8
0
10
158.6017
20
-125.2029
30
0.0
11
157.7745
21
-125.0470
31
0.0
0
LINE
8
0
10
157.7745
20
-125.0470
30
0.0
11
157.5411
21
-124.9753
31
0.0
0
LINE
8
0
10
157.5411
20
-124.9753
30
0.0
11
156.7710
21
-124.6411
31
0.0
0
LINE
8
0
10
156.7710
20
-124.6411
30
0.0
11
156.3611
21
-124.3929
31
0.0
0
LINE
8
0
10
162.8893
20
-123.4168
30
0.0
11
182.7241
21
-103.5769
31
0.0
0
ARC
8
0
10
186.2600
20
-107.1119
30
0.0
40
4.9999
50
76.7405
51
135.0076
0
LINE
8
0
10
188.1318
20
-102.3335
30
0.0
11
187.4068
21
-102.2453
31
0.0
0
ARC
8
0
10
188.1318
20
-99.3335
30
0.0
40
3.0000
50
270.0000
51
0.0000
0
LINE
8
0
10
190.8320
20
-98.0255
30
0.0
11
191.0527
21
-98.6465
31
0.0
0
LINE
8
0
10
191.0527
20
-98.6465
30
0.0
11
191.1119
21
-98.9865
31
0.0
0
LINE
8
0
10
191.1119
20
-98.9865
30
0.0
11
191.1318
21
-99.3335
31
0.0
0
ARC
8
0
10
195.3274
20
-95.8370
30
0.0
40
4.9998
50
170.7072
51
205.9588
0
LINE
8
0
10
190.4500
20
-94.4024
30
0.0
11
190.3932
21
-95.0296
31
0.0
0
LINE
8
0
10
190.4500
20
-94.4024
30
0.0
11
190.4550
21
-87.0063
31
0.0
0
LINE
8
0
10
190.4550
20
-87.0013
30
0.0
11
190.4550
21
-87.0031
31
0.0
0
LINE
8
0
10
190.4550
20
-87.0031
30
0.0
11
190.4550
21
-87.0046
31
0.0
0
LINE
8
0
10
190.4550
20
-87.0046
30
0.0
11
190.4550
21
-87.0063
31
0.0
0
LINE
8
0
10
190.4550
20
-87.0013
30
0.0
11
190.4533
21
-84.9770
31
0.0
0
LINE
8
0
10
174.4533
20
-84.9903
30
0.0
11
190.4533
21
-84.9770
31
0.0
0
LINE
8
0
10
174.4470
20
-77.4903
30
0.0
11
174.4533
21
-84.9903
31
0.0
0
LINE
8
0
10
190.4473
20
-77.4770
30
0.0
11
174.4470
21
-77.4903
31
0.0
0
LINE
8
0
10
190.4473
20
-77.4770
30
0.0
11
190.4170
21
-38.0005
31
0.0
0
LINE
8
0
10
190.4170
20
-38.0005
30
0.0
11
190.4151
21
-35.1409
31
0.0
0
ARC
8
0
10
195.4149
20
-35.1375
30
0.0
40
4.9999
50
124.7997
51
180.0385
0
ARC
8
0
10
190.8486
20
-28.5689
30
0.0
40
3.0000
50
304.8177
51
0.0000
0
ARC
8
0
10
190.8486
20
-28.5689
30
0.0
40
3.0000
50
360.0000
51
59.4847
0
ARC
8
0
10
194.9106
20
-21.6771
30
0.0
40
4.9999
50
199.2679
51
239.4850
0
LINE
8
0
10
186.4069
20
-20.6272
30
0.0
11
186.7092
21
-20.6385
31
0.0
0
LINE
8
0
10
186.7092
20
-20.6385
30
0.0
11
187.4588
21
-20.7670
31
0.0
0
LINE
8
0
10
187.4588
20
-20.7670
30
0.0
11
187.4946
21
-20.7770
31
0.0
0
LINE
8
0
10
187.4946
20
-20.7770
30
0.0
11
188.3709
21
-21.1419
31
0.0
0
LINE
8
0
10
188.3709
20
-21.1419
30
0.0
11
188.9950
21
-21.5774
31
0.0
0
LINE
8
0
10
188.9950
20
-21.5774
30
0.0
11
189.2325
21
-21.7962
31
0.0
0
LINE
8
0
10
189.2325
20
-21.7962
30
0.0
11
189.7197
21
-22.3850
31
0.0
0
LINE
8
0
10
189.7197
20
-22.3850
30
0.0
11
189.8763
21
-22.6352
31
0.0
0
LINE
8
0
10
189.8763
20
-22.6352
30
0.0
11
190.1908
21
-23.3269
31
0.0
0
LINE
8
0
10
186.4069
20
-20.6272
30
0.0
11
176.1866
21
-20.6272
31
0.0
0
LINE
8
0
10
176.1866
20
-20.6272
30
0.0
11
161.2673
21
-18.6867
31
0.0
0
ARC
8
0
10
161.9121
20
-13.7287
30
0.0
40
4.9997
50
208.9955
51
262.5899
0
ARC
8
0
10
154.9182
20
-17.6122
30
0.0
40
3.0000
50
29.1198
51
90.0000
0
ARC
8
0
10
154.9182
20
-17.6122
30
0.0
40
3.0000
50
90.0000
51
147.4370
0
ARC
8
0
10
148.1758
20
-13.3064
30
0.0
40
5.0000
50
269.7792
51
327.4370
0
LINE
8
0
10
148.1566
20
-18.3063
30
0.0
11
123.1153
21
-18.3212
31
0.0
0
LINE
8
0
10
119.4082
20
-15.8232
30
0.0
11
120.1561
21
-15.8935
31
0.0
0
LINE
8
0
10
120.1561
20
-15.8935
30
0.0
11
120.8863
21
-16.1061
31
0.0
0
LINE
8
0
10
120.8863
20
-16.1061
30
0.0
11
121.6006
21
-16.4774
31
0.0
0
LINE
8
0
10
121.6006
20
-16.4774
30
0.0
11
122.2982
21
-17.0574
31
0.0
0
LINE
8
0
10
122.2982
20
-17.0574
30
0.0
11
122.7823
21
-17.6745
31
0.0
0
LINE
8
0
10
122.7823
20
-17.6745
30
0.0
11
123.1153
21
-18.3212
31
0.0
0
LINE
8
0
10
119.4082
20
-15.8232
30
0.0
11
104.0048
21
-15.8232
31
0.0
0
CIRCLE
8
0
10
40.4878
20
-92.2113
30
0.0
40
1.6000
0
LINE
8
0
10
27.7958
20
-73.6041
30
0.0
11
41.5762
21
-71.1740
31
0.0
0
LINE
8
0
10
41.5762
20
-71.1740
30
0.0
11
44.0162
21
-84.9542
31
0.0
0
LINE
8
0
10
44.0162
20
-84.9542
30
0.0
11
30.2259
21
-87.3943
31
0.0
0
LINE
8
0
10
30.2259
20
-87.3943
30
0.0
11
27.7958
21
-73.6041
31
0.0
0
LINE
8
0
10
46.5063
20
-70.3040
30
0.0
11
60.2966
21
-67.8740
31
0.0
0
LINE
8
0
10
60.2966
20
-67.8740
30
0.0
11
62.7267
21
-81.6642
31
0.0
0
LINE
8
0
10
62.7267
20
-81.6642
30
0.0
11
48.9364
21
-84.0942
31
0.0
0
LINE
8
0
10
48.9364
20
-84.0942
30
0.0
11
46.5063
21
-70.3040
31
0.0
0
CIRCLE
8
0
10
43.6500
20
-68.2300
30
0.0
40
1.6000
0
LINE
8
0
10
82.4463
20
-97.3605
30
0.0
11
79.6404
21
-81.6084
31
0.0
0
LINE
8
0
10
48.9732
20
-103.3229
30
0.0
11
82.4463
21
-97.3605
31
0.0
0
LINE
8
0
10
46.1673
20
-87.5709
30
0.0
11
48.9732
21
-103.3229
31
0.0
0
LINE
8
0
10
79.6404
20
-81.6084
30
0.0
11
46.1673
21
-87.5709
31
0.0
0
CIRCLE
8
0
10
87.3226
20
-94.8247
30
0.0
40
1.6000
0
LINE
8
0
10
94.4075
20
-79.0742
30
0.0
11
108.4079
21
-79.0742
31
0.0
0
LINE
8
0
10
108.4079
20
-79.0742
30
0.0
11
108.4079
21
-93.0744
31
0.0
0
LINE
8
0
10
108.4079
20
-93.0744
30
0.0
11
94.4075
21
-93.0744
31
0.0
0
LINE
8
0
10
94.4075
20
-93.0744
30
0.0
11
94.4075
21
-79.0742
31
0.0
0
LINE
8
0
10
65.6268
20
-63.0639
30
0.0
11
79.5771
21
-61.8439
31
0.0
0
LINE
8
0
10
79.5771
20
-61.8439
30
0.0
11
80.7972
21
-75.7941
31
0.0
0
LINE
8
0
10
80.7972
20
-75.7941
30
0.0
11
66.8468
21
-77.0141
31
0.0
0
LINE
8
0
10
66.8468
20
-77.0141
30
0.0
11
65.6268
21
-63.0639
31
0.0
0
CIRCLE
8
0
10
142.8077
20
-112.5485
30
0.0
40
1.6000
0
LINE
8
0
10
139.6987
20
-86.9543
30
0.0
11
151.8190
21
-93.9544
31
0.0
0
LINE
8
0
10
151.8190
20
-93.9544
30
0.0
11
144.8188
21
-106.0746
31
0.0
0
LINE
8
0
10
144.8188
20
-106.0746
30
0.0
11
132.6985
21
-99.0745
31
0.0
0
LINE
8
0
10
132.6985
20
-99.0745
30
0.0
11
139.6987
21
-86.9543
31
0.0
0
LINE
8
0
10
159.0592
20
-99.4045
30
0.0
11
168.9594
21
-109.3046
31
0.0
0
LINE
8
0
10
168.9594
20
-109.3046
30
0.0
11
159.0592
21
-119.2048
31
0.0
0
LINE
8
0
10
159.0592
20
-119.2048
30
0.0
11
149.1589
21
-109.3046
31
0.0
0
LINE
8
0
10
149.1589
20
-109.3046
30
0.0
11
159.0592
21
-99.4045
31
0.0
0
CIRCLE
8
0
10
188.1318
20
-99.3335
30
0.0
40
1.6000
0
LINE
8
0
10
117.4581
20
-80.2542
30
0.0
11
130.9785
21
-83.8742
31
0.0
0
LINE
8
0
10
130.9785
20
-83.8742
30
0.0
11
127.3584
21
-97.3944
31
0.0
0
LINE
8
0
10
127.3584
20
-97.3944
30
0.0
11
113.8380
21
-93.7744
31
0.0
0
LINE
8
0
10
113.8380
20
-93.7744
30
0.0
11
117.4581
21
-80.2542
31
0.0
0
LINE
8
0
10
122.9082
20
-61.8239
30
0.0
11
136.9086
21
-61.8239
31
0.0
0
LINE
8
0
10
136.9086
20
-61.8239
30
0.0
11
136.9086
21
-75.8241
31
0.0
0
LINE
8
0
10
136.9086
20
-75.8241
30
0.0
11
122.9082
21
-75.8241
31
0.0
0
LINE
8
0
10
122.9082
20
-75.8241
30
0.0
11
122.9082
21
-61.8239
31
0.0
0
CIRCLE
8
0
10
157.8500
20
-94.0300
30
0.0
40
1.6000
0
LINE
8
0
10
172.7095
20
-85.8143
30
0.0
11
182.6098
21
-95.7144
31
0.0
0
LINE
8
0
10
182.6098
20
-95.7144
30
0.0
11
172.7095
21
-105.6146
31
0.0
0
LINE
8
0
10
172.7095
20
-105.6146
30
0.0
11
162.8093
21
-95.7144
31
0.0
0
LINE
8
0
10
162.8093
20
-95.7144
30
0.0
11
172.7095
21
-85.8143
31
0.0
0
LINE
8
0
10
149.3989
20
-70.3340
30
0.0
11
161.5192
21
-77.3341
31
0.0
0
LINE
8
0
10
161.5192
20
-77.3341
30
0.0
11
154.5191
21
-89.4643
31
0.0
0
LINE
8
0
10
154.5191
20
-89.4643
30
0.0
11
142.3987
21
-82.4642
31
0.0
0
LINE
8
0
10
142.3987
20
-82.4642
30
0.0
11
149.3989
21
-70.3340
31
0.0
0
LINE
8
0
10
24.4957
20
-54.8938
30
0.0
11
38.2861
21
-52.4637
31
0.0
0
LINE
8
0
10
38.2861
20
-52.4637
30
0.0
11
40.7161
21
-66.2439
31
0.0
0
LINE
8
0
10
40.7161
20
-66.2439
30
0.0
11
26.9258
21
-68.6740
31
0.0
0
LINE
8
0
10
26.9258
20
-68.6740
30
0.0
11
24.4957
21
-54.8938
31
0.0
0
LINE
8
0
10
43.2062
20
-51.5937
30
0.0
11
56.9966
21
-49.1637
31
0.0
0
LINE
8
0
10
56.9966
20
-49.1637
30
0.0
11
59.4266
21
-62.9439
31
0.0
0
LINE
8
0
10
59.4266
20
-62.9439
30
0.0
11
45.6363
21
-65.3839
31
0.0
0
LINE
8
0
10
45.6363
20
-65.3839
30
0.0
11
43.2062
21
-51.5937
31
0.0
0
LINE
8
0
10
21.1956
20
-36.1835
30
0.0
11
34.9860
21
-33.7434
31
0.0
0
LINE
8
0
10
34.9860
20
-33.7434
30
0.0
11
37.4161
21
-47.5337
31
0.0
0
LINE
8
0
10
37.4161
20
-47.5337
30
0.0
11
23.6257
21
-49.9637
31
0.0
0
LINE
8
0
10
23.6257
20
-49.9637
30
0.0
11
21.1956
21
-36.1835
31
0.0
0
CIRCLE
8
0
10
40.2500
20
-49.6300
30
0.0
40
1.6000
0
LINE
8
0
10
39.9061
20
-32.8834
30
0.0
11
53.6965
21
-30.4534
31
0.0
0
LINE
8
0
10
53.6965
20
-30.4534
30
0.0
11
56.1265
21
-44.2336
31
0.0
0
LINE
8
0
10
56.1265
20
-44.2336
30
0.0
11
42.3362
21
-46.6636
31
0.0
0
LINE
8
0
10
42.3362
20
-46.6636
30
0.0
11
39.9061
21
-32.8834
31
0.0
0
LINE
8
0
10
84.9073
20
-57.0738
30
0.0
11
98.9076
21
-57.0738
31
0.0
0
LINE
8
0
10
98.9076
20
-57.0738
30
0.0
11
98.9076
21
-71.0740
31
0.0
0
LINE
8
0
10
98.9076
20
-71.0740
30
0.0
11
84.9073
21
-71.0740
31
0.0
0
LINE
8
0
10
84.9073
20
-71.0740
30
0.0
11
84.9073
21
-57.0738
31
0.0
0
LINE
8
0
10
63.9767
20
-44.1336
30
0.0
11
77.9171
21
-42.9136
31
0.0
0
LINE
8
0
10
77.9171
20
-42.9136
30
0.0
11
79.1371
21
-56.8638
31
0.0
0
LINE
8
0
10
79.1371
20
-56.8638
30
0.0
11
65.1968
21
-58.0838
31
0.0
0
LINE
8
0
10
65.1968
20
-58.0838
30
0.0
11
63.9767
21
-44.1336
31
0.0
0
LINE
8
0
10
84.9073
20
-38.0735
30
0.0
11
98.9076
21
-38.0735
31
0.0
0
LINE
8
0
10
98.9076
20
-38.0735
30
0.0
11
98.9076
21
-52.0737
31
0.0
0
LINE
8
0
10
98.9076
20
-52.0737
30
0.0
11
84.9073
21
-52.0737
31
0.0
0
LINE
8
0
10
84.9073
20
-52.0737
30
0.0
11
84.9073
21
-38.0735
31
0.0
0
CIRCLE
8
0
10
22.1020
20
-29.9071
30
0.0
40
1.6000
0
LINE
8
0
10
62.3167
20
-25.2133
30
0.0
11
76.2671
21
-23.9833
31
0.0
0
LINE
8
0
10
76.2671
20
-23.9833
30
0.0
11
77.4871
21
-37.9335
31
0.0
0
LINE
8
0
10
77.4871
20
-37.9335
30
0.0
11
63.5367
21
-39.1535
31
0.0
0
LINE
8
0
10
63.5367
20
-39.1535
30
0.0
11
62.3167
21
-25.2133
31
0.0
0
LINE
8
0
10
84.9073
20
-19.0732
30
0.0
11
98.9076
21
-19.0732
31
0.0
0
LINE
8
0
10
98.9076
20
-19.0732
30
0.0
11
98.9076
21
-33.0734
31
0.0
0
LINE
8
0
10
98.9076
20
-33.0734
30
0.0
11
84.9073
21
-33.0734
31
0.0
0
LINE
8
0
10
84.9073
20
-33.0734
30
0.0
11
84.9073
21
-19.0732
31
0.0
0
CIRCLE
8
0
10
92.0769
20
-12.4242
30
0.0
40
1.6000
0
LINE
8
0
10
103.9078
20
-59.4438
30
0.0
11
117.9081
21
-59.4438
31
0.0
0
LINE
8
0
10
117.9081
20
-59.4438
30
0.0
11
117.9081
21
-73.4441
31
0.0
0
LINE
8
0
10
117.9081
20
-73.4441
30
0.0
11
103.9078
21
-73.4441
31
0.0
0
LINE
8
0
10
103.9078
20
-73.4441
30
0.0
11
103.9078
21
-59.4438
31
0.0
0
LINE
8
0
10
103.9078
20
-40.4535
30
0.0
11
117.9081
21
-40.4535
31
0.0
0
LINE
8
0
10
117.9081
20
-40.4535
30
0.0
11
117.9081
21
-54.4538
31
0.0
0
LINE
8
0
10
117.9081
20
-54.4538
30
0.0
11
103.9078
21
-54.4538
31
0.0
0
LINE
8
0
10
103.9078
20
-54.4538
30
0.0
11
103.9078
21
-40.4535
31
0.0
0
LINE
8
0
10
122.9082
20
-42.8236
30
0.0
11
136.9086
21
-42.8236
31
0.0
0
LINE
8
0
10
136.9086
20
-42.8236
30
0.0
11
136.9086
21
-56.8238
31
0.0
0
LINE
8
0
10
136.9086
20
-56.8238
30
0.0
11
122.9082
21
-56.8238
31
0.0
0
LINE
8
0
10
122.9082
20
-56.8238
30
0.0
11
122.9082
21
-42.8236
31
0.0
0
CIRCLE
8
0
10
139.4500
20
-40.3300
30
0.0
40
1.6000
0
LINE
8
0
10
157.7600
20
-68.2800
30
0.0
11
164.5100
21
-68.2800
31
0.0
0
LINE
8
0
10
157.7600
20
-39.0800
30
0.0
11
157.7600
21
-68.2800
31
0.0
0
LINE
8
0
10
186.5600
20
-39.0800
30
0.0
11
157.7600
21
-39.0800
31
0.0
0
LINE
8
0
10
186.5600
20
-68.2800
30
0.0
11
186.5600
21
-39.0800
31
0.0
0
LINE
8
0
10
178.4100
20
-68.2800
30
0.0
11
186.5600
21
-68.2800
31
0.0
0
LINE
8
0
10
178.4100
20
-71.8300
30
0.0
11
178.4100
21
-68.2800
31
0.0
0
LINE
8
0
10
164.5100
20
-71.8300
30
0.0
11
178.4100
21
-71.8300
31
0.0
0
LINE
8
0
10
164.5100
20
-68.2800
30
0.0
11
164.5100
21
-71.8300
31
0.0
0
LINE
8
0
10
141.9587
20
-42.8036
30
0.0
11
155.9591
21
-42.8036
31
0.0
0
LINE
8
0
10
155.9591
20
-42.8036
30
0.0
11
155.9591
21
-56.8038
31
0.0
0
LINE
8
0
10
155.9591
20
-56.8038
30
0.0
11
141.9587
21
-56.8038
31
0.0
0
LINE
8
0
10
141.9587
20
-56.8038
30
0.0
11
141.9587
21
-42.8036
31
0.0
0
LINE
8
0
10
103.9078
20
-21.4532
30
0.0
11
117.9081
21
-21.4532
31
0.0
0
LINE
8
0
10
117.9081
20
-21.4532
30
0.0
11
117.9081
21
-35.4535
31
0.0
0
LINE
8
0
10
117.9081
20
-35.4535
30
0.0
11
103.9078
21
-35.4535
31
0.0
0
LINE
8
0
10
103.9078
20
-35.4535
30
0.0
11
103.9078
21
-21.4532
31
0.0
0
LINE
8
0
10
122.9082
20
-23.8233
30
0.0
11
136.9086
21
-23.8233
31
0.0
0
LINE
8
0
10
136.9086
20
-23.8233
30
0.0
11
136.9086
21
-37.8235
31
0.0
0
LINE
8
0
10
136.9086
20
-37.8235
30
0.0
11
122.9082
21
-37.8235
31
0.0
0
LINE
8
0
10
122.9082
20
-37.8235
30
0.0
11
122.9082
21
-23.8233
31
0.0
0
LINE
8
0
10
141.9587
20
-23.8833
30
0.0
11
155.9591
21
-23.8833
31
0.0
0
LINE
8
0
10
155.9591
20
-23.8833
30
0.0
11
155.9591
21
-37.8835
31
0.0
0
LINE
8
0
10
155.9591
20
-37.8835
30
0.0
11
141.9587
21
-37.8835
31
0.0
0
LINE
8
0
10
141.9587
20
-37.8835
30
0.0
11
141.9587
21
-23.8833
31
0.0
0
CIRCLE
8
0
10
190.8486
20
-28.5689
30
0.0
40
1.6000
0
CIRCLE
8
0
10
154.9182
20
-17.6122
30
0.0
40
1.6000
0
ENDSEC
0
EOF
