  0
SECTION
  2
HEADER
  9
$ACADVER
  1
AC1009
  0
ENDSEC
  0
SECTION
  2
TABLES
  0
TABLE
  2
LAYER
  70
1
  0
LAYER
  2
Layer_0
  70
0
  62
7
  6
CONTINUOUS
  0
ENDTAB
  0
ENDSEC
  0
SECTION
  2
ENTITIES
  0
CIRCLE
  5
90
  8
Layer_0
  62
7
  10
436.4332
  20
275.1134
  30
0
  40
1.6
  0
CIRCLE
  5
90
  8
Layer_0
  62
7
  10
439.5954
  20
299.0947
  30
0
  40
1.6
  0
CIRCLE
  5
90
  8
Layer_0
  62
7
  10
483.26801
  20
272.5
  30
0
  40
1.6
  0
CIRCLE
  5
90
  8
Layer_0
  62
7
  10
538.75311
  20
254.77621
  30
0
  40
1.6
  0
CIRCLE
  5
90
  8
Layer_0
  62
7
  10
584.07721
  20
267.99121
  30
0
  40
1.6
  0
CIRCLE
  5
90
  8
Layer_0
  62
7
  10
553.79541
  20
273.29471
  30
0
  40
1.6
  0
CIRCLE
  5
90
  8
Layer_0
  62
7
  10
436.1954
  20
317.6947
  30
0
  40
1.6
  0
CIRCLE
  5
90
  8
Layer_0
  62
7
  10
418.04739
  20
337.4176
  30
0
  40
1.6
  0
CIRCLE
  5
90
  8
Layer_0
  62
7
  10
488.02231
  20
354.90051
  30
0
  40
1.6
  0
CIRCLE
  5
90
  8
Layer_0
  62
7
  10
535.39539
  20
326.99469
  30
0
  40
1.6
  0
CIRCLE
  5
90
  8
Layer_0
  62
7
  10
586.79401
  20
338.7558
  30
0
  40
1.6
  0
CIRCLE
  5
90
  8
Layer_0
  62
7
  10
550.86359
  20
349.71252
  30
0
  40
1.6
  0
POLYLINE
  5
90
  8
Layer_0
  62
7
  70
1
  66
1
  10
0
  20
0
  30
0
  0
VERTEX
  5
90
  8
Layer_0
  10
426.1713
  20
279.93042
  0
VERTEX
  5
91
  8
Layer_0
  10
423.74121
  20
293.72061
  0
VERTEX
  5
92
  8
Layer_0
  10
437.52161
  20
296.1507
  0
VERTEX
  5
93
  8
Layer_0
  10
439.96161
  20
282.37051
  0
SEQEND
  0
POLYLINE
  5
95
  8
Layer_0
  62
7
  70
1
  66
1
  10
0
  20
0
  30
0
  0
VERTEX
  5
95
  8
Layer_0
  10
444.88181
  20
283.2305
  0
VERTEX
  5
96
  8
Layer_0
  10
442.45172
  20
297.02069
  0
VERTEX
  5
97
  8
Layer_0
  10
456.242
  20
299.45071
  0
VERTEX
  5
98
  8
Layer_0
  10
458.67212
  20
285.66052
  0
SEQEND
  0
POLYLINE
  5
9a
  8
Layer_0
  62
7
  70
1
  66
1
  10
0
  20
0
  30
0
  0
VERTEX
  5
9a
  8
Layer_0
  10
444.91861
  20
264.0018
  0
VERTEX
  5
9b
  8
Layer_0
  10
442.1127
  20
279.75381
  0
VERTEX
  5
9c
  8
Layer_0
  10
475.58582
  20
285.71631
  0
VERTEX
  5
9d
  8
Layer_0
  10
478.39169
  20
269.9642
  0
SEQEND
  0
POLYLINE
  5
9f
  8
Layer_0
  62
7
  70
1
  66
1
  10
0
  20
0
  30
0
  0
VERTEX
  5
9f
  8
Layer_0
  10
490.35291
  20
288.25049
  0
VERTEX
  5
a0
  8
Layer_0
  10
490.35291
  20
274.25031
  0
VERTEX
  5
a1
  8
Layer_0
  10
504.3533
  20
274.25031
  0
VERTEX
  5
a2
  8
Layer_0
  10
504.3533
  20
288.25049
  0
SEQEND
  0
POLYLINE
  5
a4
  8
Layer_0
  62
7
  70
1
  66
1
  10
0
  20
0
  30
0
  0
VERTEX
  5
a4
  8
Layer_0
  10
462.79221
  20
290.31061
  0
VERTEX
  5
a5
  8
Layer_0
  10
461.5722
  20
304.2608
  0
VERTEX
  5
a6
  8
Layer_0
  10
475.52252
  20
305.4808
  0
VERTEX
  5
a7
  8
Layer_0
  10
476.74261
  20
291.53061
  0
SEQEND
  0
POLYLINE
  5
a9
  8
Layer_0
  62
7
  70
1
  66
1
  10
0
  20
0
  30
0
  0
VERTEX
  5
a9
  8
Layer_0
  10
535.6441
  20
280.37042
  0
VERTEX
  5
aa
  8
Layer_0
  10
528.64392
  20
268.25021
  0
VERTEX
  5
ab
  8
Layer_0
  10
540.76422
  20
261.25012
  0
VERTEX
  5
ac
  8
Layer_0
  10
547.7644
  20
273.3703
  0
SEQEND
  0
POLYLINE
  5
ae
  8
Layer_0
  62
7
  70
1
  66
1
  10
0
  20
0
  30
0
  0
VERTEX
  5
ae
  8
Layer_0
  10
555.00464
  20
267.9202
  0
VERTEX
  5
af
  8
Layer_0
  10
564.90479
  20
258.02011
  0
VERTEX
  5
b0
  8
Layer_0
  10
555.00464
  20
248.1199
  0
VERTEX
  5
b1
  8
Layer_0
  10
545.10431
  20
258.02011
  0
SEQEND
  0
POLYLINE
  5
b3
  8
Layer_0
  62
7
  70
1
  66
1
  10
0
  20
0
  30
0
  0
VERTEX
  5
b3
  8
Layer_0
  10
513.4035
  20
287.0705
  0
VERTEX
  5
b4
  8
Layer_0
  10
509.78339
  20
273.55029
  0
VERTEX
  5
b5
  8
Layer_0
  10
523.30383
  20
269.9303
  0
VERTEX
  5
b6
  8
Layer_0
  10
526.92389
  20
283.4505
  0
SEQEND
  0
POLYLINE
  5
b8
  8
Layer_0
  62
7
  70
1
  66
1
  10
0
  20
0
  30
0
  0
VERTEX
  5
b8
  8
Layer_0
  10
518.85364
  20
305.50079
  0
VERTEX
  5
b9
  8
Layer_0
  10
518.85364
  20
291.50061
  0
VERTEX
  5
ba
  8
Layer_0
  10
532.854
  20
291.50061
  0
VERTEX
  5
bb
  8
Layer_0
  10
532.854
  20
305.50079
  0
SEQEND
  0
POLYLINE
  5
bd
  8
Layer_0
  62
7
  70
1
  66
1
  10
0
  20
0
  30
0
  0
VERTEX
  5
bd
  8
Layer_0
  10
568.65491
  20
281.51041
  0
VERTEX
  5
be
  8
Layer_0
  10
558.7547
  20
271.61029
  0
VERTEX
  5
bf
  8
Layer_0
  10
568.65491
  20
261.71011
  0
VERTEX
  5
c0
  8
Layer_0
  10
578.55518
  20
271.61029
  0
SEQEND
  0
POLYLINE
  5
c2
  8
Layer_0
  62
7
  70
1
  66
1
  10
0
  20
0
  30
0
  0
VERTEX
  5
c2
  8
Layer_0
  10
538.34412
  20
284.8605
  0
VERTEX
  5
c3
  8
Layer_0
  10
545.3443
  20
296.99072
  0
VERTEX
  5
c4
  8
Layer_0
  10
557.4646
  20
289.9906
  0
VERTEX
  5
c5
  8
Layer_0
  10
550.46448
  20
277.86041
  0
SEQEND
  0
POLYLINE
  5
c7
  8
Layer_0
  62
7
  70
1
  66
1
  10
0
  20
0
  30
0
  0
VERTEX
  5
c7
  8
Layer_0
  10
422.87122
  20
298.6507
  0
VERTEX
  5
c8
  8
Layer_0
  10
436.6615
  20
301.08081
  0
VERTEX
  5
c9
  8
Layer_0
  10
434.23151
  20
314.86102
  0
VERTEX
  5
ca
  8
Layer_0
  10
420.4411
  20
312.43091
  0
SEQEND
  0
POLYLINE
  5
cc
  8
Layer_0
  62
7
  70
1
  66
1
  10
0
  20
0
  30
0
  0
VERTEX
  5
cc
  8
Layer_0
  10
439.15161
  20
315.73102
  0
VERTEX
  5
cd
  8
Layer_0
  10
452.94202
  20
318.16101
  0
VERTEX
  5
ce
  8
Layer_0
  10
455.37201
  20
304.3808
  0
VERTEX
  5
cf
  8
Layer_0
  10
441.5817
  20
301.9408
  0
SEQEND
  0
POLYLINE
  5
d1
  8
Layer_0
  62
7
  70
1
  66
1
  10
0
  20
0
  30
0
  0
VERTEX
  5
d1
  8
Layer_0
  10
417.14099
  20
331.1412
  0
VERTEX
  5
d2
  8
Layer_0
  10
419.57111
  20
317.36102
  0
VERTEX
  5
d3
  8
Layer_0
  10
433.36151
  20
319.79102
  0
VERTEX
  5
d4
  8
Layer_0
  10
430.9314
  20
333.5813
  0
SEQEND
  0
POLYLINE
  5
d6
  8
Layer_0
  62
7
  70
1
  66
1
  10
0
  20
0
  30
0
  0
VERTEX
  5
d6
  8
Layer_0
  10
438.28162
  20
320.6611
  0
VERTEX
  5
d7
  8
Layer_0
  10
452.0719
  20
323.09109
  0
VERTEX
  5
d8
  8
Layer_0
  10
449.64191
  20
336.87131
  0
VERTEX
  5
d9
  8
Layer_0
  10
435.8515
  20
334.44131
  0
SEQEND
  0
POLYLINE
  5
db
  8
Layer_0
  62
7
  70
1
  66
1
  10
0
  20
0
  30
0
  0
VERTEX
  5
db
  8
Layer_0
  10
480.85272
  20
310.25092
  0
VERTEX
  5
dc
  8
Layer_0
  10
480.85272
  20
296.2507
  0
VERTEX
  5
dd
  8
Layer_0
  10
494.853
  20
296.2507
  0
VERTEX
  5
de
  8
Layer_0
  10
494.853
  20
310.25092
  0
SEQEND
  0
POLYLINE
  5
e0
  8
Layer_0
  62
7
  70
1
  66
1
  10
0
  20
0
  30
0
  0
VERTEX
  5
e0
  8
Layer_0
  10
459.92212
  20
323.1911
  0
VERTEX
  5
e1
  8
Layer_0
  10
461.14221
  20
309.24091
  0
VERTEX
  5
e2
  8
Layer_0
  10
475.08252
  20
310.46091
  0
VERTEX
  5
e3
  8
Layer_0
  10
473.86249
  20
324.4111
  0
SEQEND
  0
POLYLINE
  5
e5
  8
Layer_0
  62
7
  70
1
  66
1
  10
0
  20
0
  30
0
  0
VERTEX
  5
e5
  8
Layer_0
  10
480.85272
  20
329.25122
  0
VERTEX
  5
e6
  8
Layer_0
  10
480.85272
  20
315.25101
  0
VERTEX
  5
e7
  8
Layer_0
  10
494.853
  20
315.25101
  0
VERTEX
  5
e8
  8
Layer_0
  10
494.853
  20
329.25122
  0
SEQEND
  0
POLYLINE
  5
ea
  8
Layer_0
  62
7
  70
1
  66
1
  10
0
  20
0
  30
0
  0
VERTEX
  5
ea
  8
Layer_0
  10
458.26212
  20
342.11142
  0
VERTEX
  5
eb
  8
Layer_0
  10
459.48212
  20
328.1712
  0
VERTEX
  5
ec
  8
Layer_0
  10
473.4325
  20
329.3912
  0
VERTEX
  5
ed
  8
Layer_0
  10
472.21249
  20
343.3414
  0
SEQEND
  0
POLYLINE
  5
ef
  8
Layer_0
  62
7
  70
1
  66
1
  10
0
  20
0
  30
0
  0
VERTEX
  5
ef
  8
Layer_0
  10
480.85272
  20
348.25151
  0
VERTEX
  5
f0
  8
Layer_0
  10
480.85272
  20
334.25131
  0
VERTEX
  5
f1
  8
Layer_0
  10
494.853
  20
334.25131
  0
VERTEX
  5
f2
  8
Layer_0
  10
494.853
  20
348.25151
  0
SEQEND
  0
POLYLINE
  5
f4
  8
Layer_0
  62
7
  70
1
  66
1
  10
0
  20
0
  30
0
  0
VERTEX
  5
f4
  8
Layer_0
  10
499.85321
  20
307.88092
  0
VERTEX
  5
f5
  8
Layer_0
  10
499.85321
  20
293.88062
  0
VERTEX
  5
f6
  8
Layer_0
  10
513.85352
  20
293.88062
  0
VERTEX
  5
f7
  8
Layer_0
  10
513.85352
  20
307.88092
  0
SEQEND
  0
POLYLINE
  5
f9
  8
Layer_0
  62
7
  70
1
  66
1
  10
0
  20
0
  30
0
  0
VERTEX
  5
f9
  8
Layer_0
  10
499.85321
  20
326.87122
  0
VERTEX
  5
fa
  8
Layer_0
  10
499.85321
  20
312.87091
  0
VERTEX
  5
fb
  8
Layer_0
  10
513.85352
  20
312.87091
  0
VERTEX
  5
fc
  8
Layer_0
  10
513.85352
  20
326.87122
  0
SEQEND
  0
POLYLINE
  5
fe
  8
Layer_0
  62
7
  70
1
  66
1
  10
0
  20
0
  30
0
  0
VERTEX
  5
fe
  8
Layer_0
  10
518.85364
  20
324.5011
  0
VERTEX
  5
ff
  8
Layer_0
  10
518.85364
  20
310.50092
  0
VERTEX
  5
100
  8
Layer_0
  10
532.854
  20
310.50092
  0
VERTEX
  5
101
  8
Layer_0
  10
532.854
  20
324.5011
  0
SEQEND
  0
POLYLINE
  5
103
  8
Layer_0
  62
7
  70
1
  66
1
  10
0
  20
0
  30
0
  0
VERTEX
  5
103
  8
Layer_0
  10
553.70538
  20
299.04471
  0
VERTEX
  5
104
  8
Layer_0
  10
560.45538
  20
299.04471
  0
VERTEX
  5
105
  8
Layer_0
  10
560.45538
  20
295.49469
  0
VERTEX
  5
106
  8
Layer_0
  10
574.35541
  20
295.49469
  0
VERTEX
  5
107
  8
Layer_0
  10
574.35541
  20
299.04471
  0
VERTEX
  5
108
  8
Layer_0
  10
582.50537
  20
299.04471
  0
VERTEX
  5
109
  8
Layer_0
  10
582.50537
  20
328.24469
  0
VERTEX
  5
10a
  8
Layer_0
  10
553.70538
  20
328.24469
  0
SEQEND
  0
POLYLINE
  5
10c
  8
Layer_0
  62
7
  70
1
  66
1
  10
0
  20
0
  30
0
  0
VERTEX
  5
10c
  8
Layer_0
  10
537.90411
  20
324.52112
  0
VERTEX
  5
10d
  8
Layer_0
  10
537.90411
  20
310.5209
  0
VERTEX
  5
10e
  8
Layer_0
  10
551.90454
  20
310.5209
  0
VERTEX
  5
10f
  8
Layer_0
  10
551.90454
  20
324.52112
  0
SEQEND
  0
POLYLINE
  5
111
  8
Layer_0
  62
7
  70
1
  66
1
  10
0
  20
0
  30
0
  0
VERTEX
  5
111
  8
Layer_0
  10
499.85321
  20
345.87151
  0
VERTEX
  5
112
  8
Layer_0
  10
499.85321
  20
331.87122
  0
VERTEX
  5
113
  8
Layer_0
  10
513.85352
  20
331.87122
  0
VERTEX
  5
114
  8
Layer_0
  10
513.85352
  20
345.87151
  0
SEQEND
  0
POLYLINE
  5
116
  8
Layer_0
  62
7
  70
1
  66
1
  10
0
  20
0
  30
0
  0
VERTEX
  5
116
  8
Layer_0
  10
518.85364
  20
343.5014
  0
VERTEX
  5
117
  8
Layer_0
  10
518.85364
  20
329.50122
  0
VERTEX
  5
118
  8
Layer_0
  10
532.854
  20
329.50122
  0
VERTEX
  5
119
  8
Layer_0
  10
532.854
  20
343.5014
  0
SEQEND
  0
POLYLINE
  5
11b
  8
Layer_0
  62
7
  70
1
  66
1
  10
0
  20
0
  30
0
  0
VERTEX
  5
11b
  8
Layer_0
  10
537.90411
  20
343.44141
  0
VERTEX
  5
11c
  8
Layer_0
  10
537.90411
  20
329.44122
  0
VERTEX
  5
11d
  8
Layer_0
  10
551.90454
  20
329.44122
  0
VERTEX
  5
11e
  8
Layer_0
  10
551.90454
  20
343.44141
  0
SEQEND
  0
POLYLINE
  5
120
  8
Layer_0
  62
7
  70
1
  66
1
  10
0
  20
0
  30
0
  0
VERTEX
  5
120
  8
Layer_0
  10
574.39795
  20
288.34805
  0
VERTEX
  5
121
  8
Layer_0
  10
570.39795
  20
288.36978
  0
VERTEX
  5
122
  8
Layer_0
  10
570.39795
  20
281.36978
  0
VERTEX
  5
123
  8
Layer_0
  10
574.39795
  20
281.34799
  0
VERTEX
  5
124
  8
Layer_0
  10
586.39795
  20
281.34799
  0
VERTEX
  5
125
  8
Layer_0
  10
586.40039
  20
280.32343
  0
VERTEX
  5
126
  8
Layer_0
  10
586.40039
  20
280.32092
  0
VERTEX
  5
127
  8
Layer_0
  10
586.40039
  20
280.31842
  0
VERTEX
  5
128
  8
Layer_0
  10
586.39539
  20
272.9223
  0
VERTEX
  5
129
  8
Layer_0
  10
586.39502
  20
272.86942
  0
VERTEX
  5
12a
  8
Layer_0
  10
586.3938
  20
272.81659
  0
VERTEX
  5
12b
  8
Layer_0
  10
586.39178
  20
272.76392
  0
VERTEX
  5
12c
  8
Layer_0
  10
586.38904
  20
272.71121
  0
VERTEX
  5
12d
  8
Layer_0
  10
586.38538
  20
272.65869
  0
VERTEX
  5
12e
  8
Layer_0
  10
586.3811
  20
272.60632
  0
VERTEX
  5
12f
  8
Layer_0
  10
586.37592
  20
272.55411
  0
VERTEX
  5
130
  8
Layer_0
  10
586.37
  20
272.50201
  0
VERTEX
  5
131
  8
Layer_0
  10
586.36328
  20
272.45001
  0
VERTEX
  5
132
  8
Layer_0
  10
586.35583
  20
272.39819
  0
VERTEX
  5
133
  8
Layer_0
  10
586.3476
  20
272.34662
  0
VERTEX
  5
134
  8
Layer_0
  10
586.33862
  20
272.2951
  0
VERTEX
  5
135
  8
Layer_0
  10
586.31122
  20
272.1048
  0
VERTEX
  5
136
  8
Layer_0
  10
586.2912
  20
271.9136
  0
VERTEX
  5
137
  8
Layer_0
  10
586.2785
  20
271.7218
  0
VERTEX
  5
138
  8
Layer_0
  10
586.27319
  20
271.5296
  0
VERTEX
  5
139
  8
Layer_0
  10
586.27527
  20
271.3374
  0
VERTEX
  5
13a
  8
Layer_0
  10
586.28467
  20
271.14542
  0
VERTEX
  5
13b
  8
Layer_0
  10
586.30164
  20
270.95392
  0
VERTEX
  5
13c
  8
Layer_0
  10
586.32581
  20
270.76312
  0
VERTEX
  5
13d
  8
Layer_0
  10
586.3573
  20
270.57352
  0
VERTEX
  5
13e
  8
Layer_0
  10
586.39612
  20
270.38519
  0
VERTEX
  5
13f
  8
Layer_0
  10
586.44214
  20
270.19852
  0
VERTEX
  5
140
  8
Layer_0
  10
586.49524
  20
270.01379
  0
VERTEX
  5
141
  8
Layer_0
  10
586.55542
  20
269.83121
  0
VERTEX
  5
142
  8
Layer_0
  10
586.62262
  20
269.65112
  0
VERTEX
  5
143
  8
Layer_0
  10
586.69659
  20
269.4736
  0
VERTEX
  5
144
  8
Layer_0
  10
586.7774
  20
269.29919
  0
VERTEX
  5
145
  8
Layer_0
  10
586.82373
  20
269.1994
  0
VERTEX
  5
146
  8
Layer_0
  10
586.86633
  20
269.09772
  0
VERTEX
  5
147
  8
Layer_0
  10
586.90527
  20
268.99411
  0
VERTEX
  5
148
  8
Layer_0
  10
586.94049
  20
268.8887
  0
VERTEX
  5
149
  8
Layer_0
  10
586.97192
  20
268.78162
  0
VERTEX
  5
14a
  8
Layer_0
  10
586.99927
  20
268.67291
  0
VERTEX
  5
14b
  8
Layer_0
  10
587.02283
  20
268.56271
  0
VERTEX
  5
14c
  8
Layer_0
  10
587.04211
  20
268.4509
  0
VERTEX
  5
14d
  8
Layer_0
  10
587.05731
  20
268.33789
  0
VERTEX
  5
14e
  8
Layer_0
  10
587.0683
  20
268.22351
  0
VERTEX
  5
14f
  8
Layer_0
  10
587.07489
  20
268.10791
  0
VERTEX
  5
150
  8
Layer_0
  10
587.07721
  20
267.99121
  0
VERTEX
  5
151
  8
Layer_0
  10
587.06268
  20
267.69711
  0
VERTEX
  5
152
  8
Layer_0
  10
587.01953
  20
267.40591
  0
VERTEX
  5
153
  8
Layer_0
  10
586.948
  20
267.1203
  0
VERTEX
  5
154
  8
Layer_0
  10
586.84882
  20
266.84311
  0
VERTEX
  5
155
  8
Layer_0
  10
586.7229
  20
266.577
  0
VERTEX
  5
156
  8
Layer_0
  10
586.57159
  20
266.32452
  0
VERTEX
  5
157
  8
Layer_0
  10
586.39624
  20
266.08801
  0
VERTEX
  5
158
  8
Layer_0
  10
586.19849
  20
265.86981
  0
VERTEX
  5
159
  8
Layer_0
  10
585.98029
  20
265.67212
  0
VERTEX
  5
15a
  8
Layer_0
  10
585.7439
  20
265.4968
  0
VERTEX
  5
15b
  8
Layer_0
  10
585.49133
  20
265.3454
  0
VERTEX
  5
15c
  8
Layer_0
  10
585.22522
  20
265.21951
  0
VERTEX
  5
15d
  8
Layer_0
  10
584.948
  20
265.1203
  0
VERTEX
  5
15e
  8
Layer_0
  10
584.66241
  20
265.0488
  0
VERTEX
  5
15f
  8
Layer_0
  10
584.37122
  20
265.00562
  0
VERTEX
  5
160
  8
Layer_0
  10
584.07721
  20
264.99121
  0
VERTEX
  5
161
  8
Layer_0
  10
584.01477
  20
264.99182
  0
VERTEX
  5
162
  8
Layer_0
  10
583.95282
  20
264.99371
  0
VERTEX
  5
163
  8
Layer_0
  10
583.89111
  20
264.9968
  0
VERTEX
  5
164
  8
Layer_0
  10
583.82971
  20
265.00122
  0
VERTEX
  5
165
  8
Layer_0
  10
583.76868
  20
265.00681
  0
VERTEX
  5
166
  8
Layer_0
  10
583.70801
  20
265.0137
  0
VERTEX
  5
167
  8
Layer_0
  10
583.64771
  20
265.0217
  0
VERTEX
  5
168
  8
Layer_0
  10
583.58777
  20
265.03091
  0
VERTEX
  5
169
  8
Layer_0
  10
583.52832
  20
265.04132
  0
VERTEX
  5
16a
  8
Layer_0
  10
583.46924
  20
265.0528
  0
VERTEX
  5
16b
  8
Layer_0
  10
583.41052
  20
265.06549
  0
VERTEX
  5
16c
  8
Layer_0
  10
583.35217
  20
265.07941
  0
VERTEX
  5
16d
  8
Layer_0
  10
583.04077
  20
265.1424
  0
VERTEX
  5
16e
  8
Layer_0
  10
582.72601
  20
265.18552
  0
VERTEX
  5
16f
  8
Layer_0
  10
582.40912
  20
265.2085
  0
VERTEX
  5
170
  8
Layer_0
  10
582.09143
  20
265.21143
  0
VERTEX
  5
171
  8
Layer_0
  10
581.77411
  20
265.194
  0
VERTEX
  5
172
  8
Layer_0
  10
581.45862
  20
265.15662
  0
VERTEX
  5
173
  8
Layer_0
  10
581.14612
  20
265.09912
  0
VERTEX
  5
174
  8
Layer_0
  10
580.83777
  20
265.022
  0
VERTEX
  5
175
  8
Layer_0
  10
580.5351
  20
264.92542
  0
VERTEX
  5
176
  8
Layer_0
  10
580.2392
  20
264.80981
  0
VERTEX
  5
177
  8
Layer_0
  10
579.95117
  20
264.6756
  0
VERTEX
  5
178
  8
Layer_0
  10
579.67224
  20
264.52341
  0
VERTEX
  5
179
  8
Layer_0
  10
579.40363
  20
264.35382
  0
VERTEX
  5
17a
  8
Layer_0
  10
579.14624
  20
264.16751
  0
VERTEX
  5
17b
  8
Layer_0
  10
578.90118
  20
263.96521
  0
VERTEX
  5
17c
  8
Layer_0
  10
578.66949
  20
263.7478
  0
VERTEX
  5
17d
  8
Layer_0
  10
558.83472
  20
243.9079
  0
VERTEX
  5
17e
  8
Layer_0
  10
558.41132
  20
243.44843
  0
VERTEX
  5
17f
  8
Layer_0
  10
557.94312
  20
243.05432
  0
VERTEX
  5
180
  8
Layer_0
  10
557.43713
  20
242.7265
  0
VERTEX
  5
181
  8
Layer_0
  10
556.90002
  20
242.46613
  0
VERTEX
  5
182
  8
Layer_0
  10
556.33862
  20
242.27411
  0
VERTEX
  5
183
  8
Layer_0
  10
555.76001
  20
242.15161
  0
VERTEX
  5
184
  8
Layer_0
  10
555.17078
  20
242.09952
  0
VERTEX
  5
185
  8
Layer_0
  10
554.57788
  20
242.1189
  0
VERTEX
  5
186
  8
Layer_0
  10
553.98822
  20
242.21082
  0
VERTEX
  5
187
  8
Layer_0
  10
553.40851
  20
242.37622
  0
VERTEX
  5
188
  8
Layer_0
  10
552.84558
  20
242.61621
  0
VERTEX
  5
189
  8
Layer_0
  10
552.30652
  20
242.93182
  0
VERTEX
  5
18a
  8
Layer_0
  10
552.26184
  20
242.9624
  0
VERTEX
  5
18b
  8
Layer_0
  10
552.21753
  20
242.99371
  0
VERTEX
  5
18c
  8
Layer_0
  10
552.17383
  20
243.0257
  0
VERTEX
  5
18d
  8
Layer_0
  10
552.13062
  20
243.05841
  0
VERTEX
  5
18e
  8
Layer_0
  10
552.08789
  20
243.09171
  0
VERTEX
  5
18f
  8
Layer_0
  10
552.04572
  20
243.1257
  0
VERTEX
  5
190
  8
Layer_0
  10
552.00409
  20
243.1604
  0
VERTEX
  5
191
  8
Layer_0
  10
551.96313
  20
243.19562
  0
VERTEX
  5
192
  8
Layer_0
  10
551.92261
  20
243.23151
  0
VERTEX
  5
193
  8
Layer_0
  10
551.88269
  20
243.26801
  0
VERTEX
  5
194
  8
Layer_0
  10
551.84332
  20
243.30511
  0
VERTEX
  5
195
  8
Layer_0
  10
551.8045
  20
243.3428
  0
VERTEX
  5
196
  8
Layer_0
  10
544.4342
  20
250.61462
  0
VERTEX
  5
197
  8
Layer_0
  10
544.19287
  20
250.83942
  0
VERTEX
  5
198
  8
Layer_0
  10
543.93732
  20
251.04791
  0
VERTEX
  5
199
  8
Layer_0
  10
543.66852
  20
251.23901
  0
VERTEX
  5
19a
  8
Layer_0
  10
543.3877
  20
251.41202
  0
VERTEX
  5
19b
  8
Layer_0
  10
543.09601
  20
251.5661
  0
VERTEX
  5
19c
  8
Layer_0
  10
542.79492
  20
251.70062
  0
VERTEX
  5
19d
  8
Layer_0
  10
542.4856
  20
251.815
  0
VERTEX
  5
19e
  8
Layer_0
  10
542.16931
  20
251.90881
  0
VERTEX
  5
19f
  8
Layer_0
  10
541.8476
  20
251.98151
  0
VERTEX
  5
1a0
  8
Layer_0
  10
541.52179
  20
252.03281
  0
VERTEX
  5
1a1
  8
Layer_0
  10
541.19342
  20
252.06262
  0
VERTEX
  5
1a2
  8
Layer_0
  10
540.86359
  20
252.07062
  0
VERTEX
  5
1a3
  8
Layer_0
  10
540.53412
  20
252.05692
  0
VERTEX
  5
1a4
  8
Layer_0
  10
540.20618
  20
252.02142
  0
VERTEX
  5
1a5
  8
Layer_0
  10
539.88129
  20
251.96451
  0
VERTEX
  5
1a6
  8
Layer_0
  10
539.56091
  20
251.8862
  0
VERTEX
  5
1a7
  8
Layer_0
  10
539.4964
  20
251.86902
  0
VERTEX
  5
1a8
  8
Layer_0
  10
539.43127
  20
251.85321
  0
VERTEX
  5
1a9
  8
Layer_0
  10
539.3656
  20
251.83881
  0
VERTEX
  5
1aa
  8
Layer_0
  10
539.29944
  20
251.82581
  0
VERTEX
  5
1ab
  8
Layer_0
  10
539.23279
  20
251.8143
  0
VERTEX
  5
1ac
  8
Layer_0
  10
539.16559
  20
251.80432
  0
VERTEX
  5
1ad
  8
Layer_0
  10
539.0979
  20
251.79581
  0
VERTEX
  5
1ae
  8
Layer_0
  10
539.02979
  20
251.78882
  0
VERTEX
  5
1af
  8
Layer_0
  10
538.9613
  20
251.78333
  0
VERTEX
  5
1b0
  8
Layer_0
  10
538.89233
  20
251.77942
  0
VERTEX
  5
1b1
  8
Layer_0
  10
538.82288
  20
251.77701
  0
VERTEX
  5
1b2
  8
Layer_0
  10
538.75311
  20
251.77621
  0
VERTEX
  5
1b3
  8
Layer_0
  10
538.45898
  20
251.79059
  0
VERTEX
  5
1b4
  8
Layer_0
  10
538.16779
  20
251.8338
  0
VERTEX
  5
1b5
  8
Layer_0
  10
537.8822
  20
251.9054
  0
VERTEX
  5
1b6
  8
Layer_0
  10
537.60498
  20
252.00452
  0
VERTEX
  5
1b7
  8
Layer_0
  10
537.33887
  20
252.1304
  0
VERTEX
  5
1b8
  8
Layer_0
  10
537.08643
  20
252.2818
  0
VERTEX
  5
1b9
  8
Layer_0
  10
536.84991
  20
252.45721
  0
VERTEX
  5
1ba
  8
Layer_0
  10
536.63184
  20
252.65491
  0
VERTEX
  5
1bb
  8
Layer_0
  10
536.43408
  20
252.87302
  0
VERTEX
  5
1bc
  8
Layer_0
  10
536.25867
  20
253.1095
  0
VERTEX
  5
1bd
  8
Layer_0
  10
536.1073
  20
253.362
  0
VERTEX
  5
1be
  8
Layer_0
  10
535.98151
  20
253.62811
  0
VERTEX
  5
1bf
  8
Layer_0
  10
535.88232
  20
253.9053
  0
VERTEX
  5
1c0
  8
Layer_0
  10
535.81067
  20
254.19092
  0
VERTEX
  5
1c1
  8
Layer_0
  10
535.76752
  20
254.48212
  0
VERTEX
  5
1c2
  8
Layer_0
  10
535.75311
  20
254.77762
  0
VERTEX
  5
1c3
  8
Layer_0
  10
535.73871
  20
255.1011
  0
VERTEX
  5
1c4
  8
Layer_0
  10
535.70349
  20
255.4216
  0
VERTEX
  5
1c5
  8
Layer_0
  10
535.64783
  20
255.7392
  0
VERTEX
  5
1c6
  8
Layer_0
  10
535.57172
  20
256.05249
  0
VERTEX
  5
1c7
  8
Layer_0
  10
535.47552
  20
256.36029
  0
VERTEX
  5
1c8
  8
Layer_0
  10
535.3598
  20
256.66119
  0
VERTEX
  5
1c9
  8
Layer_0
  10
535.22479
  20
256.95401
  0
VERTEX
  5
1ca
  8
Layer_0
  10
535.07129
  20
257.23752
  0
VERTEX
  5
1cb
  8
Layer_0
  10
534.89978
  20
257.51062
  0
VERTEX
  5
1cc
  8
Layer_0
  10
534.71112
  20
257.772
  0
VERTEX
  5
1cd
  8
Layer_0
  10
534.50598
  20
258.02069
  0
VERTEX
  5
1ce
  8
Layer_0
  10
534.28522
  20
258.25571
  0
VERTEX
  5
1cf
  8
Layer_0
  10
534.04968
  20
258.47601
  0
VERTEX
  5
1d0
  8
Layer_0
  10
533.8006
  20
258.6806
  0
VERTEX
  5
1d1
  8
Layer_0
  10
533.5387
  20
258.8688
  0
VERTEX
  5
1d2
  8
Layer_0
  10
533.26532
  20
259.03961
  0
VERTEX
  5
1d3
  8
Layer_0
  10
524.68079
  20
264.02722
  0
VERTEX
  5
1d4
  8
Layer_0
  10
498.49652
  20
267.43372
  0
VERTEX
  5
1d5
  8
Layer_0
  10
497.32281
  20
267.57541
  0
VERTEX
  5
1d6
  8
Layer_0
  10
496.14621
  20
267.6893
  0
VERTEX
  5
1d7
  8
Layer_0
  10
494.96719
  20
267.77539
  0
VERTEX
  5
1d8
  8
Layer_0
  10
493.78641
  20
267.83362
  0
VERTEX
  5
1d9
  8
Layer_0
  10
492.60461
  20
267.86389
  0
VERTEX
  5
1da
  8
Layer_0
  10
491.42249
  20
267.86621
  0
VERTEX
  5
1db
  8
Layer_0
  10
490.2406
  20
267.84052
  0
VERTEX
  5
1dc
  8
Layer_0
  10
489.0596
  20
267.78702
  0
VERTEX
  5
1dd
  8
Layer_0
  10
487.88031
  20
267.70551
  0
VERTEX
  5
1de
  8
Layer_0
  10
486.70319
  20
267.59619
  0
VERTEX
  5
1df
  8
Layer_0
  10
485.52899
  20
267.45901
  0
VERTEX
  5
1e0
  8
Layer_0
  10
484.3584
  20
267.29419
  0
VERTEX
  5
1e1
  8
Layer_0
  10
483.19202
  20
267.10172
  0
VERTEX
  5
1e2
  8
Layer_0
  10
482.03052
  20
266.88171
  0
VERTEX
  5
1e3
  8
Layer_0
  10
480.87451
  20
266.63431
  0
VERTEX
  5
1e4
  8
Layer_0
  10
479.7247
  20
266.35962
  0
VERTEX
  5
1e5
  8
Layer_0
  10
479.69119
  20
266.35132
  0
VERTEX
  5
1e6
  8
Layer_0
  10
479.65759
  20
266.3432
  0
VERTEX
  5
1e7
  8
Layer_0
  10
479.62399
  20
266.3353
  0
VERTEX
  5
1e8
  8
Layer_0
  10
479.59021
  20
266.32751
  0
VERTEX
  5
1e9
  8
Layer_0
  10
479.5564
  20
266.31992
  0
VERTEX
  5
1ea
  8
Layer_0
  10
479.52252
  20
266.3125
  0
VERTEX
  5
1eb
  8
Layer_0
  10
479.48859
  20
266.30542
  0
VERTEX
  5
1ec
  8
Layer_0
  10
479.4545
  20
266.29831
  0
VERTEX
  5
1ed
  8
Layer_0
  10
479.42041
  20
266.2915
  0
VERTEX
  5
1ee
  8
Layer_0
  10
479.3862
  20
266.28491
  0
VERTEX
  5
1ef
  8
Layer_0
  10
479.35199
  20
266.2785
  0
VERTEX
  5
1f0
  8
Layer_0
  10
479.3176
  20
266.27222
  0
VERTEX
  5
1f1
  8
Layer_0
  10
444.86481
  20
260.10413
  0
VERTEX
  5
1f2
  8
Layer_0
  10
444.20441
  20
260.0228
  0
VERTEX
  5
1f3
  8
Layer_0
  10
443.55249
  20
260.01431
  0
VERTEX
  5
1f4
  8
Layer_0
  10
442.91351
  20
260.0755
  0
VERTEX
  5
1f5
  8
Layer_0
  10
442.29181
  20
260.20322
  0
VERTEX
  5
1f6
  8
Layer_0
  10
441.69202
  20
260.39441
  0
VERTEX
  5
1f7
  8
Layer_0
  10
441.11841
  20
260.646
  0
VERTEX
  5
1f8
  8
Layer_0
  10
440.5755
  20
260.9548
  0
VERTEX
  5
1f9
  8
Layer_0
  10
440.06781
  20
261.31769
  0
VERTEX
  5
1fa
  8
Layer_0
  10
439.59979
  20
261.73169
  0
VERTEX
  5
1fb
  8
Layer_0
  10
439.1759
  20
262.19373
  0
VERTEX
  5
1fc
  8
Layer_0
  10
438.80051
  20
262.70041
  0
VERTEX
  5
1fd
  8
Layer_0
  10
438.47821
  20
263.2489
  0
VERTEX
  5
1fe
  8
Layer_0
  10
437.87659
  20
264.31561
  0
VERTEX
  5
1ff
  8
Layer_0
  10
437.21091
  20
265.34341
  0
VERTEX
  5
200
  8
Layer_0
  10
436.4834
  20
266.32861
  0
VERTEX
  5
201
  8
Layer_0
  10
435.69711
  20
267.2673
  0
VERTEX
  5
202
  8
Layer_0
  10
434.8548
  20
268.15631
  0
VERTEX
  5
203
  8
Layer_0
  10
433.95959
  20
268.99191
  0
VERTEX
  5
204
  8
Layer_0
  10
433.01501
  20
269.7713
  0
VERTEX
  5
205
  8
Layer_0
  10
432.02451
  20
270.49139
  0
VERTEX
  5
206
  8
Layer_0
  10
430.9917
  20
271.14941
  0
VERTEX
  5
207
  8
Layer_0
  10
429.92059
  20
271.7431
  0
VERTEX
  5
208
  8
Layer_0
  10
428.81522
  20
272.27011
  0
VERTEX
  5
209
  8
Layer_0
  10
427.6796
  20
272.72839
  0
VERTEX
  5
20a
  8
Layer_0
  10
426.5181
  20
273.11639
  0
VERTEX
  5
20b
  8
Layer_0
  10
425.33499
  20
273.43262
  0
VERTEX
  5
20c
  8
Layer_0
  10
424.1348
  20
273.67581
  0
VERTEX
  5
20d
  8
Layer_0
  10
422.92191
  20
273.845
  0
VERTEX
  5
20e
  8
Layer_0
  10
422.7775
  20
273.8638
  0
VERTEX
  5
20f
  8
Layer_0
  10
422.63409
  20
273.88849
  0
VERTEX
  5
210
  8
Layer_0
  10
422.49191
  20
273.91919
  0
VERTEX
  5
211
  8
Layer_0
  10
422.3511
  20
273.95569
  0
VERTEX
  5
212
  8
Layer_0
  10
422.21179
  20
273.99811
  0
VERTEX
  5
213
  8
Layer_0
  10
422.07431
  20
274.04642
  0
VERTEX
  5
214
  8
Layer_0
  10
421.93869
  20
274.10031
  0
VERTEX
  5
215
  8
Layer_0
  10
421.80521
  20
274.16
  0
VERTEX
  5
216
  8
Layer_0
  10
421.67401
  20
274.2254
  0
VERTEX
  5
217
  8
Layer_0
  10
421.54529
  20
274.29651
  0
VERTEX
  5
218
  8
Layer_0
  10
421.41931
  20
274.37311
  0
VERTEX
  5
219
  8
Layer_0
  10
421.29611
  20
274.45532
  0
VERTEX
  5
21a
  8
Layer_0
  10
421.11081
  20
274.5946
  0
VERTEX
  5
21b
  8
Layer_0
  10
420.93591
  20
274.7449
  0
VERTEX
  5
21c
  8
Layer_0
  10
420.772
  20
274.90561
  0
VERTEX
  5
21d
  8
Layer_0
  10
420.61942
  20
275.07611
  0
VERTEX
  5
21e
  8
Layer_0
  10
420.47852
  20
275.25592
  0
VERTEX
  5
21f
  8
Layer_0
  10
420.3497
  20
275.44421
  0
VERTEX
  5
220
  8
Layer_0
  10
420.23349
  20
275.64063
  0
VERTEX
  5
221
  8
Layer_0
  10
420.13019
  20
275.84421
  0
VERTEX
  5
222
  8
Layer_0
  10
420.04019
  20
276.05472
  0
VERTEX
  5
223
  8
Layer_0
  10
419.9639
  20
276.2713
  0
VERTEX
  5
224
  8
Layer_0
  10
419.90179
  20
276.49341
  0
VERTEX
  5
225
  8
Layer_0
  10
419.8541
  20
276.7204
  0
VERTEX
  5
226
  8
Layer_0
  10
415.10001
  20
303.86081
  0
VERTEX
  5
227
  8
Layer_0
  10
414.048
  20
309.8609
  0
VERTEX
  5
228
  8
Layer_0
  10
412.21991
  20
320.30112
  0
VERTEX
  5
229
  8
Layer_0
  10
411.16791
  20
326.30112
  0
VERTEX
  5
22a
  8
Layer_0
  10
410.25391
  20
331.52121
  0
VERTEX
  5
22b
  8
Layer_0
  10
410.20599
  20
331.93631
  0
VERTEX
  5
22c
  8
Layer_0
  10
410.2074
  20
332.34531
  0
VERTEX
  5
22d
  8
Layer_0
  10
410.25562
  20
332.745
  0
VERTEX
  5
22e
  8
Layer_0
  10
410.34839
  20
333.13202
  0
VERTEX
  5
22f
  8
Layer_0
  10
410.48349
  20
333.5032
  0
VERTEX
  5
230
  8
Layer_0
  10
410.65869
  20
333.85532
  0
VERTEX
  5
231
  8
Layer_0
  10
410.87161
  20
334.185
  0
VERTEX
  5
232
  8
Layer_0
  10
411.12012
  20
334.48911
  0
VERTEX
  5
233
  8
Layer_0
  10
411.4017
  20
334.7644
  0
VERTEX
  5
234
  8
Layer_0
  10
411.71429
  20
335.00742
  0
VERTEX
  5
235
  8
Layer_0
  10
412.0556
  20
335.21521
  0
VERTEX
  5
236
  8
Layer_0
  10
412.42322
  20
335.38422
  0
VERTEX
  5
237
  8
Layer_0
  10
412.6629
  20
335.49341
  0
VERTEX
  5
238
  8
Layer_0
  10
412.89639
  20
335.6149
  0
VERTEX
  5
239
  8
Layer_0
  10
413.12329
  20
335.74872
  0
VERTEX
  5
23a
  8
Layer_0
  10
413.3428
  20
335.8942
  0
VERTEX
  5
23b
  8
Layer_0
  10
413.55429
  20
336.05099
  0
VERTEX
  5
23c
  8
Layer_0
  10
413.75729
  20
336.21881
  0
VERTEX
  5
23d
  8
Layer_0
  10
413.95111
  20
336.397
  0
VERTEX
  5
23e
  8
Layer_0
  10
414.13531
  20
336.58511
  0
VERTEX
  5
23f
  8
Layer_0
  10
414.30942
  20
336.78271
  0
VERTEX
  5
240
  8
Layer_0
  10
414.47281
  20
336.9892
  0
VERTEX
  5
241
  8
Layer_0
  10
414.62509
  20
337.2041
  0
VERTEX
  5
242
  8
Layer_0
  10
414.76581
  20
337.42661
  0
VERTEX
  5
243
  8
Layer_0
  10
414.89471
  20
337.65622
  0
VERTEX
  5
244
  8
Layer_0
  10
415.01129
  20
337.8923
  0
VERTEX
  5
245
  8
Layer_0
  10
415.1153
  20
338.13422
  0
VERTEX
  5
246
  8
Layer_0
  10
415.20639
  20
338.38132
  0
VERTEX
  5
247
  8
Layer_0
  10
415.28979
  20
338.599
  0
VERTEX
  5
248
  8
Layer_0
  10
415.38989
  20
338.8096
  0
VERTEX
  5
249
  8
Layer_0
  10
415.50601
  20
339.01181
  0
VERTEX
  5
24a
  8
Layer_0
  10
415.63751
  20
339.20432
  0
VERTEX
  5
24b
  8
Layer_0
  10
415.78351
  20
339.38611
  0
VERTEX
  5
24c
  8
Layer_0
  10
415.94321
  20
339.55591
  0
VERTEX
  5
24d
  8
Layer_0
  10
416.1156
  20
339.71292
  0
VERTEX
  5
24e
  8
Layer_0
  10
416.29971
  20
339.85602
  0
VERTEX
  5
24f
  8
Layer_0
  10
416.49429
  20
339.98431
  0
VERTEX
  5
250
  8
Layer_0
  10
416.69839
  20
340.0972
  0
VERTEX
  5
251
  8
Layer_0
  10
416.91049
  20
340.19391
  0
VERTEX
  5
252
  8
Layer_0
  10
417.12952
  20
340.2738
  0
VERTEX
  5
253
  8
Layer_0
  10
417.3541
  20
340.3364
  0
VERTEX
  5
254
  8
Layer_0
  10
417.58292
  20
340.38141
  0
VERTEX
  5
255
  8
Layer_0
  10
417.81439
  20
340.4086
  0
VERTEX
  5
256
  8
Layer_0
  10
418.04739
  20
340.4176
  0
VERTEX
  5
257
  8
Layer_0
  10
418.20831
  20
340.4133
  0
VERTEX
  5
258
  8
Layer_0
  10
418.36871
  20
340.40042
  0
VERTEX
  5
259
  8
Layer_0
  10
418.52811
  20
340.37891
  0
VERTEX
  5
25a
  8
Layer_0
  10
418.68622
  20
340.34882
  0
VERTEX
  5
25b
  8
Layer_0
  10
418.8425
  20
340.3103
  0
VERTEX
  5
25c
  8
Layer_0
  10
418.9964
  20
340.26361
  0
VERTEX
  5
25d
  8
Layer_0
  10
419.14771
  20
340.20862
  0
VERTEX
  5
25e
  8
Layer_0
  10
419.29572
  20
340.1456
  0
VERTEX
  5
25f
  8
Layer_0
  10
419.44022
  20
340.07471
  0
VERTEX
  5
260
  8
Layer_0
  10
419.58069
  20
339.99622
  0
VERTEX
  5
261
  8
Layer_0
  10
419.71671
  20
339.91031
  0
VERTEX
  5
262
  8
Layer_0
  10
419.84799
  20
339.8172
  0
VERTEX
  5
263
  8
Layer_0
  10
419.974
  20
339.71719
  0
VERTEX
  5
264
  8
Layer_0
  10
420.0946
  20
339.6106
  0
VERTEX
  5
265
  8
Layer_0
  10
420.2092
  20
339.49771
  0
VERTEX
  5
266
  8
Layer_0
  10
420.3176
  20
339.37881
  0
VERTEX
  5
267
  8
Layer_0
  10
420.53702
  20
339.13901
  0
VERTEX
  5
268
  8
Layer_0
  10
420.77139
  20
338.914
  0
VERTEX
  5
269
  8
Layer_0
  10
421.02002
  20
338.70471
  0
VERTEX
  5
26a
  8
Layer_0
  10
421.28171
  20
338.5119
  0
VERTEX
  5
26b
  8
Layer_0
  10
421.5553
  20
338.33661
  0
VERTEX
  5
26c
  8
Layer_0
  10
421.83981
  20
338.1795
  0
VERTEX
  5
26d
  8
Layer_0
  10
422.13379
  20
338.04111
  0
VERTEX
  5
26e
  8
Layer_0
  10
422.43622
  20
337.92212
  0
VERTEX
  5
26f
  8
Layer_0
  10
422.7457
  20
337.82312
  0
VERTEX
  5
270
  8
Layer_0
  10
423.061
  20
337.74429
  0
VERTEX
  5
271
  8
Layer_0
  10
423.38071
  20
337.68622
  0
VERTEX
  5
272
  8
Layer_0
  10
423.70361
  20
337.64902
  0
VERTEX
  5
273
  8
Layer_0
  10
424.02811
  20
337.63281
  0
VERTEX
  5
274
  8
Layer_0
  10
424.35309
  20
337.63782
  0
VERTEX
  5
275
  8
Layer_0
  10
424.677
  20
337.66391
  0
VERTEX
  5
276
  8
Layer_0
  10
424.9985
  20
337.71091
  0
VERTEX
  5
277
  8
Layer_0
  10
452.50189
  20
342.6524
  0
VERTEX
  5
278
  8
Layer_0
  10
452.50189
  20
343.52542
  0
VERTEX
  5
279
  8
Layer_0
  10
452.53021
  20
343.97162
  0
VERTEX
  5
27a
  8
Layer_0
  10
452.61279
  20
344.40161
  0
VERTEX
  5
27b
  8
Layer_0
  10
452.7464
  20
344.8119
  0
VERTEX
  5
27c
  8
Layer_0
  10
452.92761
  20
345.19881
  0
VERTEX
  5
27d
  8
Layer_0
  10
453.15311
  20
345.5585
  0
VERTEX
  5
27e
  8
Layer_0
  10
453.41962
  20
345.8876
  0
VERTEX
  5
27f
  8
Layer_0
  10
453.72369
  20
346.18221
  0
VERTEX
  5
280
  8
Layer_0
  10
454.06201
  20
346.43881
  0
VERTEX
  5
281
  8
Layer_0
  10
454.43121
  20
346.6537
  0
VERTEX
  5
282
  8
Layer_0
  10
454.828
  20
346.82321
  0
VERTEX
  5
283
  8
Layer_0
  10
455.24911
  20
346.94371
  0
VERTEX
  5
284
  8
Layer_0
  10
455.69101
  20
347.01151
  0
VERTEX
  5
285
  8
Layer_0
  10
475.35251
  20
348.77151
  0
VERTEX
  5
286
  8
Layer_0
  10
475.35251
  20
349.75151
  0
VERTEX
  5
287
  8
Layer_0
  10
475.3891
  20
350.29431
  0
VERTEX
  5
288
  8
Layer_0
  10
475.49542
  20
350.8148
  0
VERTEX
  5
289
  8
Layer_0
  10
475.6669
  20
351.3085
  0
VERTEX
  5
28a
  8
Layer_0
  10
475.89871
  20
351.7704
  0
VERTEX
  5
28b
  8
Layer_0
  10
476.186
  20
352.1958
  0
VERTEX
  5
28c
  8
Layer_0
  10
476.5242
  20
352.57991
  0
VERTEX
  5
28d
  8
Layer_0
  10
476.90839
  20
352.91811
  0
VERTEX
  5
28e
  8
Layer_0
  10
477.3338
  20
353.20541
  0
VERTEX
  5
28f
  8
Layer_0
  10
477.79572
  20
353.43721
  0
VERTEX
  5
290
  8
Layer_0
  10
478.28931
  20
353.6087
  0
VERTEX
  5
291
  8
Layer_0
  10
478.80991
  20
353.7151
  0
VERTEX
  5
292
  8
Layer_0
  10
479.3526
  20
353.7516
  0
VERTEX
  5
293
  8
Layer_0
  10
481.02139
  20
353.75101
  0
VERTEX
  5
294
  8
Layer_0
  10
481.3544
  20
353.76291
  0
VERTEX
  5
295
  8
Layer_0
  10
481.68579
  20
353.79691
  0
VERTEX
  5
296
  8
Layer_0
  10
482.01422
  20
353.85291
  0
VERTEX
  5
297
  8
Layer_0
  10
482.3382
  20
353.93071
  0
VERTEX
  5
298
  8
Layer_0
  10
482.65631
  20
354.0298
  0
VERTEX
  5
299
  8
Layer_0
  10
482.96701
  20
354.15001
  0
VERTEX
  5
29a
  8
Layer_0
  10
483.2691
  20
354.29051
  0
VERTEX
  5
29b
  8
Layer_0
  10
483.56122
  20
354.45091
  0
VERTEX
  5
29c
  8
Layer_0
  10
483.84192
  20
354.63031
  0
VERTEX
  5
29d
  8
Layer_0
  10
484.10999
  20
354.82811
  0
VERTEX
  5
29e
  8
Layer_0
  10
484.36441
  20
355.04321
  0
VERTEX
  5
29f
  8
Layer_0
  10
484.60391
  20
355.2749
  0
VERTEX
  5
2a0
  8
Layer_0
  10
484.82739
  20
355.52191
  0
VERTEX
  5
2a1
  8
Layer_0
  10
485.034
  20
355.78331
  0
VERTEX
  5
2a2
  8
Layer_0
  10
485.22272
  20
356.05791
  0
VERTEX
  5
2a3
  8
Layer_0
  10
485.3927
  20
356.34441
  0
VERTEX
  5
2a4
  8
Layer_0
  10
485.4949
  20
356.51671
  0
VERTEX
  5
2a5
  8
Layer_0
  10
485.6084
  20
356.68181
  0
VERTEX
  5
2a6
  8
Layer_0
  10
485.7327
  20
356.83891
  0
VERTEX
  5
2a7
  8
Layer_0
  10
485.86719
  20
356.98741
  0
VERTEX
  5
2a8
  8
Layer_0
  10
486.0112
  20
357.1266
  0
VERTEX
  5
2a9
  8
Layer_0
  10
486.16431
  20
357.25581
  0
VERTEX
  5
2aa
  8
Layer_0
  10
486.32562
  20
357.3746
  0
VERTEX
  5
2ab
  8
Layer_0
  10
486.49451
  20
357.4823
  0
VERTEX
  5
2ac
  8
Layer_0
  10
486.67029
  20
357.57851
  0
VERTEX
  5
2ad
  8
Layer_0
  10
486.85199
  20
357.66281
  0
VERTEX
  5
2ae
  8
Layer_0
  10
487.039
  20
357.73471
  0
VERTEX
  5
2af
  8
Layer_0
  10
487.23029
  20
357.79401
  0
VERTEX
  5
2b0
  8
Layer_0
  10
487.4252
  20
357.84041
  0
VERTEX
  5
2b1
  8
Layer_0
  10
487.6228
  20
357.8737
  0
VERTEX
  5
2b2
  8
Layer_0
  10
487.82211
  20
357.89381
  0
VERTEX
  5
2b3
  8
Layer_0
  10
488.02231
  20
357.90051
  0
VERTEX
  5
2b4
  8
Layer_0
  10
488.22391
  20
357.89371
  0
VERTEX
  5
2b5
  8
Layer_0
  10
488.42471
  20
357.87331
  0
VERTEX
  5
2b6
  8
Layer_0
  10
488.6236
  20
357.8396
  0
VERTEX
  5
2b7
  8
Layer_0
  10
488.81979
  20
357.79251
  0
VERTEX
  5
2b8
  8
Layer_0
  10
489.0123
  20
357.73241
  0
VERTEX
  5
2b9
  8
Layer_0
  10
489.20041
  20
357.65941
  0
VERTEX
  5
2ba
  8
Layer_0
  10
489.38321
  20
357.57401
  0
VERTEX
  5
2bb
  8
Layer_0
  10
489.55981
  20
357.4765
  0
VERTEX
  5
2bc
  8
Layer_0
  10
489.72949
  20
357.36731
  0
VERTEX
  5
2bd
  8
Layer_0
  10
489.89151
  20
357.24701
  0
VERTEX
  5
2be
  8
Layer_0
  10
490.04492
  20
357.1161
  0
VERTEX
  5
2bf
  8
Layer_0
  10
490.1893
  20
356.97511
  0
VERTEX
  5
2c0
  8
Layer_0
  10
490.32379
  20
356.82481
  0
VERTEX
  5
2c1
  8
Layer_0
  10
490.448
  20
356.66571
  0
VERTEX
  5
2c2
  8
Layer_0
  10
490.5611
  20
356.4987
  0
VERTEX
  5
2c3
  8
Layer_0
  10
490.66281
  20
356.3244
  0
VERTEX
  5
2c4
  8
Layer_0
  10
490.8338
  20
356.03922
  0
VERTEX
  5
2c5
  8
Layer_0
  10
491.02332
  20
355.76601
  0
VERTEX
  5
2c6
  8
Layer_0
  10
491.23059
  20
355.50601
  0
VERTEX
  5
2c7
  8
Layer_0
  10
491.45471
  20
355.26031
  0
VERTEX
  5
2c8
  8
Layer_0
  10
491.6947
  20
355.03011
  0
VERTEX
  5
2c9
  8
Layer_0
  10
491.9494
  20
354.81631
  0
VERTEX
  5
2ca
  8
Layer_0
  10
492.2178
  20
354.6199
  0
VERTEX
  5
2cb
  8
Layer_0
  10
492.4986
  20
354.44191
  0
VERTEX
  5
2cc
  8
Layer_0
  10
492.79071
  20
354.28281
  0
VERTEX
  5
2cd
  8
Layer_0
  10
493.09271
  20
354.1436
  0
VERTEX
  5
2ce
  8
Layer_0
  10
493.4032
  20
354.0247
  0
VERTEX
  5
2cf
  8
Layer_0
  10
493.72101
  20
353.92671
  0
VERTEX
  5
2d0
  8
Layer_0
  10
494.04462
  20
353.85011
  0
VERTEX
  5
2d1
  8
Layer_0
  10
494.37262
  20
353.79521
  0
VERTEX
  5
2d2
  8
Layer_0
  10
494.70349
  20
353.7621
  0
VERTEX
  5
2d3
  8
Layer_0
  10
495.0358
  20
353.75121
  0
VERTEX
  5
2d4
  8
Layer_0
  10
496.35309
  20
353.7516
  0
VERTEX
  5
2d5
  8
Layer_0
  10
496.7327
  20
353.73361
  0
VERTEX
  5
2d6
  8
Layer_0
  10
497.10461
  20
353.68051
  0
VERTEX
  5
2d7
  8
Layer_0
  10
497.4668
  20
353.59351
  0
VERTEX
  5
2d8
  8
Layer_0
  10
497.8172
  20
353.474
  0
VERTEX
  5
2d9
  8
Layer_0
  10
498.15381
  20
353.3233
  0
VERTEX
  5
2da
  8
Layer_0
  10
498.47449
  20
353.14261
  0
VERTEX
  5
2db
  8
Layer_0
  10
498.77731
  20
352.93321
  0
VERTEX
  5
2dc
  8
Layer_0
  10
499.06
  20
352.6965
  0
VERTEX
  5
2dd
  8
Layer_0
  10
499.3208
  20
352.43361
  0
VERTEX
  5
2de
  8
Layer_0
  10
499.5574
  20
352.14601
  0
VERTEX
  5
2df
  8
Layer_0
  10
499.76791
  20
351.8349
  0
VERTEX
  5
2e0
  8
Layer_0
  10
499.9502
  20
351.50151
  0
VERTEX
  5
2e1
  8
Layer_0
  10
515.35364
  20
351.50151
  0
VERTEX
  5
2e2
  8
Layer_0
  10
515.75702
  20
351.4812
  0
VERTEX
  5
2e3
  8
Layer_0
  10
516.15143
  20
351.4214
  0
VERTEX
  5
2e4
  8
Layer_0
  10
516.53412
  20
351.32361
  0
VERTEX
  5
2e5
  8
Layer_0
  10
516.90289
  20
351.18951
  0
VERTEX
  5
2e6
  8
Layer_0
  10
517.25531
  20
351.02071
  0
VERTEX
  5
2e7
  8
Layer_0
  10
517.58893
  20
350.8188
  0
VERTEX
  5
2e8
  8
Layer_0
  10
517.90118
  20
350.5854
  0
VERTEX
  5
2e9
  8
Layer_0
  10
518.19
  20
350.32231
  0
VERTEX
  5
2ea
  8
Layer_0
  10
518.4527
  20
350.03091
  0
VERTEX
  5
2eb
  8
Layer_0
  10
518.68701
  20
349.71291
  0
VERTEX
  5
2ec
  8
Layer_0
  10
518.8905
  20
349.3699
  0
VERTEX
  5
2ed
  8
Layer_0
  10
519.06073
  20
349.00351
  0
VERTEX
  5
2ee
  8
Layer_0
  10
544.10199
  20
349.0184
  0
VERTEX
  5
2ef
  8
Layer_0
  10
544.41632
  20
349.02701
  0
VERTEX
  5
2f0
  8
Layer_0
  10
544.72937
  20
349.0554
  0
VERTEX
  5
2f1
  8
Layer_0
  10
545.0401
  20
349.1035
  0
VERTEX
  5
2f2
  8
Layer_0
  10
545.34717
  20
349.17101
  0
VERTEX
  5
2f3
  8
Layer_0
  10
545.64954
  20
349.2576
  0
VERTEX
  5
2f4
  8
Layer_0
  10
545.94568
  20
349.36311
  0
VERTEX
  5
2f5
  8
Layer_0
  10
546.23474
  20
349.48691
  0
VERTEX
  5
2f6
  8
Layer_0
  10
546.51532
  20
349.62871
  0
VERTEX
  5
2f7
  8
Layer_0
  10
546.7865
  20
349.7879
  0
VERTEX
  5
2f8
  8
Layer_0
  10
547.04712
  20
349.96381
  0
VERTEX
  5
2f9
  8
Layer_0
  10
547.2962
  20
350.1557
  0
VERTEX
  5
2fa
  8
Layer_0
  10
547.53271
  20
350.36292
  0
VERTEX
  5
2fb
  8
Layer_0
  10
547.75574
  20
350.5845
  0
VERTEX
  5
2fc
  8
Layer_0
  10
547.96429
  20
350.81981
  0
VERTEX
  5
2fd
  8
Layer_0
  10
548.15784
  20
351.06761
  0
VERTEX
  5
2fe
  8
Layer_0
  10
548.33521
  20
351.32721
  0
VERTEX
  5
2ff
  8
Layer_0
  10
548.44128
  20
351.4823
  0
VERTEX
  5
300
  8
Layer_0
  10
548.55688
  20
351.63051
  0
VERTEX
  5
301
  8
Layer_0
  10
548.68152
  20
351.77121
  0
VERTEX
  5
302
  8
Layer_0
  10
548.8147
  20
351.90381
  0
VERTEX
  5
303
  8
Layer_0
  10
548.95593
  20
352.0278
  0
VERTEX
  5
304
  8
Layer_0
  10
549.10461
  20
352.1427
  0
VERTEX
  5
305
  8
Layer_0
  10
549.26019
  20
352.24811
  0
VERTEX
  5
306
  8
Layer_0
  10
549.42212
  20
352.34351
  0
VERTEX
  5
307
  8
Layer_0
  10
549.58972
  20
352.4286
  0
VERTEX
  5
308
  8
Layer_0
  10
549.76233
  20
352.50301
  0
VERTEX
  5
309
  8
Layer_0
  10
549.93909
  20
352.56651
  0
VERTEX
  5
30a
  8
Layer_0
  10
550.11963
  20
352.6188
  0
VERTEX
  5
30b
  8
Layer_0
  10
550.3031
  20
352.65971
  0
VERTEX
  5
30c
  8
Layer_0
  10
550.48871
  20
352.68901
  0
VERTEX
  5
30d
  8
Layer_0
  10
550.67578
  20
352.7066
  0
VERTEX
  5
30e
  8
Layer_0
  10
550.86359
  20
352.71251
  0
VERTEX
  5
30f
  8
Layer_0
  10
551.06268
  20
352.7059
  0
VERTEX
  5
310
  8
Layer_0
  10
551.26093
  20
352.68611
  0
VERTEX
  5
311
  8
Layer_0
  10
551.4574
  20
352.65321
  0
VERTEX
  5
312
  8
Layer_0
  10
551.65118
  20
352.6073
  0
VERTEX
  5
313
  8
Layer_0
  10
551.84161
  20
352.54861
  0
VERTEX
  5
314
  8
Layer_0
  10
552.02759
  20
352.47751
  0
VERTEX
  5
315
  8
Layer_0
  10
552.20862
  20
352.3941
  0
VERTEX
  5
316
  8
Layer_0
  10
552.38361
  20
352.29901
  0
VERTEX
  5
317
  8
Layer_0
  10
552.55188
  20
352.19241
  0
VERTEX
  5
318
  8
Layer_0
  10
552.71271
  20
352.07491
  0
VERTEX
  5
319
  8
Layer_0
  10
552.86542
  20
351.94701
  0
VERTEX
  5
31a
  8
Layer_0
  10
553.00928
  20
351.8092
  0
VERTEX
  5
31b
  8
Layer_0
  10
553.14368
  20
351.6622
  0
VERTEX
  5
31c
  8
Layer_0
  10
553.26801
  20
351.50661
  0
VERTEX
  5
31d
  8
Layer_0
  10
553.38184
  20
351.34311
  0
VERTEX
  5
31e
  8
Layer_0
  10
553.4845
  20
351.17241
  0
VERTEX
  5
31f
  8
Layer_0
  10
553.63348
  20
350.92101
  0
VERTEX
  5
320
  8
Layer_0
  10
553.797
  20
350.6788
  0
VERTEX
  5
321
  8
Layer_0
  10
553.97443
  20
350.4465
  0
VERTEX
  5
322
  8
Layer_0
  10
554.1651
  20
350.22501
  0
VERTEX
  5
323
  8
Layer_0
  10
554.36841
  20
350.01511
  0
VERTEX
  5
324
  8
Layer_0
  10
554.5835
  20
349.81731
  0
VERTEX
  5
325
  8
Layer_0
  10
554.80994
  20
349.63251
  0
VERTEX
  5
326
  8
Layer_0
  10
555.04669
  20
349.46121
  0
VERTEX
  5
327
  8
Layer_0
  10
555.29309
  20
349.304
  0
VERTEX
  5
328
  8
Layer_0
  10
555.54834
  20
349.1615
  0
VERTEX
  5
329
  8
Layer_0
  10
555.81128
  20
349.0341
  0
VERTEX
  5
32a
  8
Layer_0
  10
556.08142
  20
348.92241
  0
VERTEX
  5
32b
  8
Layer_0
  10
556.35748
  20
348.8266
  0
VERTEX
  5
32c
  8
Layer_0
  10
556.63867
  20
348.7471
  0
VERTEX
  5
32d
  8
Layer_0
  10
556.92407
  20
348.6842
  0
VERTEX
  5
32e
  8
Layer_0
  10
557.21271
  20
348.638
  0
VERTEX
  5
32f
  8
Layer_0
  10
572.13202
  20
346.69751
  0
VERTEX
  5
330
  8
Layer_0
  10
582.35229
  20
346.69751
  0
VERTEX
  5
331
  8
Layer_0
  10
582.78479
  20
346.6743
  0
VERTEX
  5
332
  8
Layer_0
  10
583.20398
  20
346.60661
  0
VERTEX
  5
333
  8
Layer_0
  10
583.60742
  20
346.49651
  0
VERTEX
  5
334
  8
Layer_0
  10
583.99268
  20
346.3466
  0
VERTEX
  5
335
  8
Layer_0
  10
584.35748
  20
346.15921
  0
VERTEX
  5
336
  8
Layer_0
  10
584.6994
  20
345.93661
  0
VERTEX
  5
337
  8
Layer_0
  10
585.01599
  20
345.68141
  0
VERTEX
  5
338
  8
Layer_0
  10
585.30499
  20
345.39581
  0
VERTEX
  5
339
  8
Layer_0
  10
585.56378
  20
345.08221
  0
VERTEX
  5
33a
  8
Layer_0
  10
585.79028
  20
344.7431
  0
VERTEX
  5
33b
  8
Layer_0
  10
585.98193
  20
344.38081
  0
VERTEX
  5
33c
  8
Layer_0
  10
586.13623
  20
343.9978
  0
VERTEX
  5
33d
  8
Layer_0
  10
586.21313
  20
343.7923
  0
VERTEX
  5
33e
  8
Layer_0
  10
586.29901
  20
343.59052
  0
VERTEX
  5
33f
  8
Layer_0
  10
586.39362
  20
343.39261
  0
VERTEX
  5
340
  8
Layer_0
  10
586.4967
  20
343.1991
  0
VERTEX
  5
341
  8
Layer_0
  10
586.60828
  20
343.01031
  0
VERTEX
  5
342
  8
Layer_0
  10
586.72809
  20
342.82651
  0
VERTEX
  5
343
  8
Layer_0
  10
586.85583
  20
342.64819
  0
VERTEX
  5
344
  8
Layer_0
  10
586.99121
  20
342.47571
  0
VERTEX
  5
345
  8
Layer_0
  10
587.13403
  20
342.3092
  0
VERTEX
  5
346
  8
Layer_0
  10
587.284
  20
342.1492
  0
VERTEX
  5
347
  8
Layer_0
  10
587.4408
  20
341.99591
  0
VERTEX
  5
348
  8
Layer_0
  10
587.60431
  20
341.84961
  0
VERTEX
  5
349
  8
Layer_0
  10
587.77399
  20
341.71069
  0
VERTEX
  5
34a
  8
Layer_0
  10
587.94958
  20
341.57932
  0
VERTEX
  5
34b
  8
Layer_0
  10
588.1308
  20
341.45581
  0
VERTEX
  5
34c
  8
Layer_0
  10
588.31732
  20
341.3403
  0
VERTEX
  5
34d
  8
Layer_0
  10
588.48169
  20
341.23611
  0
VERTEX
  5
34e
  8
Layer_0
  10
588.63892
  20
341.1214
  0
VERTEX
  5
34f
  8
Layer_0
  10
588.78839
  20
340.9968
  0
VERTEX
  5
350
  8
Layer_0
  10
588.92963
  20
340.8627
  0
VERTEX
  5
351
  8
Layer_0
  10
589.06171
  20
340.71982
  0
VERTEX
  5
352
  8
Layer_0
  10
589.18433
  20
340.5687
  0
VERTEX
  5
353
  8
Layer_0
  10
589.29681
  20
340.40991
  0
VERTEX
  5
354
  8
Layer_0
  10
589.3988
  20
340.24411
  0
VERTEX
  5
355
  8
Layer_0
  10
589.48981
  20
340.07211
  0
VERTEX
  5
356
  8
Layer_0
  10
589.56952
  20
339.8945
  0
VERTEX
  5
357
  8
Layer_0
  10
589.63751
  20
339.7121
  0
VERTEX
  5
358
  8
Layer_0
  10
589.69348
  20
339.5257
  0
VERTEX
  5
359
  8
Layer_0
  10
589.7373
  20
339.33612
  0
VERTEX
  5
35a
  8
Layer_0
  10
589.76868
  20
339.14401
  0
VERTEX
  5
35b
  8
Layer_0
  10
589.78772
  20
338.95032
  0
VERTEX
  5
35c
  8
Layer_0
  10
589.79401
  20
338.7558
  0
VERTEX
  5
35d
  8
Layer_0
  10
589.78851
  20
338.57532
  0
VERTEX
  5
35e
  8
Layer_0
  10
589.77234
  20
338.39551
  0
VERTEX
  5
35f
  8
Layer_0
  10
589.74524
  20
338.21701
  0
VERTEX
  5
360
  8
Layer_0
  10
589.7074
  20
338.04041
  0
VERTEX
  5
361
  8
Layer_0
  10
589.65912
  20
337.86639
  0
VERTEX
  5
362
  8
Layer_0
  10
589.6004
  20
337.69571
  0
VERTEX
  5
363
  8
Layer_0
  10
589.53162
  20
337.52881
  0
VERTEX
  5
364
  8
Layer_0
  10
589.45282
  20
337.3663
  0
VERTEX
  5
365
  8
Layer_0
  10
589.36438
  20
337.20889
  0
VERTEX
  5
366
  8
Layer_0
  10
589.26672
  20
337.05701
  0
VERTEX
  5
367
  8
Layer_0
  10
589.16003
  20
336.91141
  0
VERTEX
  5
368
  8
Layer_0
  10
589.0448
  20
336.7724
  0
VERTEX
  5
369
  8
Layer_0
  10
588.92139
  20
336.64059
  0
VERTEX
  5
36a
  8
Layer_0
  10
588.79028
  20
336.51642
  0
VERTEX
  5
36b
  8
Layer_0
  10
588.65192
  20
336.40042
  0
VERTEX
  5
36c
  8
Layer_0
  10
588.5069
  20
336.29291
  0
VERTEX
  5
36d
  8
Layer_0
  10
588.26477
  20
336.11362
  0
VERTEX
  5
36e
  8
Layer_0
  10
588.034
  20
335.92001
  0
VERTEX
  5
36f
  8
Layer_0
  10
587.81519
  20
335.71301
  0
VERTEX
  5
370
  8
Layer_0
  10
587.60931
  20
335.4931
  0
VERTEX
  5
371
  8
Layer_0
  10
587.41711
  20
335.2612
  0
VERTEX
  5
372
  8
Layer_0
  10
587.23914
  20
335.0181
  0
VERTEX
  5
373
  8
Layer_0
  10
587.07611
  20
334.7648
  0
VERTEX
  5
374
  8
Layer_0
  10
586.92871
  20
334.50211
  0
VERTEX
  5
375
  8
Layer_0
  10
586.7973
  20
334.23111
  0
VERTEX
  5
376
  8
Layer_0
  10
586.6825
  20
333.95261
  0
VERTEX
  5
377
  8
Layer_0
  10
586.58472
  20
333.66769
  0
VERTEX
  5
378
  8
Layer_0
  10
586.50421
  20
333.37741
  0
VERTEX
  5
379
  8
Layer_0
  10
586.44128
  20
333.08279
  0
VERTEX
  5
37a
  8
Layer_0
  10
586.3963
  20
332.785
  0
VERTEX
  5
37b
  8
Layer_0
  10
586.36932
  20
332.48489
  0
VERTEX
  5
37c
  8
Layer_0
  10
586.36047
  20
332.18381
  0
VERTEX
  5
37d
  8
Layer_0
  10
586.36243
  20
329.32422
  0
VERTEX
  5
37e
  8
Layer_0
  10
586.39191
  20
290.8475
  0
VERTEX
  5
37f
  8
Layer_0
  10
586.39795
  20
288.34805
  0
SEQEND
  0
ENDSEC
  0
EOF
