0
SECTION
2
ENTITIES
0
LINE
8
0
10
100.4077
20
-13.5731
30
0.0
11
101.0855
21
-13.6309
31
0.0
0
LINE
8
0
10
101.0855
20
-13.6309
30
0.0
11
101.8042
21
-13.8248
31
0.0
0
LINE
8
0
10
101.8042
20
-13.8248
30
0.0
11
102.5739
21
-14.2105
31
0.0
0
LINE
8
0
10
102.5739
20
-14.2105
30
0.0
11
103.1726
21
-14.6825
31
0.0
0
LINE
8
0
10
103.1726
20
-14.6825
30
0.0
11
103.6484
21
-15.2281
31
0.0
0
LINE
8
0
10
103.6484
20
-15.2281
30
0.0
11
104.0048
21
-15.8232
31
0.0
0
LINE
8
0
10
100.4077
20
-13.5731
30
0.0
11
99.0904
21
-13.5735
31
0.0
0
ARC
8
0
10
99.0888
20
-8.5739
30
0.0
40
4.9997
50
209.0329
51
270.0184
0
ARC
8
0
10
92.0769
20
-12.4242
30
0.0
40
3.0000
50
28.3374
51
90.0000
0
ARC
8
0
10
92.0769
20
-12.4242
30
0.0
40
3.0000
50
90.0000
51
151.2282
0
ARC
8
0
10
85.0646
20
-8.5737
30
0.0
40
5.0000
50
270.1313
51
331.2282
0
LINE
8
0
10
85.0760
20
-13.5737
30
0.0
11
83.4072
21
-13.5731
31
0.0
0
LINE
8
0
10
79.4071
20
-17.5732
30
0.0
11
79.4189
21
-17.2646
31
0.0
0
LINE
8
0
10
79.4189
20
-17.2646
30
0.0
11
79.5495
21
-16.5119
31
0.0
0
LINE
8
0
10
79.5495
20
-16.5119
30
0.0
11
79.5679
21
-16.4471
31
0.0
0
LINE
8
0
10
79.5679
20
-16.4471
30
0.0
11
79.9337
21
-15.5882
31
0.0
0
LINE
8
0
10
79.9337
20
-15.5882
30
0.0
11
80.3730
21
-14.9667
31
0.0
0
LINE
8
0
10
80.3730
20
-14.9667
30
0.0
11
80.5788
21
-14.7448
31
0.0
0
LINE
8
0
10
80.5788
20
-14.7448
30
0.0
11
81.1679
21
-14.2582
31
0.0
0
LINE
8
0
10
81.1679
20
-14.2582
30
0.0
11
81.4223
21
-14.0997
31
0.0
0
LINE
8
0
10
81.4223
20
-14.0997
30
0.0
11
82.2811
21
-13.7338
31
0.0
0
LINE
8
0
10
82.2811
20
-13.7338
30
0.0
11
83.0264
21
-13.5910
31
0.0
0
LINE
8
0
10
83.0264
20
-13.5910
30
0.0
11
83.4072
21
-13.5731
31
0.0
0
LINE
8
0
10
79.4071
20
-17.5732
30
0.0
11
79.4071
21
-18.5532
31
0.0
0
LINE
8
0
10
79.4071
20
-18.5532
30
0.0
11
59.7456
21
-20.3132
31
0.0
0
LINE
8
0
10
56.5565
20
-23.7993
30
0.0
11
56.5649
21
-23.5566
31
0.0
0
LINE
8
0
10
56.5649
20
-23.5566
30
0.0
11
56.6629
21
-22.9408
31
0.0
0
LINE
8
0
10
56.6629
20
-22.9408
30
0.0
11
56.6705
21
-22.9113
31
0.0
0
LINE
8
0
10
56.6705
20
-22.9113
30
0.0
11
56.9549
21
-22.1770
31
0.0
0
LINE
8
0
10
56.9549
20
-22.1770
30
0.0
11
57.4742
21
-21.4371
31
0.0
0
LINE
8
0
10
57.4742
20
-21.4371
30
0.0
11
58.1651
21
-20.8541
31
0.0
0
LINE
8
0
10
58.1651
20
-20.8541
30
0.0
11
58.8712
21
-20.5056
31
0.0
0
LINE
8
0
10
58.8712
20
-20.5056
30
0.0
11
59.7456
21
-20.3132
31
0.0
0
LINE
8
0
10
56.5565
20
-23.7993
30
0.0
11
56.5565
21
-24.6723
31
0.0
0
LINE
8
0
10
56.5565
20
-24.6723
30
0.0
11
29.0531
21
-29.6138
31
0.0
0
ARC
8
0
10
28.1689
20
-24.6929
30
0.0
40
4.9997
50
220.5902
51
280.1865
0
ARC
8
0
10
22.1020
20
-29.9071
30
0.0
40
3.0000
50
40.8224
51
90.0000
0
ARC
8
0
10
22.1020
20
-29.9071
30
0.0
40
3.0000
50
90.0000
51
161.2628
0
ARC
8
0
10
14.5263
20
-27.3375
30
0.0
40
4.9996
50
292.9750
51
341.2638
0
LINE
8
0
10
14.3085
20
-35.8035
30
0.0
11
14.2727
21
-35.5439
31
0.0
0
LINE
8
0
10
14.2727
20
-35.5439
30
0.0
11
14.2727
21
-34.8471
31
0.0
0
LINE
8
0
10
14.2727
20
-34.8471
30
0.0
11
14.4558
21
-34.0317
31
0.0
0
LINE
8
0
10
14.4558
20
-34.0317
30
0.0
11
14.7606
21
-33.3888
31
0.0
0
LINE
8
0
10
14.7606
20
-33.3888
30
0.0
11
14.8978
21
-33.1792
31
0.0
0
LINE
8
0
10
14.8978
20
-33.1792
30
0.0
11
15.3674
21
-32.6407
31
0.0
0
LINE
8
0
10
15.3674
20
-32.6407
30
0.0
11
15.5323
21
-32.4959
31
0.0
0
LINE
8
0
10
15.5323
20
-32.4959
30
0.0
11
15.9829
21
-32.1808
31
0.0
0
LINE
8
0
10
15.9829
20
-32.1808
30
0.0
11
16.4778
21
-31.9405
31
0.0
0
LINE
8
0
10
14.3085
20
-35.8035
30
0.0
11
15.2225
21
-41.0236
31
0.0
0
LINE
8
0
10
15.2225
20
-41.0236
30
0.0
11
16.2745
21
-47.0236
31
0.0
0
LINE
8
0
10
16.2745
20
-47.0236
30
0.0
11
18.1026
21
-57.4638
31
0.0
0
LINE
8
0
10
18.1026
20
-57.4638
30
0.0
11
19.1546
21
-63.4639
31
0.0
0
LINE
8
0
10
19.1546
20
-63.4639
30
0.0
11
23.9087
21
-90.6043
31
0.0
0
LINE
8
0
10
25.3507
20
-92.8694
30
0.0
11
25.1424
21
-92.7115
31
0.0
0
LINE
8
0
10
25.1424
20
-92.7115
30
0.0
11
24.5310
21
-92.0659
31
0.0
0
LINE
8
0
10
24.5310
20
-92.0659
30
0.0
11
24.1695
21
-91.4472
31
0.0
0
LINE
8
0
10
24.1695
20
-91.4472
30
0.0
11
24.0125
21
-91.0342
31
0.0
0
LINE
8
0
10
24.0125
20
-91.0342
30
0.0
11
23.9087
21
-90.6043
31
0.0
0
LINE
8
0
10
26.9765
20
-93.4797
30
0.0
11
26.6317
21
-93.4246
31
0.0
0
LINE
8
0
10
26.6317
20
-93.4246
30
0.0
11
25.9531
21
-93.2071
31
0.0
0
LINE
8
0
10
25.9531
20
-93.2071
30
0.0
11
25.3507
21
-92.8694
31
0.0
0
ARC
8
0
10
24.8200
20
-113.3630
30
0.0
40
19.9999
50
27.6690
51
83.8099
0
LINE
8
0
10
48.9194
20
-107.2206
30
0.0
11
48.7286
21
-107.2516
31
0.0
0
LINE
8
0
10
48.7286
20
-107.2516
30
0.0
11
48.5145
21
-107.2791
31
0.0
0
LINE
8
0
10
48.5145
20
-107.2791
30
0.0
11
47.5778
21
-107.3091
31
0.0
0
LINE
8
0
10
47.5778
20
-107.3091
30
0.0
11
46.3783
21
-107.1297
31
0.0
0
LINE
8
0
10
46.3783
20
-107.1297
30
0.0
11
45.4972
21
-106.8296
31
0.0
0
LINE
8
0
10
45.4972
20
-106.8296
30
0.0
11
44.4883
21
-106.2764
31
0.0
0
LINE
8
0
10
44.4883
20
-106.2764
30
0.0
11
43.7572
21
-105.6915
31
0.0
0
LINE
8
0
10
43.7572
20
-105.6915
30
0.0
11
43.1263
21
-105.0013
31
0.0
0
LINE
8
0
10
43.1263
20
-105.0013
30
0.0
11
42.8082
21
-104.5523
31
0.0
0
LINE
8
0
10
42.8082
20
-104.5523
30
0.0
11
42.5328
21
-104.0758
31
0.0
0
LINE
8
0
10
48.9194
20
-107.2206
30
0.0
11
83.3722
21
-101.0525
31
0.0
0
LINE
8
0
10
83.7793
20
-100.9651
30
0.0
11
83.3722
21
-101.0525
31
0.0
0
ARC
8
0
10
95.9704
20
-149.4561
30
0.0
40
50.0000
50
82.4371
51
104.1122
0
LINE
8
0
10
102.5511
20
-99.8910
30
0.0
11
128.7354
21
-103.2975
31
0.0
0
LINE
8
0
10
128.7354
20
-103.2975
30
0.0
11
137.3199
21
-108.2851
31
0.0
0
ARC
8
0
10
134.8082
20
-112.6083
30
0.0
40
4.9999
50
0.7178
51
59.8439
0
LINE
8
0
10
139.8077
20
-112.5485
30
0.0
11
139.8077
21
-112.5474
31
0.0
0
LINE
8
0
10
139.8077
20
-112.5474
30
0.0
11
139.8077
21
-112.5457
31
0.0
0
ARC
8
0
10
142.8077
20
-112.5485
30
0.0
40
3.0000
50
180.0000
51
270.0000
0
LINE
8
0
10
143.6155
20
-115.4385
30
0.0
11
142.8077
21
-115.5485
31
0.0
0
ARC
8
0
10
144.9616
20
-120.2539
30
0.0
40
5.0000
50
45.1344
51
105.6173
0
LINE
8
0
10
148.4888
20
-116.7101
30
0.0
11
155.8591
21
-123.9819
31
0.0
0
LINE
8
0
10
156.3611
20
-124.3929
30
0.0
11
155.8591
21
-123.9819
31
0.0
0
LINE
8
0
10
162.8893
20
-123.4168
30
0.0
11
162.6512
21
-123.6894
31
0.0
0
LINE
8
0
10
162.6512
20
-123.6894
30
0.0
11
161.9191
21
-124.3273
31
0.0
0
LINE
8
0
10
161.9191
20
-124.3273
30
0.0
11
160.9963
21
-124.8412
31
0.0
0
LINE
8
0
10
160.9963
20
-124.8412
30
0.0
11
160.1955
21
-125.1007
31
0.0
0
LINE
8
0
10
160.1955
20
-125.1007
30
0.0
11
159.8356
21
-125.1699
31
0.0
0
LINE
8
0
10
159.8356
20
-125.1699
30
0.0
11
158.9932
21
-125.2262
31
0.0
0
LINE
8
0
10
158.9932
20
-125.2262
30
0.0
11
158.6017
21
-125.2029
31
0.0
0
LINE
8
0
10
158.6017
20
-125.2029
30
0.0
11
157.7745
21
-125.0470
31
0.0
0
LINE
8
0
10
157.7745
20
-125.0470
30
0.0
11
157.5411
21
-124.9753
31
0.0
0
LINE
8
0
10
157.5411
20
-124.9753
30
0.0
11
156.7710
21
-124.6411
31
0.0
0
LINE
8
0
10
156.7710
20
-124.6411
30
0.0
11
156.3611
21
-124.3929
31
0.0
0
LINE
8
0
10
162.8893
20
-123.4168
30
0.0
11
182.7241
21
-103.5769
31
0.0
0
ARC
8
0
10
186.2600
20
-107.1119
30
0.0
40
4.9999
50
76.7405
51
135.0076
0
LINE
8
0
10
188.1318
20
-102.3335
30
0.0
11
187.4068
21
-102.2453
31
0.0
0
ARC
8
0
10
188.1318
20
-99.3335
30
0.0
40
3.0000
50
270.0000
51
0.0000
0
LINE
8
0
10
190.8320
20
-98.0255
30
0.0
11
191.0527
21
-98.6465
31
0.0
0
LINE
8
0
10
191.0527
20
-98.6465
30
0.0
11
191.1119
21
-98.9865
31
0.0
0
LINE
8
0
10
191.1119
20
-98.9865
30
0.0
11
191.1318
21
-99.3335
31
0.0
0
ARC
8
0
10
195.3274
20
-95.8370
30
0.0
40
4.9998
50
170.7072
51
205.9588
0
LINE
8
0
10
190.4500
20
-94.4024
30
0.0
11
190.3932
21
-95.0296
31
0.0
0
LINE
8
0
10
190.4500
20
-94.4024
30
0.0
11
190.4550
21
-87.0063
31
0.0
0
LINE
8
0
10
190.4550
20
-87.0013
30
0.0
11
190.4550
21
-87.0031
31
0.0
0
LINE
8
0
10
190.4550
20
-87.0031
30
0.0
11
190.4550
21
-87.0046
31
0.0
0
LINE
8
0
10
190.4550
20
-87.0046
30
0.0
11
190.4550
21
-87.0063
31
0.0
0
LINE
8
0
10
190.4550
20
-87.0013
30
0.0
11
190.4500
21
-81.0012
31
0.0
0
LINE
8
0
10
190.4500
20
-81.0012
30
0.0
11
190.4170
21
-38.0005
31
0.0
0
LINE
8
0
10
190.4170
20
-38.0005
30
0.0
11
190.4151
21
-35.1409
31
0.0
0
ARC
8
0
10
195.4149
20
-35.1375
30
0.0
40
4.9999
50
124.7997
51
180.0385
0
ARC
8
0
10
190.8486
20
-28.5689
30
0.0
40
3.0000
50
304.8177
51
0.0000
0
ARC
8
0
10
190.8486
20
-28.5689
30
0.0
40
3.0000
50
360.0000
51
59.4847
0
ARC
8
0
10
194.9106
20
-21.6771
30
0.0
40
4.9999
50
199.2679
51
239.4850
0
LINE
8
0
10
186.4069
20
-20.6272
30
0.0
11
186.7092
21
-20.6385
31
0.0
0
LINE
8
0
10
186.7092
20
-20.6385
30
0.0
11
187.4588
21
-20.7670
31
0.0
0
LINE
8
0
10
187.4588
20
-20.7670
30
0.0
11
187.4946
21
-20.7770
31
0.0
0
LINE
8
0
10
187.4946
20
-20.7770
30
0.0
11
188.3709
21
-21.1419
31
0.0
0
LINE
8
0
10
188.3709
20
-21.1419
30
0.0
11
188.9950
21
-21.5774
31
0.0
0
LINE
8
0
10
188.9950
20
-21.5774
30
0.0
11
189.2325
21
-21.7962
31
0.0
0
LINE
8
0
10
189.2325
20
-21.7962
30
0.0
11
189.7197
21
-22.3850
31
0.0
0
LINE
8
0
10
189.7197
20
-22.3850
30
0.0
11
189.8763
21
-22.6352
31
0.0
0
LINE
8
0
10
189.8763
20
-22.6352
30
0.0
11
190.1908
21
-23.3269
31
0.0
0
LINE
8
0
10
186.4069
20
-20.6272
30
0.0
11
176.1866
21
-20.6272
31
0.0
0
LINE
8
0
10
176.1866
20
-20.6272
30
0.0
11
161.2673
21
-18.6867
31
0.0
0
ARC
8
0
10
161.9121
20
-13.7287
30
0.0
40
4.9997
50
208.9955
51
262.5899
0
ARC
8
0
10
154.9182
20
-17.6122
30
0.0
40
3.0000
50
29.1198
51
90.0000
0
ARC
8
0
10
154.9182
20
-17.6122
30
0.0
40
3.0000
50
90.0000
51
147.4370
0
ARC
8
0
10
148.1758
20
-13.3064
30
0.0
40
5.0000
50
269.7792
51
327.4370
0
LINE
8
0
10
148.1566
20
-18.3063
30
0.0
11
123.1153
21
-18.3212
31
0.0
0
LINE
8
0
10
119.4082
20
-15.8232
30
0.0
11
120.1561
21
-15.8935
31
0.0
0
LINE
8
0
10
120.1561
20
-15.8935
30
0.0
11
120.8863
21
-16.1061
31
0.0
0
LINE
8
0
10
120.8863
20
-16.1061
30
0.0
11
121.6006
21
-16.4774
31
0.0
0
LINE
8
0
10
121.6006
20
-16.4774
30
0.0
11
122.2982
21
-17.0574
31
0.0
0
LINE
8
0
10
122.2982
20
-17.0574
30
0.0
11
122.7823
21
-17.6745
31
0.0
0
LINE
8
0
10
122.7823
20
-17.6745
30
0.0
11
123.1153
21
-18.3212
31
0.0
0
LINE
8
0
10
119.4082
20
-15.8232
30
0.0
11
104.0048
21
-15.8232
31
0.0
0
CIRCLE
8
0
10
40.4878
20
-92.2113
30
0.0
40
1.6000
0
CIRCLE
8
0
10
43.6500
20
-68.2300
30
0.0
40
1.6000
0
CIRCLE
8
0
10
87.3226
20
-94.8247
30
0.0
40
1.6000
0
CIRCLE
8
0
10
142.8077
20
-112.5485
30
0.0
40
1.6000
0
CIRCLE
8
0
10
188.1318
20
-99.3335
30
0.0
40
1.6000
0
CIRCLE
8
0
10
157.8500
20
-94.0300
30
0.0
40
1.6000
0
CIRCLE
8
0
10
40.2500
20
-49.6300
30
0.0
40
1.6000
0
CIRCLE
8
0
10
22.1020
20
-29.9071
30
0.0
40
1.6000
0
CIRCLE
8
0
10
92.0769
20
-12.4242
30
0.0
40
1.6000
0
CIRCLE
8
0
10
139.4500
20
-40.3300
30
0.0
40
1.6000
0
LINE
8
0
10
158.7600
20
-44.2800
30
0.0
11
158.7600
21
-38.2800
31
0.0
0
LINE
8
0
10
147.7600
20
-44.2800
30
0.0
11
158.7600
21
-44.2800
31
0.0
0
LINE
8
0
10
147.7600
20
-38.2800
30
0.0
11
147.7600
21
-44.2800
31
0.0
0
LINE
8
0
10
158.7600
20
-38.2800
30
0.0
11
147.7600
21
-38.2800
31
0.0
0
CIRCLE
8
0
10
190.8486
20
-28.5689
30
0.0
40
1.6000
0
CIRCLE
8
0
10
154.9182
20
-17.6122
30
0.0
40
1.6000
0
ENDSEC
0
EOF
