<svg xmlns="http://www.w3.org/2000/svg" width="950" height="650" viewBox="6 10 190 130">
<rect x="6" y="10" width="190" height="130" fill="#fcfcfe"/>
<g transform="rotate(-10.1,53.6,96.5)"><rect x="31.6" y="85.2" width="44.0" height="22.5" rx="2.5" fill="#ffe9b0" stroke="#c90" stroke-width="0.5"/><rect x="35.6" y="87.7" width="36" height="17.5" rx="8.75" fill="#fd7" stroke="#960" stroke-width="0.4"/><text x="53.6" y="97.5" font-size="2.8" fill="#750" text-anchor="middle">accu 16340</text></g>
<g stroke="#999" stroke-width="0.4" fill="none">
<line x1="14.31" y1="35.80" x2="15.23" y2="41.02"/>
<line x1="16.28" y1="47.02" x2="18.11" y2="57.46"/>
<line x1="19.16" y1="63.46" x2="23.91" y2="90.60"/>
<line x1="27.98" y1="93.44" x2="82.03" y2="83.77"/>
<line x1="56.56" y1="23.80" x2="56.56" y2="27.60"/>
<line x1="59.44" y1="24.15" x2="17.14" y2="31.75"/>
<line x1="78.94" y1="82.53" x2="89.48" y2="96.99"/>
<line x1="82.10" y1="18.31" x2="59.75" y2="20.31"/>
<line x1="79.41" y1="17.57" x2="79.41" y2="21.30"/>
<line x1="92.21" y1="98.54" x2="128.88" y2="103.31"/>
<line x1="100.41" y1="13.57" x2="83.41" y2="13.57"/>
<line x1="104.41" y1="18.82" x2="104.41" y2="17.57"/>
<line x1="119.41" y1="15.82" x2="101.41" y2="15.82"/>
<line x1="123.41" y1="21.32" x2="123.41" y2="19.82"/>
<line x1="128.23" y1="103.00" x2="144.10" y2="112.22"/>
<line x1="143.40" y1="111.69" x2="155.86" y2="123.98"/>
<line x1="158.06" y1="18.30" x2="120.41" y2="18.32"/>
<line x1="155.06" y1="22.30" x2="155.06" y2="23.62"/>
<line x1="155.56" y1="24.12" x2="155.56" y2="30.68"/>
<line x1="159.06" y1="34.18" x2="175.96" y2="34.18"/>
<line x1="162.72" y1="123.58" x2="189.43" y2="96.87"/>
<line x1="172.46" y1="24.12" x2="172.46" y2="30.68"/>
<line x1="186.41" y1="20.62" x2="175.96" y2="20.62"/>
<line x1="183.41" y1="24.63" x2="183.41" y2="32.00"/>
<line x1="183.42" y1="38.00" x2="183.45" y2="81.00"/>
<line x1="186.95" y1="97.90" x2="186.96" y2="97.90"/>
<line x1="183.45" y1="87.00" x2="183.46" y2="94.40"/>
<line x1="80.07" y1="83.55" x2="80.42" y2="83.70"/>
<line x1="85.38" y1="20.04" x2="85.88" y2="19.54"/>
<line x1="80.44" y1="18.82" x2="79.94" y2="19.32"/>
<line x1="94.00" y1="91.84" x2="93.65" y2="91.69"/>
<line x1="97.94" y1="19.54" x2="98.44" y2="20.04"/>
<line x1="103.88" y1="16.85" x2="103.38" y2="16.35"/>
<line x1="116.94" y1="21.79" x2="117.44" y2="22.29"/>
<line x1="122.88" y1="19.35" x2="122.38" y2="18.85"/>
<line x1="128.65" y1="103.27" x2="129.30" y2="103.40"/>
<line x1="155.59" y1="24.27" x2="156.09" y2="24.77"/>
<line x1="161.54" y1="21.65" x2="161.04" y2="21.15"/>
<line x1="159.57" y1="117.67" x2="157.64" y2="118.05"/>
<line x1="183.93" y1="26.60" x2="184.43" y2="27.10"/>
</g>
<line x1="17.7605" y1="35.196" x2="18.6749" y2="40.416" stroke="#222" stroke-width="0.55"/>
<line x1="19.726" y1="46.416" x2="21.5549" y2="56.856" stroke="#222" stroke-width="0.55"/>
<line x1="22.606" y1="62.856" x2="27.3605" y2="89.996" stroke="#222" stroke-width="0.55"/>
<line x1="27.36048" y1="89.99598" x2="81.41" y2="80.32" stroke="#222" stroke-width="0.55"/>
<line x1="60.06048" y1="23.79598" x2="60.06048" y2="27.59598" stroke="#222" stroke-width="0.55"/>
<line x1="60.06048" y1="27.59598" x2="17.76048" y2="35.19598" stroke="#222" stroke-width="0.55"/>
<line x1="81.763553" y1="80.466447" x2="92.306447" y2="94.923553" stroke="#222" stroke-width="0.55"/>
<line x1="82.41" y1="21.79598" x2="60.06048" y2="23.79598" stroke="#222" stroke-width="0.55"/>
<line x1="82.91" y1="17.57" x2="82.91" y2="21.296" stroke="#222" stroke-width="0.55"/>
<line x1="92.66" y1="95.07" x2="129.330556" y2="99.840344" stroke="#222" stroke-width="0.55"/>
<line x1="100.41" y1="17.07" x2="83.41" y2="17.07" stroke="#222" stroke-width="0.55"/>
<line x1="100.91" y1="18.82" x2="100.91" y2="17.57" stroke="#222" stroke-width="0.55"/>
<line x1="119.41" y1="19.32" x2="101.41" y2="19.32" stroke="#222" stroke-width="0.55"/>
<line x1="119.91" y1="21.32" x2="119.91" y2="19.82" stroke="#222" stroke-width="0.55"/>
<line x1="129.985" y1="99.97" x2="145.86048" y2="109.19598" stroke="#222" stroke-width="0.55"/>
<line x1="145.86048" y1="109.19598" x2="158.317653" y2="121.485335" stroke="#222" stroke-width="0.55"/>
<line x1="158.06048" y1="21.79598" x2="120.41" y2="21.82" stroke="#222" stroke-width="0.55"/>
<line x1="158.56048" y1="22.29598" x2="158.56048" y2="23.62098" stroke="#222" stroke-width="0.55"/>
<line x1="159.06048" y1="24.12098" x2="159.06048" y2="30.683" stroke="#222" stroke-width="0.55"/>
<line x1="159.06048" y1="30.683" x2="175.96048" y2="30.683" stroke="#222" stroke-width="0.55"/>
<line x1="160.245665" y1="121.105844" x2="186.95048" y2="94.39598" stroke="#222" stroke-width="0.55"/>
<line x1="175.96048" y1="24.12398" x2="175.96048" y2="30.683" stroke="#222" stroke-width="0.55"/>
<line x1="186.406927" y1="24.12398" x2="175.96048" y2="24.12398" stroke="#222" stroke-width="0.55"/>
<line x1="186.9069" y1="24.624" x2="186.9126" y2="32.0" stroke="#222" stroke-width="0.55"/>
<line x1="186.9172" y1="38.0" x2="186.9502" y2="81.0" stroke="#222" stroke-width="0.55"/>
<line x1="186.95" y1="94.396" x2="186.9605" y2="94.396" stroke="#222" stroke-width="0.55"/>
<line x1="186.9548" y1="87.0" x2="186.9605" y2="94.396" stroke="#222" stroke-width="0.55"/>
<line x1="81.41" y1="80.32" x2="81.763553" y2="80.466447" stroke="#222" stroke-width="0.55"/>
<line x1="82.91" y1="17.57" x2="83.41" y2="17.07" stroke="#222" stroke-width="0.55"/>
<line x1="82.91" y1="21.29598" x2="82.41" y2="21.79598" stroke="#222" stroke-width="0.55"/>
<line x1="92.66" y1="95.07" x2="92.306447" y2="94.923553" stroke="#222" stroke-width="0.55"/>
<line x1="100.41" y1="17.07" x2="100.91" y2="17.57" stroke="#222" stroke-width="0.55"/>
<line x1="101.41" y1="19.32" x2="100.91" y2="18.82" stroke="#222" stroke-width="0.55"/>
<line x1="119.41" y1="19.32" x2="119.91" y2="19.82" stroke="#222" stroke-width="0.55"/>
<line x1="120.41" y1="21.82" x2="119.91" y2="21.32" stroke="#222" stroke-width="0.55"/>
<line x1="129.330556" y1="99.840344" x2="129.985" y2="99.97" stroke="#222" stroke-width="0.55"/>
<line x1="158.06048" y1="21.79598" x2="158.56048" y2="22.29598" stroke="#222" stroke-width="0.55"/>
<line x1="159.06048" y1="24.12098" x2="158.56048" y2="23.62098" stroke="#222" stroke-width="0.55"/>
<line x1="160.245665" y1="121.105844" x2="158.317653" y2="121.485335" stroke="#222" stroke-width="0.55"/>
<line x1="186.406927" y1="24.12398" x2="186.906927" y2="24.62398" stroke="#222" stroke-width="0.55"/>
<rect x="22.307994" y="34.854022" width="14" height="14" fill="none" stroke="#7ab" stroke-width="0.3" transform="rotate(170.0,29.307994,41.854022)"/>
<rect x="41.019341" y="31.554707" width="14" height="14" fill="none" stroke="#7ab" stroke-width="0.3" transform="rotate(170.0,48.019341,38.554707)"/>
<rect x="62.904521" y="24.568281" width="14" height="14" fill="none" stroke="#7ab" stroke-width="0.3" transform="rotate(175.0,69.904521,31.568281)"/>
<rect x="84.91" y="19.07" width="14" height="14" fill="none" stroke="#7ab" stroke-width="0.3" transform="rotate(-180.0,91.91,26.07)"/>
<rect x="103.91" y="21.445" width="14" height="14" fill="none" stroke="#7ab" stroke-width="0.3" transform="rotate(-180.0,110.91,28.445)"/>
<rect x="122.91" y="23.82" width="14" height="14" fill="none" stroke="#7ab" stroke-width="0.3" transform="rotate(-180.0,129.91,30.82)"/>
<rect x="25.607309" y="53.56537" width="14" height="14" fill="none" stroke="#7ab" stroke-width="0.3" transform="rotate(170.0,32.607309,60.56537)"/>
<rect x="44.318657" y="50.266054" width="14" height="14" fill="none" stroke="#7ab" stroke-width="0.3" transform="rotate(170.0,51.318657,57.266054)"/>
<rect x="64.56048" y="43.49598" width="14" height="14" fill="none" stroke="#7ab" stroke-width="0.3" transform="rotate(175.0,71.56048,50.49598)"/>
<rect x="84.91" y="38.07" width="14" height="14" fill="none" stroke="#7ab" stroke-width="0.3" transform="rotate(-180.0,91.91,45.07)"/>
<rect x="103.91" y="40.445" width="14" height="14" fill="none" stroke="#7ab" stroke-width="0.3" transform="rotate(-180.0,110.91,47.445)"/>
<rect x="122.91" y="42.82" width="14" height="14" fill="none" stroke="#7ab" stroke-width="0.3" transform="rotate(-180.0,129.91,49.82)"/>
<rect x="28.906625" y="72.276717" width="14" height="14" fill="none" stroke="#c90" stroke-width="0.45" transform="rotate(170.0,35.906625,79.276717)"/>
<rect x="47.617972" y="68.977402" width="14" height="14" fill="none" stroke="#c90" stroke-width="0.45" transform="rotate(170.0,54.617972,75.977402)"/>
<rect x="66.216439" y="62.42367900000001" width="14" height="14" fill="none" stroke="#c90" stroke-width="0.45" transform="rotate(175.0,73.216439,69.423679)"/>
<rect x="84.91" y="57.06999999999999" width="14" height="14" fill="none" stroke="#7ab" stroke-width="0.3" transform="rotate(-180.0,91.91,64.07)"/>
<rect x="103.91" y="59.44499999999999" width="14" height="14" fill="none" stroke="#7ab" stroke-width="0.3" transform="rotate(-180.0,110.91,66.445)"/>
<rect x="122.91" y="61.81999999999999" width="14" height="14" fill="none" stroke="#7ab" stroke-width="0.3" transform="rotate(-180.0,129.91,68.82)"/>
<rect x="94.41" y="79.07" width="14" height="14" fill="none" stroke="#7ab" stroke-width="0.3" transform="rotate(-180.0,101.41,86.07)"/>
<rect x="115.41" y="81.82" width="14" height="14" fill="none" stroke="#7ab" stroke-width="0.3" transform="rotate(-165.0,122.41,88.82)"/>
<rect x="135.257463" y="89.511158" width="14" height="14" fill="none" stroke="#7ab" stroke-width="0.3" transform="rotate(-150.0,142.257463,96.511158)"/>
<rect x="152.06048" y="102.29598" width="14" height="14" fill="none" stroke="#7ab" stroke-width="0.3" transform="rotate(-135.0,159.06048,109.29598)"/>
<rect x="141.96048" y="23.87598" width="14" height="14" fill="none" stroke="#7ab" stroke-width="0.3" transform="rotate(-180.0,148.96048,30.87598)"/>
<rect x="144.96048" y="72.89598" width="14" height="14" fill="none" stroke="#7ab" stroke-width="0.3" transform="rotate(-150.0,151.96048,79.89598)"/>
<rect x="165.711375" y="88.706102" width="14" height="14" fill="none" stroke="#7ab" stroke-width="0.3" transform="rotate(-135.0,172.711375,95.706102)"/>
<rect x="141.96048" y="42.79598" width="14" height="14" fill="none" stroke="#7ab" stroke-width="0.3" transform="rotate(-180.0,148.96048,49.79598)"/>
<circle cx="157.85048" cy="94.02598" r="1.6" fill="none" stroke="#444" stroke-width="0.4"/><circle cx="157.85048" cy="94.02598" r="0.4" fill="#444"/>
<circle cx="43.65048" cy="68.22598" r="1.6" fill="none" stroke="#444" stroke-width="0.4"/><circle cx="43.65048" cy="68.22598" r="0.4" fill="#444"/>
<circle cx="40.25048" cy="49.62598" r="1.6" fill="none" stroke="#444" stroke-width="0.4"/><circle cx="40.25048" cy="49.62598" r="0.4" fill="#444"/>
<circle cx="139.45048" cy="40.32598" r="1.6" fill="none" stroke="#444" stroke-width="0.4"/><circle cx="139.45048" cy="40.32598" r="0.4" fill="#444"/>
<g transform="rotate(-90,181.36,26.38)"><rect x="180.36" y="21.58" width="6" height="9.6" fill="#cfe6ff" stroke="#06f" stroke-width="0.5"/></g>
<text x="177.36" y="20.38" font-size="2.9" fill="#06f" text-anchor="end">ouv. USB-C</text>
<g transform="rotate(0,186.86,80.23)"><rect x="185.86" y="76.48" width="6" height="7.5" fill="#cfe6ff" stroke="#06f" stroke-width="0.5"/></g>
<text x="182.86" y="74.23" font-size="2.9" fill="#06f" text-anchor="end">ouv. TRRS</text>
<g transform="rotate(-180,27.76,75.48)"><rect x="26.76" y="70.98" width="6" height="9.0" fill="#cfe6ff" stroke="#06f" stroke-width="0.5"/></g>
<text x="34.760000000000005" y="69.48" font-size="2.9" fill="#06f" text-anchor="start">ouv. interrupteur</text>
<text x="9" y="15" font-size="4.2" fill="#111">Niphargus — boîtier moitié gauche (accu À CÔTÉ du PCB)</text>
<text x="9" y="20" font-size="2.9" fill="#666">noir = bord PCB · gris = cadre alu · bleu = ouvertures · jaune = logement accu, hors contour, le long du bord</text>
</svg>